<svg width="79" height="102" viewBox="0 0 79 102" fill="none" xmlns="http://www.w3.org/2000/svg">
<mask id="mask0_78_105" style="mask-type:alpha" maskUnits="userSpaceOnUse" x="0" y="0" width="79" height="102">
<rect width="79" height="102" fill="#D9D9D9"/>
</mask>
<g mask="url(#mask0_78_105)">
<g opacity="0.3">
<path d="M-34.0972 277.195C-39.4782 276.687 -44.8591 276.484 -50.1385 275.469C-62.5248 273.235 -74.8096 270.595 -87.0944 267.956C-87.7036 267.854 -88.5158 266.839 -88.7189 266.23C-89.9372 261.458 -88.7189 257.904 -84.6578 254.96C-78.7692 250.798 -72.8806 246.432 -66.6875 242.675C-58.9714 238.005 -51.0523 237.294 -43.4377 243.386C-42.6255 243.995 -41.3056 244.097 -40.1888 244.097C-37.7522 243.995 -35.3155 243.792 -32.6758 243.589C-34.6048 238.817 -36.5339 233.944 -38.4629 229.071C-42.727 218.004 -45.7728 206.633 -47.0927 194.958C-48.8187 180.338 -47.0927 166.124 -42.2194 152.316C-35.7216 133.838 -25.2643 117.594 -13.3857 101.959C-14.2994 104.598 -15.2132 107.34 -16.0254 109.979C-20.7971 124.396 -25.772 138.813 -30.1376 153.331C-31.7621 158.915 -32.0667 165.007 -32.6758 170.896C-32.9804 173.434 -31.9651 174.246 -29.5285 173.231C-26.0766 171.708 -22.5231 170.083 -19.3758 168.053C-8.20776 160.743 2.8587 153.23 14.0267 145.818C14.8389 145.311 15.6511 144.803 16.4633 144.295C16.6664 144.397 16.8695 144.6 17.0725 144.702C14.6359 148.153 12.3007 151.808 9.66103 155.057C2.04649 164.499 -7.29401 171.911 -18.462 176.784C-20.2895 177.596 -22.0155 178.409 -23.7414 179.322C-29.7315 182.571 -32.1682 186.734 -31.1529 193.435C-29.9346 201.252 -28.2086 208.867 -26.5842 216.583C-25.6704 220.847 -24.6552 225.01 -23.3353 229.172C-18.9697 243.081 -10.7459 248.97 4.28008 249.478C10.7778 249.681 17.3771 249.985 23.7733 251.204C32.7077 252.93 39.4085 258.311 44.6879 266.027C40.7283 267.143 36.9719 268.057 33.2153 269.174C18.4939 273.438 3.67092 276.585 -11.6597 276.788C-12.2689 276.788 -12.878 276.992 -13.4872 277.195C-20.5941 277.195 -27.2949 277.195 -34.0972 277.195Z" fill="black"/>
<path d="M-4.65433 44.3926C-6.17723 40.1284 -7.70014 35.9658 -9.32458 31.7017C-9.73069 31.7017 -10.0353 31.7017 -10.4414 31.7017C-11.4567 36.2704 -12.3704 40.7376 -13.3857 45.5094C-17.2437 43.6819 -19.2743 40.7376 -20.6956 37.3872C-22.4216 33.123 -22.8277 28.6558 -21.4063 24.1886C-19.2742 17.2848 -15.4162 11.1932 -11.2536 5C-6.98945 9.77178 -3.43601 14.7466 -0.593245 20.2291C2.24952 25.7116 3.06174 31.2956 0.828146 37.0826C-0.187126 39.8238 -2.01462 42.159 -3.53753 44.6971C-3.84211 44.5956 -4.24822 44.4941 -4.65433 44.3926Z" fill="black"/>
<path d="M3.97552 55.6621C7.42745 62.769 10.5748 69.5713 11.5901 77.1858C12.5038 83.9882 7.83356 92.7195 1.43734 95.4607C0.929705 90.892 0.320551 86.4248 -0.187085 81.9576C-0.491667 81.8561 -0.897776 81.7546 -1.20236 81.7546C-3.13138 85.8157 -5.0604 89.9783 -7.39552 94.8516C-8.91843 92.4149 -10.3398 90.7905 -11.0505 88.963C-13.3856 83.379 -13.1826 77.6935 -10.2383 72.3125C-6.78636 65.8148 -1.60847 60.84 3.97552 55.6621Z" fill="black"/>
<path d="M11.184 99.928C12.0977 97.0852 12.4023 94.8516 13.4176 93.0241C16.5649 87.034 21.5397 83.2775 28.2405 82.7699C34.8398 82.2622 41.4391 82.6684 48.6475 82.6684C44.6879 91.0951 41.6421 99.2173 34.5352 104.801C29.6619 108.659 21.8443 109.675 16.5649 106.933C19.6107 103.481 22.6565 100.131 25.7024 96.8822C25.4993 96.5776 25.3978 96.273 25.1947 95.9684C20.829 97.1867 16.4634 98.4051 11.184 99.928Z" fill="black"/>
<path d="M30.068 26.4223C28.9512 34.4429 29.1543 42.362 22.555 48.0476C19.9153 50.2812 16.8695 51.601 12.9099 50.9919C14.3313 47.8445 15.6512 44.7987 16.971 41.8544C16.768 41.6514 16.5649 41.4483 16.3619 41.2452C13.6206 43.0727 10.7779 44.9002 7.9351 46.7277C6.00609 42.159 8.23969 35.6612 13.0115 32.3109C17.9863 28.9605 23.7734 27.7421 30.068 26.4223Z" fill="black"/>
<path d="M51.3888 104.091C53.7239 101.451 55.9575 99.0142 58.1911 96.5775C58.0896 96.3745 57.8865 96.0699 57.785 95.8668C54.6376 96.7806 51.4903 97.5928 48.1399 98.5065C47.4292 95.8668 48.6475 93.8363 49.8658 92.0088C52.5056 88.1508 56.2621 85.8156 60.9323 85.6126C65.6026 85.4095 70.1713 85.6126 75.5522 85.6126C71.7957 93.2271 69.5621 100.74 61.643 104.192C58.1911 105.715 54.9422 105.715 51.3888 104.091Z" fill="black"/>
<path d="M38.4948 51.7026C38.0887 57.4896 37.378 62.9721 35.0428 68.15C32.7077 73.1248 27.1237 76.3737 21.4382 75.8661C22.1489 74.2416 22.7581 72.8202 23.4687 71.2973C24.1794 69.7744 24.7886 68.2515 25.4993 66.7286C25.2962 66.5256 25.0932 66.3225 24.9917 66.1194C22.1489 67.9469 19.3061 69.7744 16.4634 71.6019C14.2298 67.6424 17.4786 60.4339 20.9306 57.6927C24.281 55.053 33.5199 51.8041 38.4948 51.7026Z" fill="black"/>
<path d="M58.8002 75.663C60.1201 72.7187 61.4399 69.7744 62.7598 66.8301C62.5567 66.627 62.3537 66.424 62.2521 66.2209C59.4094 68.0484 56.5666 69.8759 53.6223 71.8049C52.0994 66.5255 54.2315 60.4339 59.0033 57.2865C63.9781 53.9361 69.6636 52.7178 75.3491 51.601C76.9736 59.8247 72.3033 71.3988 65.8056 74.7492C63.8766 75.7645 61.5414 75.9675 59.4094 76.5767C59.1048 76.2721 59.0033 75.9675 58.8002 75.663Z" fill="black"/>
</g>
</g>
</svg>
