<svg width="79" height="102" viewBox="0 0 79 102" fill="none" xmlns="http://www.w3.org/2000/svg">
<mask id="mask0_78_106" style="mask-type:alpha" maskUnits="userSpaceOnUse" x="0" y="0" width="79" height="102">
<rect x="79" y="102" width="79" height="102" transform="rotate(-180 79 102)" fill="#D9D9D9"/>
</mask>
<g mask="url(#mask0_78_106)">
<g opacity="0.3">
<path d="M113.097 -175.195C118.478 -174.687 123.859 -174.484 129.139 -173.469C141.525 -171.235 153.81 -168.595 166.094 -165.956C166.704 -165.854 167.516 -164.839 167.719 -164.23C168.937 -159.458 167.719 -155.904 163.658 -152.96C157.769 -148.797 151.881 -144.432 145.687 -140.675C137.971 -136.005 130.052 -135.294 122.438 -141.386C121.626 -141.995 120.306 -142.097 119.189 -142.097C116.752 -141.995 114.316 -141.792 111.676 -141.589C113.605 -136.817 115.534 -131.944 117.463 -127.071C121.727 -116.004 124.773 -104.633 126.093 -92.9575C127.819 -78.3376 126.093 -64.1238 121.219 -50.3161C114.722 -31.8381 104.264 -15.5937 92.3857 0.041451C93.2994 -2.59826 94.2132 -5.33949 95.0254 -7.9792C99.7972 -22.3961 104.772 -36.8129 109.138 -51.3313C110.762 -56.9153 111.067 -63.007 111.676 -68.8955C111.98 -71.4337 110.965 -72.2459 108.529 -71.2307C105.077 -69.7078 101.523 -68.0833 98.3758 -66.0528C87.2078 -58.7428 76.1413 -51.2298 64.9733 -43.8183C64.1611 -43.3107 63.3489 -42.803 62.5367 -42.2954C62.3336 -42.3969 62.1306 -42.6 61.9275 -42.7015C64.3642 -46.1534 66.6993 -49.8084 69.339 -53.0573C76.9535 -62.4993 86.2941 -69.9108 97.462 -74.7841C99.2895 -75.5963 101.016 -76.4086 102.741 -77.3223C108.732 -80.5712 111.168 -84.7338 110.153 -91.4346C108.935 -99.2522 107.209 -106.867 105.584 -114.583C104.67 -118.847 103.655 -123.01 102.335 -127.172C97.9697 -141.081 89.746 -146.97 74.72 -147.478C68.2222 -147.681 61.623 -147.985 55.2267 -149.204C46.2923 -150.93 39.5915 -156.311 34.3121 -164.027C38.2717 -165.143 42.0282 -166.057 45.7847 -167.174C60.5061 -171.438 75.3291 -174.585 90.6597 -174.788C91.2689 -174.788 91.8781 -174.992 92.4872 -175.195C99.5941 -175.195 106.295 -175.195 113.097 -175.195Z" fill="black"/>
<path d="M83.6544 57.6074C85.1773 61.8716 86.7002 66.0342 88.3246 70.2983C88.7307 70.2983 89.0353 70.2983 89.4414 70.2983C90.4567 65.7296 91.3704 61.2624 92.3857 56.4906C96.2437 58.3181 98.2743 61.2624 99.6957 64.6128C101.422 68.877 101.828 73.3442 100.406 77.8114C98.2743 84.7152 94.4162 90.8068 90.2536 97C85.9895 92.2282 82.436 87.2534 79.5933 81.7709C76.7505 76.2884 75.9383 70.7044 78.1719 64.9174C79.1872 62.1762 81.0147 59.841 82.5376 57.3029C82.8421 57.4044 83.2483 57.5059 83.6544 57.6074Z" fill="black"/>
<path d="M75.0245 46.3379C71.5726 39.231 68.4252 32.4287 67.41 24.8141C66.4962 18.0118 71.1665 9.28049 77.5627 6.53925C78.0703 11.108 78.6795 15.5752 79.1871 20.0424C79.4917 20.1439 79.8978 20.2454 80.2024 20.2454C82.1314 16.1843 84.0604 12.0217 86.3955 7.14841C87.9185 9.58507 89.3398 11.2095 90.0505 13.037C92.3856 18.621 92.1826 24.3065 89.2383 29.6875C85.7864 36.1852 80.6085 41.16 75.0245 46.3379Z" fill="black"/>
<path d="M67.816 2.072C66.9023 4.91477 66.5977 7.14836 65.5824 8.97585C62.4351 14.966 57.4603 18.7225 50.7595 19.2301C44.1602 19.7377 37.5609 19.3316 30.3525 19.3316C34.3121 10.9049 37.3579 2.78269 44.4648 -2.80131C49.3381 -6.65935 57.1557 -7.67462 62.4351 -4.93338C59.3893 -1.48145 56.3435 1.86895 53.2976 5.11782C53.5007 5.4224 53.6022 5.72698 53.8053 6.03156C58.171 4.81324 62.5366 3.59491 67.816 2.072Z" fill="black"/>
<path d="M48.932 75.5777C50.0488 67.5571 49.8457 59.638 56.445 53.9524C59.0847 51.7188 62.1305 50.399 66.0901 51.0081C64.6687 54.1555 63.3488 57.2013 62.029 60.1456C62.2321 60.3486 62.4351 60.5517 62.6381 60.7548C65.3794 58.9273 68.2222 57.0998 71.0649 55.2723C72.9939 59.841 70.7603 66.3388 65.9886 69.6891C61.0137 73.0395 55.2267 74.2579 48.932 75.5777Z" fill="black"/>
<path d="M27.6112 -2.09057C25.2761 0.549138 23.0425 2.98578 20.8089 5.42244C20.9104 5.62549 21.1135 5.93008 21.215 6.13313C24.3624 5.21939 27.5097 4.40717 30.8601 3.49343C31.5708 6.13314 30.3525 8.16367 29.1342 9.99116C26.4944 13.8492 22.7379 16.1843 18.0677 16.3874C13.3974 16.5904 8.82872 16.3874 3.44777 16.3874C7.20428 8.77284 9.43788 1.25982 17.357 -2.1921C20.8089 -3.71501 24.0578 -3.71501 27.6112 -2.09057Z" fill="black"/>
<path d="M40.5053 50.2974C40.9114 44.5104 41.6221 39.0279 43.9572 33.85C46.2923 28.8752 51.8763 25.6263 57.5618 26.1339C56.8511 27.7584 56.242 29.1798 55.5313 30.7027C54.8206 32.2256 54.2114 33.7485 53.5007 35.2714C53.7038 35.4744 53.9068 35.6775 54.0084 35.8806C56.8511 34.0531 59.6939 32.2256 62.5367 30.3981C64.7703 34.3576 61.5214 41.5661 58.0695 44.3073C54.7191 46.947 45.4801 50.1959 40.5053 50.2974Z" fill="black"/>
<path d="M20.1998 26.337C18.88 29.2813 17.5601 32.2256 16.2403 35.1699C16.4433 35.3729 16.6464 35.576 16.7479 35.779C19.5907 33.9515 22.4334 32.1241 25.3777 30.195C26.9006 35.4745 24.7685 41.5661 19.9968 44.7134C15.0219 48.0638 9.33641 49.2822 3.65088 50.399C2.02645 42.1752 6.6967 30.6011 13.1944 27.2507C15.1235 26.2355 17.4586 26.0324 19.5907 25.4233C19.8952 25.7278 19.9968 26.0324 20.1998 26.337Z" fill="black"/>
</g>
</g>
</svg>
