<svg width="50" height="51" viewBox="0 0 50 51" fill="none" xmlns="http://www.w3.org/2000/svg">
<circle cx="30" cy="20" r="20" fill="#FFED00"/>
<path d="M0 24.5165V23.2408C0.10639 22.9116 0.193542 22.5756 0.321437 22.2556C1.20991 20.0345 2.09725 17.8135 3.00948 15.6027C3.22227 15.0867 3.32979 14.5765 3.31621 14.0172C3.29131 13.0183 3.30941 12.0194 3.30941 11H42.9182C42.9182 12.1766 42.9092 13.3144 42.925 14.4512C42.9284 14.7154 42.9793 14.9956 43.0778 15.2393C44.0557 17.6529 45.0494 20.0596 46.0352 22.4697C46.1518 22.7533 46.2514 23.0438 46.3601 23.3308V24.5153C46.2944 24.6577 46.1993 24.7944 46.1676 24.9447C45.8462 26.4562 45.0664 27.6578 43.7818 28.503C43.4841 28.6989 43.3687 28.8982 43.3698 29.2604C43.3811 36.2607 43.3777 43.2598 43.3777 50.2601V50.7966H2.8929V50.2202C2.8929 43.22 2.89064 36.2208 2.90083 29.2205C2.90083 28.8948 2.78765 28.7262 2.53752 28.5246C2.01349 28.1021 1.5087 27.6408 1.07069 27.1305C0.434617 26.3901 0.208255 25.4516 0.00226583 24.5176L0 24.5165ZM4.84075 29.4187V48.8318H27.9693V31.404H39.5149V48.8318H41.4265V29.4165C39.3575 29.5657 37.6644 28.8583 36.3526 27.2273C35.1925 28.6602 33.7381 29.4278 31.9419 29.4278C30.1344 29.4278 28.6789 28.6385 27.5347 27.2273C26.3655 28.6727 24.9089 29.4335 23.1104 29.4267C21.3188 29.4199 19.87 28.6465 18.7269 27.2273C17.5725 28.6522 16.1204 29.4256 14.3242 29.4278C12.5133 29.4301 11.0567 28.6408 9.90787 27.2284C8.58591 28.8697 6.89725 29.56 4.83962 29.4176L4.84075 29.4187ZM29.9183 42.081V48.8455H37.5648V33.3619H29.925V40.123C30.1559 40.123 30.3506 40.1219 30.5453 40.123C31.3466 40.1299 31.8106 40.4966 31.8016 41.1128C31.7925 41.7165 31.3432 42.0707 30.5679 42.0798C30.3608 42.0821 30.1537 42.0798 29.9171 42.0798L29.9183 42.081ZM5.255 14.8191H40.9568V12.9511H5.255V14.8179V14.8191ZM10.1772 16.8613C8.39351 16.8613 6.67994 16.8704 4.96525 16.8522C4.64947 16.8488 4.52724 16.9638 4.41746 17.2428C3.77232 18.8762 3.10682 20.4992 2.44924 22.128C2.38925 22.2761 2.34285 22.4287 2.27494 22.6246C4.58496 22.6246 6.84066 22.628 9.09635 22.6132C9.19369 22.6132 9.35894 22.4595 9.37479 22.3592C9.65095 20.5471 9.90787 18.7315 10.1772 16.8613ZM26.1663 16.892H20.1032C20.0093 18.8044 19.9165 20.6883 19.8225 22.5893H26.4368C26.3463 20.6758 26.2569 18.8021 26.1663 16.892ZM43.9731 22.6075C43.9561 22.5278 43.9527 22.4674 43.9312 22.415C43.2193 20.6473 42.5119 18.8773 41.7796 17.1176C41.7276 16.9923 41.4933 16.8749 41.3416 16.8727C39.7775 16.8544 38.2122 16.8613 36.648 16.8613C36.4737 16.8613 36.2994 16.8613 36.0889 16.8613C36.3786 18.8181 36.6604 20.7134 36.9411 22.6064H43.9731V22.6075ZM28.3722 22.5882H34.9865C34.7013 20.6633 34.4229 18.7805 34.1422 16.8886H28.0915C28.1855 18.8044 28.2783 20.6895 28.3722 22.5882ZM18.1769 16.8955H12.1262C11.8478 18.8112 11.5739 20.694 11.2977 22.5904H17.886C17.9833 20.6792 18.0795 18.8033 18.1769 16.8955ZM28.4401 24.5848C28.4843 24.8798 28.4503 25.1429 28.5601 25.3126C29.0705 26.1054 29.6421 26.8583 30.5623 27.2091C32.6233 27.995 34.2769 27.0724 35.3113 25.3582C35.5422 24.9755 35.274 24.5848 34.8314 24.5848C33.5683 24.5837 32.3052 24.5848 31.0421 24.5848C30.2023 24.5848 29.3637 24.5848 28.439 24.5848H28.4401ZM19.7682 24.6144C19.5249 25.209 19.8961 25.5484 20.1722 25.9186C21.0732 27.1271 22.2604 27.6635 23.7556 27.4312C24.8726 27.2581 25.64 26.5701 26.2874 25.6828C26.5319 25.348 26.6394 25.0347 26.5013 24.6144H19.7671H19.7682ZM10.9582 24.6122C10.9582 24.8775 10.8631 25.1874 10.974 25.3662C11.6135 26.3936 12.4239 27.233 13.6892 27.43C15.121 27.6521 16.2935 27.1852 17.1888 26.0359C17.5068 25.6281 17.9211 25.2511 17.7388 24.6122H10.9582ZM2.05197 24.6099C2.27381 26.2717 3.99076 27.6111 5.70546 27.4847C7.3828 27.3606 9.01034 25.9425 8.98884 24.6099H2.05197ZM44.2187 24.6167H37.258C37.3701 26.0644 38.9942 27.4278 40.6467 27.4904C42.3534 27.5553 43.9833 26.2557 44.2198 24.6167H44.2187Z" fill="black"/>
<path d="M6.78613 31.3972H25.9884V44.9672H6.78613V31.3972ZM8.70116 33.3619V43.0081H24.0802V33.3619H8.70116Z" fill="black"/>
</svg>
