<svg width="51" height="50" viewBox="0 0 51 50" fill="none" xmlns="http://www.w3.org/2000/svg">
<circle cx="31" cy="20" r="20" fill="#FFED00"/>
<path d="M0.000381563 29.3809C0.244796 30.1227 0.58192 30.8055 1.17188 31.345C1.93041 32.0363 2.80693 32.3987 3.83515 32.4156C4.04585 32.4156 4.25656 32.4156 4.53468 32.4156C4.53468 32.5926 4.53468 32.7528 4.53468 32.913C4.53468 37.0351 4.52626 41.1572 4.53468 45.2794C4.54311 47.5385 5.96746 49.3509 8.12504 49.8651C8.5043 49.9579 8.90042 49.9831 9.28811 49.9916C11.471 50 13.6623 50 15.8451 50C16.7975 50 17.3032 49.5026 17.3032 48.5501C17.3032 45.3215 17.3369 42.1014 17.2863 38.8728C17.2611 37.465 18.2219 36.4029 19.7221 36.4619C20.902 36.504 22.0735 36.4703 23.2534 36.4703C24.7199 36.4787 25.5711 37.3301 25.5711 38.8053C25.5711 42.0171 25.5711 45.2288 25.5711 48.4405C25.5711 49.5364 26.0347 50 27.1303 50C29.2626 50 31.3949 50 33.5188 50C36.3422 50 38.3397 48.0106 38.3397 45.1866C38.3481 41.1235 38.3397 37.0519 38.3397 32.9888C38.3397 32.8202 38.3397 32.6516 38.3397 32.4662C38.8201 32.424 39.2836 32.424 39.7303 32.3397C41.2305 32.0447 42.2587 31.1596 42.7475 29.7181C43.2532 28.285 42.9582 26.9784 41.989 25.8236C41.8626 25.6718 41.7193 25.537 41.5845 25.4021C36.1062 19.9228 30.6196 14.435 25.1413 8.94727C24.3491 8.15487 23.5821 7.34562 22.4696 7C21.7954 7 21.1211 7 20.4469 7C19.3849 7.34562 18.6264 8.09586 17.8595 8.86297C12.4655 14.2664 7.07153 19.6699 1.66914 25.0565C0.944327 25.7814 0.295364 26.5232 0.00881014 27.5264C0.000382077 28.1502 0.000381563 28.7655 0.000381563 29.3809ZM14.7916 47.4711C14.5978 47.4711 14.4461 47.4711 14.3028 47.4711C12.6931 47.4711 11.0749 47.4711 9.4651 47.4711C7.88905 47.4711 7.0631 46.645 7.0631 45.0602C7.0631 40.4913 7.0631 35.9139 7.0631 31.345C7.0631 30.4009 6.55742 29.8951 5.60505 29.8951C5.01508 29.8951 4.42512 29.9035 3.83515 29.8867C3.19462 29.8698 2.68894 29.4652 2.50352 28.8498C2.29282 28.1417 2.63837 27.6444 3.11034 27.1723C8.80771 21.4823 14.4967 15.7922 20.1856 10.1021C21.0958 9.19173 21.8122 9.19173 22.7393 10.119C27.8046 15.1937 32.8698 20.2599 37.9351 25.3262C38.6431 26.0343 39.351 26.7255 40.0421 27.4421C40.4888 27.8973 40.5984 28.4452 40.3455 29.0353C40.1011 29.6001 39.6376 29.8951 39.0223 29.8951C38.4998 29.9035 37.9857 29.8951 37.4631 29.8951C36.3085 29.8951 35.8534 30.3503 35.8534 31.4883C35.8534 36.0572 35.8534 40.6346 35.8534 45.2035C35.8534 46.586 34.9769 47.4711 33.6031 47.4711C31.9175 47.4711 30.2403 47.4711 28.5547 47.4711C28.4198 47.4711 28.285 47.4542 28.1248 47.4458C28.1248 47.2435 28.1248 47.0749 28.1248 46.9147C28.1248 44.0655 28.1501 41.2247 28.108 38.3754C28.0743 36.1331 26.2791 34.169 24.0372 34.0173C22.3263 33.8992 20.5902 33.992 18.8708 34.0004C18.7444 34.0004 18.618 34.0257 18.5 34.051C16.3003 34.5315 14.8254 36.3523 14.8085 38.6452C14.7916 41.4101 14.8001 44.1666 14.8001 46.9316C14.7916 47.0917 14.7916 47.2603 14.7916 47.4711Z" fill="black"/>
</svg>
