<svg width="85" height="98" viewBox="0 0 85 98" fill="none" xmlns="http://www.w3.org/2000/svg">
<g opacity="0.3">
<path d="M35.9687 98C34.0313 97.8172 32.094 97.7441 30.1932 97.3786C25.7337 96.5744 21.3107 95.624 16.8877 94.6736C16.6684 94.6371 16.376 94.2716 16.3029 94.0522C15.8642 92.3342 16.3029 91.0549 17.765 89.9948C19.8851 88.4961 22.0052 86.9243 24.235 85.5718C27.0131 83.8904 29.8642 83.6345 32.6057 85.8277C32.8982 86.047 33.3734 86.0836 33.7755 86.0836C34.6527 86.047 35.53 85.9739 36.4804 85.9008C35.7859 84.1828 35.0914 82.4282 34.3969 80.6736C32.8616 76.6893 31.765 72.5953 31.2898 68.3917C30.6684 63.128 31.2898 58.0105 33.0444 53.0392C35.3838 46.3864 39.1488 40.5379 43.4256 34.9086C43.0966 35.859 42.7676 36.846 42.4752 37.7964C40.7572 42.987 38.9661 48.1776 37.3943 53.4047C36.8094 55.4152 36.6997 57.6084 36.4804 59.7285C36.3708 60.6423 36.7363 60.9347 37.6136 60.5692C38.8564 60.0209 40.1358 59.436 41.2689 58.705C45.2898 56.0731 49.2742 53.3682 53.295 50.6998C53.5875 50.517 53.8799 50.3342 54.1723 50.1515C54.2454 50.188 54.3185 50.2611 54.3916 50.2977C53.5144 51.5405 52.6736 52.8564 51.7232 54.0261C48.9817 57.4256 45.6188 60.094 41.5979 61.8486C40.9399 62.141 40.3185 62.4334 39.6971 62.7624C37.5405 63.9321 36.6632 65.4308 37.0287 67.8434C37.4674 70.658 38.0888 73.3995 38.6736 76.1776C39.0026 77.7128 39.3681 79.2115 39.8433 80.7102C41.4151 85.718 44.376 87.8381 49.7859 88.0209C52.1253 88.094 54.5013 88.2037 56.8042 88.6423C60.0209 89.2637 62.4334 91.2011 64.3342 93.9791C62.9086 94.3812 61.5561 94.7102 60.2037 95.1123C54.9034 96.6475 49.5666 97.7807 44.047 97.8538C43.8277 97.8538 43.6084 97.9269 43.389 98C40.8303 98 38.4178 98 35.9687 98Z" fill="black"/>
<path d="M60.3133 47.1175C58.1932 47.7024 56.0731 48.3238 53.8433 48.9452C53.6606 47.6658 54.0261 46.6789 54.5379 45.7285C56.1097 42.8407 58.5222 41.1593 61.812 40.7206C64.9556 40.282 68.0992 40.5013 71.3525 40.9034C71.2794 41.1958 71.2063 41.4152 71.1332 41.6345C69.7441 44.7781 68.3916 47.9217 65.9426 50.4073C63.5666 52.8564 60.6423 53.6971 57.2794 53.0026C57.06 52.9661 56.8407 52.8564 56.658 52.7833C56.5483 52.7467 56.4386 52.6736 56.1462 52.4909C57.6815 50.8094 59.1436 49.2011 60.6057 47.5927C60.4961 47.4099 60.3864 47.2637 60.3133 47.1175Z" fill="black"/>
<path d="M31.2898 37.5405C29.0966 37.9791 27.0131 38.3812 24.9295 38.7833C24.9295 38.9295 24.893 39.1123 24.893 39.2585C26.8668 40.0261 28.8773 40.7572 31.1071 41.6345C30.4125 42.2559 29.9739 42.8407 29.3525 43.2063C26.6841 44.8146 23.8695 45.1071 20.9452 43.8277C17.765 42.4021 15.2794 40.0992 12.6475 37.7233C15.389 36.1149 18.0574 34.6893 20.9817 33.812C23.577 33.0078 26.0261 33.3368 28.3655 34.6528C29.6084 35.2376 30.5588 36.0783 31.2898 37.5405Z" fill="black"/>
<path d="M46.5692 14.1828C46.0209 12.6475 45.4726 11.1488 44.8877 9.61358C44.7415 9.61358 44.6318 9.61358 44.4856 9.61358C44.1201 11.2585 43.7911 12.8668 43.4256 14.5849C42.0365 13.9269 41.3055 12.8668 40.7937 11.6606C40.1723 10.1253 40.0261 8.51697 40.5378 6.90862C41.3055 4.42298 42.6945 2.22976 44.1932 0C45.7284 1.71802 47.0078 3.50914 48.0313 5.48303C49.0548 7.45692 49.3472 9.46736 48.5431 11.5509C48.1775 12.5379 47.5196 13.3786 46.9713 14.2924C46.8616 14.2559 46.7154 14.2193 46.5692 14.1828Z" fill="black"/>
<path d="M49.6762 18.2402C50.9191 20.799 52.0522 23.2481 52.4178 25.9896C52.7467 28.4387 51.0653 31.5823 48.7624 32.5692C48.5796 30.9243 48.3603 29.316 48.1776 27.7076C48.0679 27.671 47.9217 27.6345 47.812 27.6345C47.1175 29.0966 46.423 30.5953 45.5822 32.3499C45.0339 31.4726 44.5222 30.8878 44.2663 30.2298C43.4256 28.2193 43.4987 26.1723 44.5588 24.235C45.8016 21.8956 47.6658 20.1045 49.6762 18.2402Z" fill="black"/>
<path d="M52.2715 34.1776C52.6005 33.1541 52.7102 32.3499 53.0757 31.6919C54.2089 29.5353 56 28.1828 58.4125 28C60.7885 27.8172 63.1645 27.9635 65.7598 27.9635C64.3342 30.9974 63.2376 33.9217 60.6789 35.9321C58.9243 37.3212 56.1097 37.6867 54.2089 36.6997C55.3055 35.4569 56.4021 34.2507 57.4987 33.0809C57.4256 32.9713 57.389 32.8616 57.3159 32.752C55.7441 33.1906 54.1723 33.6292 52.2715 34.1776Z" fill="black"/>
<path d="M28.1462 21.3838C31.1436 22.3342 33.812 23.2115 36.0052 25.0392C37.9791 26.6475 38.8564 29.8277 37.9791 32.0209C36.6632 31.0339 35.3838 30.047 34.0679 29.0966C33.9582 29.1697 33.8486 29.2428 33.7389 29.3159C34.3238 30.8146 34.8721 32.3133 35.6031 34.141C34.6162 33.9582 33.812 33.9217 33.1175 33.6658C30.6684 32.6789 29.2063 30.8146 28.7676 28.2559C28.4386 26.0627 28.3655 23.8329 28.1462 21.3838Z" fill="black"/>
<path d="M26.9765 50.9556C28.329 51.4674 29.6449 51.9791 31.0705 52.564C30.047 53.9164 28.7311 54.3551 27.2689 54.5379C25.953 54.6841 24.6736 54.4648 23.6136 53.7337C21.9321 52.6005 20.3238 51.3577 18.6423 50.1514C21.1279 47.5561 26.3185 46.3499 28.987 47.7024C29.8277 48.1044 30.4856 48.8355 31.2167 49.3838C31.1802 49.53 31.1802 49.6762 31.1436 49.7859C29.7546 50.0783 28.3655 50.3708 26.9765 50.6632C26.9765 50.7363 26.9765 50.846 26.9765 50.9556Z" fill="black"/>
<path d="M16.2298 9.32115C17.9478 10.235 19.7755 11.0392 21.3838 12.0992C23.1384 13.2689 23.7963 15.7911 22.9922 17.5822C22.0418 16.8146 21.1279 16.0836 20.2141 15.3525C20.141 15.4256 20.0313 15.4621 19.9582 15.5353C20.3603 16.6684 20.7624 17.8016 21.1645 18.9713C20.1775 19.2272 19.4099 18.8616 18.6788 18.3864C17.436 17.5822 16.4856 16.4856 16.3029 14.9504C16.047 13.1593 15.9739 11.3681 15.7911 9.57703C15.9373 9.50392 16.0836 9.43081 16.2298 9.32115Z" fill="black"/>
<path d="M59.0705 7.7128C58.6684 10.6005 58.7415 13.4517 56.3655 15.4987C55.4152 16.3029 54.3185 16.7781 52.893 16.5588C53.4047 15.4256 53.8799 14.329 54.3551 13.2689C54.282 13.1958 54.2089 13.1227 54.1358 13.0496C53.1488 13.7076 52.1253 14.3655 51.1018 15.0235C50.4073 13.3786 51.2115 11.0392 52.9295 9.8329C54.7206 8.62664 56.8042 8.18799 59.0705 7.7128Z" fill="black"/>
<path d="M66.7468 35.6763C67.5875 34.7259 68.3917 33.8486 69.1958 32.9713C69.1593 32.8982 69.0862 32.7885 69.0496 32.7154C67.9165 33.0444 66.7833 33.3368 65.577 33.6658C65.3212 32.7154 65.7598 31.9844 66.1985 31.3264C67.1488 29.9374 68.5013 29.0966 70.1828 29.0235C71.8642 28.9504 73.5092 29.0235 75.4465 29.0235C74.094 31.765 73.2898 34.47 70.4387 35.7128C69.1958 36.2611 68.0261 36.2611 66.7468 35.6763Z" fill="black"/>
<path d="M54.1723 38.6371C53.1123 40.3185 52.1619 42.1097 50.9556 43.6449C49.6762 45.2898 47.3368 45.6919 45.436 44.8512C46.2768 43.9373 47.0809 43.0235 47.8486 42.1462C47.812 42.0731 47.7389 41.9634 47.7023 41.8903C46.5326 42.2193 45.3995 42.5483 44.2298 42.8773C44.0104 41.1227 45.6188 39.0026 47.6292 38.4543C49.7128 37.906 51.7963 38.0888 53.8799 38.3446C53.9895 38.4177 54.0627 38.5274 54.1723 38.6371Z" fill="black"/>
<path d="M62.1044 16.8146C61.9582 18.8982 61.7023 20.8721 60.8616 22.7363C60.0209 24.5274 58.0104 25.6971 55.9634 25.5144C56.2193 24.9295 56.4386 24.4178 56.6945 23.8695C56.9504 23.3212 57.1697 22.7729 57.4256 22.2246C57.3525 22.1515 57.2794 22.0783 57.2428 22.0052C56.2193 22.6632 55.1958 23.3212 54.1723 23.9791C53.3681 22.5535 54.5379 19.9582 55.7807 18.9713C56.9869 18.0209 60.3133 16.8512 62.1044 16.8146Z" fill="black"/>
<path d="M69.4151 25.4413C69.8903 24.3812 70.3655 23.3212 70.8407 22.2611C70.7676 22.188 70.6945 22.1149 70.658 22.0418C69.6345 22.6997 68.611 23.3577 67.5509 24.0522C67.0026 22.1514 67.7702 19.9582 69.4882 18.8251C71.2794 17.6188 73.3264 17.1802 75.3734 16.7781C75.9582 19.7389 74.2767 23.906 71.9373 25.1123C71.2428 25.4778 70.4021 25.5509 69.6345 25.7702C69.5248 25.6606 69.4882 25.5509 69.4151 25.4413Z" fill="black"/>
<path d="M0.0365535 18.3864C1.97389 18.094 3.91123 17.6554 5.84856 17.5457C7.93212 17.436 9.8329 18.8982 10.4543 20.8721C9.8329 20.8721 9.24804 20.8721 8.66319 20.8721C8.07833 20.8721 7.49347 20.8721 6.87206 20.8721C6.83551 20.9452 6.79896 21.0548 6.72585 21.1279C7.71279 21.7859 8.69974 22.4804 9.72324 23.1384C8.48042 24.4543 5.92167 24.6005 4.13055 23.3943C2.37598 22.2246 1.16971 20.5065 0 18.752C0 18.6423 0.0365535 18.4961 0.0365535 18.3864Z" fill="black"/>
<path d="M21.8956 28.0366C20.141 29.316 17.8016 29.3891 16.1201 28.1828C14.4021 26.9765 13.1958 25.2951 11.953 23.4674C14.7311 22.7729 17.3264 21.5666 20.1044 22.9191C21.2376 23.4674 22.1514 24.3081 22.5535 25.7337C21.2742 25.7337 20.1044 25.7337 18.8982 25.7337C18.8616 25.8068 18.8616 25.8799 18.8251 25.9896C19.7755 26.611 20.799 27.3055 21.8956 28.0366Z" fill="black"/>
<path d="M16.8877 45.5822C15.6449 45.9843 14.5118 46.3499 13.4151 46.7154C13.4151 46.825 13.4151 46.9347 13.4151 47.0078C14.5849 47.3002 15.7546 47.6292 16.9243 47.9217C16.1201 49.5666 13.671 50.5535 11.6971 50.0052C9.65014 49.4569 7.93212 48.2506 6.17755 46.9347C7.89557 45.6188 9.54048 44.4125 11.5875 43.7911C13.4517 43.2428 15.5718 43.9373 16.8877 45.5822Z" fill="black"/>
<path d="M42.1828 24.5274C41.5614 23.5405 40.9034 22.5535 40.282 21.5666C40.2089 21.6032 40.0992 21.6397 40.0261 21.6397C40.0261 22.846 40.0261 24.0522 40.0261 25.2951C38.0157 24.8199 36.4439 22.5901 36.6997 20.4334C36.9556 18.4961 37.5039 16.5953 37.9426 14.6214C41.0862 16.047 43.4621 19.5196 43.2428 22.2246C43.1697 22.9922 42.8042 23.7598 42.5849 24.5274C42.4386 24.5274 42.329 24.5274 42.1828 24.5274Z" fill="black"/>
<path d="M11.4778 35.1279C10.7833 36.8094 8.04178 37.7598 6.03133 37.1749C4.45953 36.7363 2.08355 35.3473 0.694519 34.1044C2.37598 32.7885 4.094 31.5457 6.2141 30.9608C8.15144 30.4491 10.1619 31.1436 11.3681 32.752C10.1984 33.154 9.02872 33.5196 7.89556 33.8851C7.89556 33.9948 7.89556 34.0679 7.89556 34.1775C9.10183 34.5065 10.2715 34.799 11.4778 35.1279Z" fill="black"/>
<path d="M31.5091 15.5352C31.9112 16.6684 32.2768 17.765 32.7154 18.9713C31.7285 19.2637 30.9974 18.8616 30.2663 18.423C28.9504 17.5822 28.0365 16.376 27.8172 14.8407C27.5979 13.1227 27.5248 11.3681 27.3786 9.39426C30.1932 10.564 32.9713 11.1488 34.3969 13.9269C34.9817 15.0601 35.1645 16.2663 34.6527 17.6919C33.6292 16.8877 32.7154 16.1567 31.765 15.4256C31.6553 15.4256 31.5822 15.4621 31.5091 15.5352Z" fill="black"/>
<path d="M84.1828 35.2011C81.8433 38.1253 79.2846 39.3316 77.1279 37.4308C77.859 37.0287 78.5535 36.6632 79.2846 36.2611C79.2846 36.188 79.2846 36.1149 79.248 36.0418C78.4439 35.9687 77.6397 35.8956 76.799 35.8225C77.7128 33.1906 80.9661 33.2272 84.1828 35.2011Z" fill="black"/>
<path d="M75.1906 45.3629C74.4595 45.1802 73.765 44.9974 72.9974 44.7781C74.3864 42.5849 77.1645 43.0235 79.8694 45.436C77.3472 47.7024 74.7519 48.4334 73.107 46.3133C73.8381 46.0574 74.5326 45.8381 75.2271 45.5823C75.1906 45.5091 75.1906 45.436 75.1906 45.3629Z" fill="black"/>
</g>
</svg>
