<svg width="71" height="60" viewBox="0 0 71 60" fill="none" xmlns="http://www.w3.org/2000/svg">
<path d="M4.25934 60L0 54.2739C4.17582 50.9544 7.68352 47.3859 10.5231 43.5685C13.5297 39.5851 15.033 35.6017 15.033 31.6183C15.033 29.2946 14.6154 27.8008 13.7802 27.1369C12.9451 26.3071 11.8593 25.3942 10.5231 24.3984C8.68572 23.4025 7.01539 21.9917 5.51209 20.166C4.00879 18.3403 3.25714 15.8506 3.25714 12.6971C3.25714 9.21163 4.42637 6.22407 6.76484 3.73445C9.27033 1.24482 12.3604 0 16.0352 0C20.211 0 23.8857 1.74274 27.0593 5.22822C30.233 8.7137 31.8198 13.9419 31.8198 20.9129C31.8198 26.3901 30.6506 31.6183 28.3121 36.5975C25.9736 41.4108 22.7165 45.8091 18.5407 49.7925C14.3648 53.7759 9.6044 57.1784 4.25934 60ZM42.5934 60L38.3341 54.2739C42.5099 50.9544 46.0176 47.3859 48.8572 43.5685C51.8637 39.5851 53.367 35.6017 53.367 31.6183C53.367 29.2946 52.9495 27.8008 52.1143 27.1369C51.2791 26.3071 50.1934 25.3942 48.8572 24.3984C47.0198 23.4025 45.3495 21.9917 43.8462 20.166C42.3429 18.3403 41.5912 15.8506 41.5912 12.6971C41.5912 9.21163 42.7604 6.22407 45.0989 3.73445C47.6044 1.24482 50.6945 0 54.3692 0C58.5451 0 62.2198 1.74274 65.3934 5.22822C68.567 8.7137 70.1538 13.9419 70.1538 20.9129C70.1538 26.3901 68.9846 31.6183 66.6462 36.5975C64.3077 41.4108 61.0506 45.8091 56.8747 49.7925C52.6989 53.7759 47.9385 57.1784 42.5934 60Z" fill="#FFED00"/>
</svg>
