<svg width="39" height="47" viewBox="0 0 39 47" fill="none" xmlns="http://www.w3.org/2000/svg">
<ellipse cx="20" cy="22.189" rx="19" ry="18.9421" fill="#FFED00"/>
<path d="M13.8092 0.256104C14.9129 1.65846 16.0245 3.05541 17.1175 4.46587C18.9627 6.84502 20.7986 9.23361 22.6371 11.6182C22.7087 11.7114 22.7843 11.8005 22.8467 11.9005C23.2075 12.4828 22.9037 13.0962 22.2259 13.107C21.101 13.1245 19.9761 13.1124 18.8513 13.1124C18.6722 13.1124 18.4944 13.1124 18.2411 13.1124V13.7433C18.2411 16.3886 18.2411 13.4072 18.2397 16.0525C18.2397 16.2538 18.2397 16.4605 18.1933 16.6537C18.1031 17.0307 17.8418 17.2171 17.4637 17.2036C17.087 17.1901 16.8443 16.9847 16.7766 16.601C16.7474 16.4362 16.7527 16.266 16.7527 16.0971C16.7527 13.0978 16.7514 15.7266 16.7527 12.726C16.7527 11.8087 16.9623 11.5965 17.8617 11.5952C18.7717 11.5952 19.6803 11.5952 20.7256 11.5952C18.2968 8.44462 15.9277 5.37376 13.5134 2.2421C11.1138 5.35214 8.742 8.42571 6.29726 11.5952C7.32927 11.5952 8.24589 11.5952 9.16383 11.5952C10.0592 11.5952 10.2701 11.81 10.2701 12.7287C10.2701 15.728 10.2701 13.0992 10.2701 16.0998C10.2701 16.2673 10.2741 16.4389 10.2449 16.6037C10.1759 16.9861 9.9332 17.1901 9.55514 17.2022C9.17709 17.2144 8.9171 17.0266 8.82822 16.6497C8.78312 16.4565 8.78312 16.2484 8.78312 16.0485C8.78047 13.4194 8.78179 16.4183 8.78179 13.7906C8.78179 13.5906 8.78179 13.3893 8.78179 13.1124C8.56823 13.1124 8.39313 13.1124 8.21803 13.1124C7.10907 13.1124 6.00012 13.1381 4.89249 13.0935C4.62321 13.0827 4.28628 12.907 4.11516 12.6949C3.88302 12.4072 4.03822 12.0626 4.25975 11.7749C7.12367 8.06769 9.9836 4.35779 12.8475 0.650601C12.9576 0.510095 13.0903 0.387152 13.2136 0.256104C13.4126 0.256104 13.6103 0.256104 13.8092 0.256104Z" fill="black"/>
<path d="M13.4895 46.1153C9.34974 46.1153 5.20861 46.1153 1.06881 46.1153C0.232349 46.1153 0 45.8888 0 45.0652C0 36.7905 0 28.5144 0 20.2396C0 19.4465 0.240316 19.2002 1.03694 19.2002C9.35107 19.1975 17.6652 19.1975 25.9793 19.2002C26.7494 19.2002 26.999 19.4491 26.999 20.2065C27.0003 28.5144 27.0003 36.8236 26.999 45.1314C26.999 45.8624 26.7414 46.114 26.0112 46.1153C21.8382 46.1166 17.6639 46.1153 13.4909 46.1153H13.4895ZM21.4943 24.6624H20.8809C17.5032 24.6624 14.1242 24.6624 10.7465 24.6624C10.5805 24.6624 10.4132 24.6703 10.2499 24.6491C9.82904 24.5935 9.58209 24.3446 9.58209 23.9235C9.58209 23.505 9.81444 23.2442 10.2433 23.1965C10.4398 23.1753 10.6403 23.178 10.8381 23.178C15.5077 23.178 20.1786 23.178 24.8481 23.178H25.4788V20.723H1.51492V23.178C1.73399 23.178 1.92784 23.178 2.12301 23.178C3.72954 23.178 5.33607 23.174 6.9426 23.1819C7.54937 23.1846 7.85607 23.4481 7.85607 23.9222C7.85607 24.3975 7.54538 24.6544 6.94393 24.6637C6.47126 24.6716 5.99727 24.665 5.52062 24.665V27.1214H21.497V24.665L21.4943 24.6624ZM25.4828 42.1467C25.2809 42.1467 25.1044 42.1467 24.9278 42.1467C23.2881 42.1467 21.6483 42.1507 20.0099 42.1441C19.4642 42.1414 19.1456 41.8567 19.1416 41.4039C19.139 40.947 19.4536 40.669 19.9993 40.661C20.4906 40.6544 20.9831 40.6597 21.4877 40.6597V38.2073H5.51133V40.6597C5.74766 40.6597 5.94416 40.6597 6.14199 40.6597C9.60333 40.6597 13.0633 40.6597 16.5247 40.661C17.0996 40.661 17.4368 40.9537 17.4236 41.4184C17.4116 41.8581 17.077 42.1322 16.534 42.1454C16.4012 42.1494 16.2684 42.1454 16.137 42.1454C11.4674 42.1454 6.79788 42.1454 2.12699 42.1454H1.52156V44.5925H25.4828V42.1454V42.1467ZM21.4943 36.666V33.4522H5.50469V36.666H21.4943ZM5.50071 31.8884H21.4983V28.6799H5.50071V31.8884ZM3.94197 40.6464V24.6981H1.53085V40.6464H3.94197ZM25.4801 40.6345V24.7021H23.0438V40.6345H25.4801Z" fill="black"/>
</svg>
