<svg width="46" height="47" viewBox="0 0 46 47" fill="none" xmlns="http://www.w3.org/2000/svg">
<ellipse cx="27" cy="20.625" rx="19" ry="18.9421" fill="#FFED00"/>
<path d="M19.1587 46.5457C18.2574 46.1947 17.3405 45.8796 16.4597 45.4867C8.46236 41.9141 3.28905 35.9 0.910886 27.503C0.264372 25.2207 0 22.8785 0 20.5064C0 16.8452 0 13.1852 0 9.52405C0 8.85195 0.0793123 8.73334 0.687372 8.47696C6.7223 5.93114 12.7584 3.38891 18.7886 0.831103C19.2392 0.640616 19.6201 0.635824 20.0696 0.827509C26.0576 3.36854 32.0517 5.894 38.0446 8.42305C38.8233 8.75131 38.8581 8.80642 38.8581 9.65703C38.8581 13.2284 38.893 16.7997 38.8509 20.3699C38.7428 29.6367 34.9574 37.0645 27.5093 42.609C25.2741 44.2731 22.7878 45.4819 20.1393 46.3552C19.9879 46.4056 19.8449 46.481 19.6982 46.5457H19.1587ZM1.43843 15.9263C1.43843 17.4502 1.37594 18.9789 1.45526 20.4992C1.54298 22.1957 1.59105 23.922 1.94916 25.5717C3.96561 34.89 9.50544 41.2492 18.3944 44.7367C19.119 45.0206 19.7631 45.0015 20.4974 44.7283C30.7743 40.8982 37.3584 31.5344 37.4173 20.6011C37.4353 17.104 37.4173 13.607 37.4281 10.1087C37.4281 9.80798 37.3392 9.6726 37.0592 9.5552C31.2946 7.13277 25.5361 4.69716 19.7703 2.27833C19.5793 2.19806 19.2945 2.19686 19.1022 2.27833C13.3232 4.70315 7.55027 7.14475 1.77251 9.57197C1.50212 9.68578 1.43122 9.82356 1.43363 10.0979C1.44564 12.0411 1.43963 13.9843 1.43963 15.9263H1.43843Z" fill="black"/>
<path d="M34.6174 17.7797C34.5356 19.838 34.6029 21.9154 34.3434 23.952C33.4553 30.8994 29.9896 36.2858 24.0688 40.0464C22.7542 40.8815 21.2713 41.4589 19.8497 42.119C19.6226 42.2245 19.2753 42.2245 19.0373 42.1322C11.1578 39.0724 6.34018 33.4177 4.68304 25.1441C4.42707 23.8646 4.35497 22.5348 4.33214 21.2253C4.28167 18.2829 4.32613 15.3382 4.30811 12.3946C4.3045 11.8543 4.50398 11.5536 4.99788 11.3331C9.61601 9.2761 14.2269 7.20589 18.833 5.12491C19.2524 4.93562 19.6093 4.93562 20.0263 5.12371C24.606 7.19152 29.1893 9.25214 33.781 11.2924C34.3422 11.5416 34.5633 11.8734 34.5513 12.488C34.5176 14.2503 34.5392 16.0138 34.5392 17.7774L34.6162 17.7797H34.6174ZM33.0239 17.6899H33.1008C33.1008 16.1205 33.09 14.551 33.1092 12.9828C33.1128 12.6617 33.0023 12.518 32.7175 12.391C28.4142 10.4729 24.1169 8.53931 19.8112 6.62485C19.6105 6.53619 19.3065 6.51223 19.113 6.59849C14.7665 8.52972 10.4296 10.4837 6.08542 12.4221C5.82345 12.5395 5.74774 12.6797 5.74894 12.9565C5.76096 15.3322 5.73693 17.7091 5.76336 20.0848C5.77778 21.3523 5.75495 22.6378 5.94362 23.8849C7.16454 31.9202 11.5724 37.5006 19.0986 40.6227C19.2801 40.6982 19.5444 40.6922 19.7307 40.6215C21.4888 39.9542 23.1447 39.088 24.6481 37.9571C29.6519 34.1964 32.4747 29.2006 33.0011 22.9756C33.1489 21.2253 33.0239 19.4522 33.0239 17.6899Z" fill="black"/>
<path d="M17.9558 24.0527C19.512 22.4976 20.9828 21.0264 22.4537 19.5577C23.5557 18.4579 24.6504 17.3509 25.7644 16.2643C26.4758 15.5718 27.4324 15.422 28.2976 15.8234C29.1159 16.202 29.6351 17.055 29.587 17.9583C29.5558 18.5333 29.3335 19.0317 28.9261 19.439C25.7908 22.5683 22.658 25.7012 19.5108 28.8185C18.6431 29.6775 17.3501 29.6787 16.4777 28.8233C14.7568 27.1364 13.0492 25.4352 11.3584 23.7184C10.4668 22.8127 10.492 21.4446 11.3632 20.5736C12.2453 19.6906 13.6248 19.6834 14.5538 20.5856C15.5848 21.5871 16.593 22.6102 17.6085 23.6274C17.7238 23.7424 17.8164 23.879 17.957 24.0527H17.9558ZM28.276 17.8469C28.0645 17.5797 27.9311 17.2718 27.7015 17.1628C27.4876 17.0597 27.1644 17.1328 26.906 17.1963C26.7666 17.2299 26.6573 17.4012 26.5407 17.5174C23.9234 20.1255 21.3073 22.7348 18.6912 25.3418C18.1456 25.8857 17.8368 25.8845 17.2924 25.3418C16.0523 24.1078 14.8169 22.8678 13.5708 21.6386C13.185 21.2589 12.7079 21.2577 12.3763 21.6003C12.0554 21.9322 12.0602 22.3898 12.4267 22.7576C14.0947 24.4313 15.7687 26.1001 17.4474 27.763C17.7863 28.0984 18.1721 28.0877 18.5266 27.775C18.5939 27.7163 18.6552 27.6492 18.7176 27.5857C21.7147 24.5966 24.7141 21.6099 27.7063 18.6148C27.9082 18.4135 28.05 18.1536 28.2748 17.8457L28.276 17.8469Z" fill="black"/>
</svg>
