<svg width="46" height="47" viewBox="0 0 46 47" fill="none" xmlns="http://www.w3.org/2000/svg">
<ellipse cx="27" cy="19.6282" rx="19" ry="18.9421" fill="#FFED00"/>
<path d="M36.7463 46.5458H35.4884C35.4512 46.5231 35.4164 46.4872 35.3768 46.48C33.6401 46.1426 32.4566 45.1473 31.7809 43.5203C31.7305 43.3983 31.4953 43.2846 31.344 43.2822C30.1342 43.2631 28.9244 43.281 27.7145 43.2643C27.4253 43.2607 27.3113 43.3588 27.214 43.628C26.6919 45.0755 25.6693 45.9979 24.1847 46.413C24.0286 46.4561 23.8738 46.5015 23.7178 46.5458H3.77476C3.72075 46.5219 3.66914 46.4884 3.61273 46.4764C1.3803 46.0146 0.00244121 44.3422 0.00244121 42.0608C4.07543e-05 29.7602 4.07543e-05 17.4608 0.00244121 5.16148C0.00364144 2.56666 1.8772 0.692023 4.4709 0.68963C10.6401 0.683649 16.8093 0.684845 22.9784 0.694416C23.4081 0.694416 23.8498 0.741072 24.2639 0.85233C26.2539 1.38589 27.4709 3.07749 27.4721 5.27991C27.4745 10.9672 27.4721 16.6545 27.4721 22.3418V22.9687H28.0002C29.108 22.9687 30.217 22.995 31.3236 22.9603C32.1302 22.934 32.6331 23.263 32.9848 23.9832C34.0061 26.0732 35.0731 28.1416 36.1029 30.228C36.2518 30.5295 36.4198 30.6288 36.7499 30.6204C37.6176 30.5965 38.4866 30.6096 39.3556 30.6132C42.3873 30.6252 44.9882 32.617 45.7768 35.5277C45.8572 35.8256 45.9256 36.1282 46 36.4285V42.2498C45.682 43.0286 45.0963 43.3157 44.2657 43.2834C43.2059 43.2428 42.1425 43.2846 41.0815 43.2667C40.7298 43.2607 40.5426 43.3397 40.3926 43.7045C39.8741 44.9678 38.9403 45.8316 37.6428 46.2886C37.35 46.3915 37.0451 46.4621 36.7463 46.5482V46.5458ZM25.1929 33.6542C25.1929 33.482 25.1929 33.3611 25.1929 33.2391C25.1929 23.7308 25.1929 14.2224 25.1917 4.71286C25.1917 3.49979 24.4955 2.81549 23.2797 2.81549C16.9257 2.8143 10.5729 2.81549 4.21885 2.81549C2.9358 2.81549 2.28048 3.47706 2.28048 4.77028C2.28048 14.232 2.28048 23.6949 2.28048 33.1566V33.653H25.1929V33.6542ZM25.1929 35.6772H2.28168C2.28168 37.8282 2.28168 39.9469 2.28168 42.0668C2.28168 43.3456 2.9466 44.0084 4.23325 44.0084C10.5705 44.0084 16.9065 44.0084 23.2437 44.0084C24.5135 44.0084 25.1905 43.3301 25.1929 42.0536C25.1953 40.0869 25.1929 38.1213 25.1929 36.1546V35.6772ZM43.3055 40.5821C43.3055 39.4887 43.3067 38.4611 43.3055 37.4334C43.3019 34.9714 41.6288 33.2989 39.1647 33.2977C35.4368 33.2953 31.7089 33.2977 27.981 33.2977H27.5045V40.5833C28.8512 40.5833 30.1666 40.5917 31.4809 40.569C31.5973 40.5666 31.7581 40.3824 31.8157 40.2484C32.3186 39.0676 33.136 38.1907 34.3206 37.6882C36.7187 36.669 39.4228 37.7923 40.4334 40.1993C40.497 40.3501 40.6578 40.563 40.7802 40.5678C41.6012 40.6001 42.4234 40.5845 43.3043 40.5845L43.3055 40.5821ZM27.4925 30.5821H33.2164C33.2164 30.5259 33.226 30.4924 33.2152 30.4696C32.4482 28.936 31.6861 27.4011 30.9011 25.877C30.8411 25.7609 30.6239 25.6688 30.4775 25.6652C29.6253 25.6449 28.7719 25.6544 27.9186 25.6568C27.777 25.6568 27.6341 25.67 27.4925 25.6772V30.5833V30.5821ZM36.139 40.0043C35.0575 40.0043 34.2078 40.8585 34.2126 41.9388C34.2174 43.0107 35.0888 43.8696 36.1606 43.8577C37.2012 43.8469 38.0701 42.9784 38.0785 41.9388C38.0869 40.88 37.2084 40.0019 36.139 40.0031V40.0043Z" fill="black"/>
<path d="M6.01675 15.5288C6.11037 11.5726 9.17576 8.27312 13.1221 7.9573C17.0553 7.64147 20.6247 10.4217 21.2765 14.3038C21.5849 16.1413 21.1456 17.8616 20.4423 19.5317C19.2025 22.4735 17.3901 25.0611 15.417 27.547C15.1853 27.8389 14.9561 28.138 14.6992 28.406C14.1807 28.9467 13.2829 29.003 12.8113 28.4383C10.1299 25.2274 7.65987 21.8813 6.43203 17.8066C6.21119 17.0721 6.15118 16.2897 6.01675 15.5288ZM13.7222 26.6893C15.1877 24.7907 16.502 22.8934 17.6026 20.8536C18.3119 19.5389 18.9288 18.1882 19.2649 16.7239C19.7882 14.4425 18.894 12.1325 16.9532 10.7722C15.0833 9.46107 12.5424 9.43595 10.5992 10.7088C8.3608 12.1755 7.51224 14.8158 8.43402 17.608C9.54663 20.9769 11.5822 23.8205 13.721 26.6893H13.7222Z" fill="black"/>
<path d="M13.7486 38.8452C14.3511 38.8452 14.9537 38.8416 15.5562 38.8452C16.1647 38.85 16.6112 39.2627 16.6172 39.819C16.6232 40.3729 16.1743 40.8071 15.573 40.8095C14.3463 40.8143 13.1197 40.8143 11.8931 40.8095C11.2882 40.8071 10.8477 40.3801 10.8513 39.819C10.8561 39.2615 11.299 38.8488 11.9087 38.844C12.522 38.8392 13.1353 38.844 13.7486 38.844V38.8452Z" fill="black"/>
<path d="M13.7702 16.9871C13.0465 16.9979 12.4224 16.3985 12.4032 15.676C12.3852 14.9366 13.0081 14.3026 13.7522 14.3038C14.482 14.305 15.0893 14.9091 15.0929 15.6365C15.0965 16.3662 14.4988 16.9764 13.769 16.9871H13.7702Z" fill="black"/>
</svg>
