<svg width="46" height="47" viewBox="0 0 46 47" fill="none" xmlns="http://www.w3.org/2000/svg">
<ellipse cx="27" cy="19.1921" rx="19" ry="18.9421" fill="#FFED00"/>
<path d="M0 12.951C0.272377 12.3843 0.729078 12.2134 1.34662 12.2134C15.7791 12.2239 30.2127 12.2216 44.6452 12.2216C45.6689 12.2216 45.9988 12.5459 46 13.5528C46 15.3441 46.0023 17.1365 46 18.9278C45.9977 20.9462 44.7508 22.1802 42.715 22.1837C42.4943 22.1837 42.2724 22.1837 41.9965 22.1837C41.9965 22.4003 41.9965 22.576 41.9965 22.7516C41.9895 24.4234 42.0247 26.0977 41.9684 27.7672C41.7887 33.0942 39.6907 37.5678 35.7624 41.155C31.8634 44.7154 27.2189 46.3603 21.9498 46.0781C16.8639 45.8065 12.5599 43.7471 9.0941 40.0287C5.64947 36.3326 3.98116 31.9234 4.00347 26.8786C4.00934 25.49 4.00347 24.1015 4.00347 22.7129C4.00347 22.5514 4.00347 22.391 4.00347 22.1837C3.70292 22.1837 3.45285 22.1849 3.20278 22.1837C1.57791 22.1744 0.529491 21.3829 0.0774865 19.8258C0.06105 19.7708 0.0258288 19.7228 0 19.6701V12.951ZM6.01108 22.206C6.01108 23.9224 5.9512 25.5954 6.02986 27.2614C6.09091 28.5516 6.22123 29.8559 6.50065 31.1133C7.20155 34.2638 8.77124 36.9707 11.0759 39.2268C13.6799 41.7744 16.7946 43.3491 20.4142 43.911C23.0652 44.322 25.6692 44.1171 28.2121 43.2987C31.1954 42.3375 33.7301 40.6668 35.7894 38.3042C38.1868 35.5529 39.6203 32.3613 39.8903 28.7249C40.0453 26.6304 39.9654 24.5194 39.9878 22.4156C39.9878 22.3477 39.9584 22.2798 39.942 22.2072H6.01108V22.206ZM1.99117 14.2236C1.99117 15.8206 1.98765 17.3707 1.99234 18.9208C1.99469 19.8153 2.37978 20.1958 3.28144 20.1969C4.44843 20.1969 5.6166 20.1852 6.78359 20.1864C18.7294 20.1899 30.6765 20.1946 42.6223 20.1981C43.6496 20.1981 44.0053 19.8469 44.0065 18.8353C44.0077 17.4913 44.0065 16.1484 44.0065 14.8043V14.2236H1.99117Z" fill="black"/>
<path d="M23.0217 42.135C18.1201 42.1736 14.0579 38.1566 14.0086 33.223C13.9593 28.2788 17.9804 24.2244 22.9783 24.1787C27.874 24.1343 31.9421 28.1559 31.9914 33.0907C32.0407 38.0337 28.0126 42.0963 23.0217 42.135ZM22.9994 40.1282C26.8561 40.1282 30.0014 36.9987 30.0014 33.1586C30.0014 29.3196 26.8561 26.1866 23.0006 26.1866C19.145 26.1866 15.9998 29.3173 15.9986 33.1574C15.9974 36.9964 19.1415 40.1282 22.9994 40.1294V40.1282Z" fill="black"/>
<path d="M35.0016 26.1925C35.5475 26.1925 35.9984 26.6468 35.989 27.1865C35.9808 27.7204 35.5018 28.1828 34.9758 28.1664C34.4533 28.1489 34.0213 27.7075 34.0166 27.183C34.0107 26.6339 34.451 26.1913 35.0016 26.1925Z" fill="black"/>
<path d="M22.9736 38.1344C20.224 38.1227 17.9663 35.8525 17.9968 33.1293C18.0274 30.3733 20.2686 28.1675 23.0264 28.1769C25.7737 28.1874 28.0325 30.4588 28.0032 33.182C27.9738 35.9368 25.7302 38.1461 22.9736 38.1344ZM25.9885 33.1691C25.9967 31.5277 24.6442 30.1661 23.0029 30.1637C21.364 30.1614 20.008 31.523 20.0127 33.1644C20.0173 34.7906 21.3417 36.123 22.9759 36.1464C24.6078 36.1698 25.9803 34.8129 25.9885 33.1691Z" fill="black"/>
</svg>
