<svg width="46" height="47" viewBox="0 0 46 47" fill="none" xmlns="http://www.w3.org/2000/svg">
<ellipse cx="27" cy="19.1982" rx="19" ry="18.9421" fill="#FFED00"/>
<path d="M9.76763 46.2355H2.10488C0.43363 45.6047 0 44.9697 0 43.1513C0 31.4538 0 19.7554 0 8.05784C0 6.26721 1.01574 5.25962 2.82112 5.25962C4.61723 5.25962 6.41333 5.25962 8.20943 5.25878C8.35623 5.25878 8.50302 5.24616 8.66416 5.23943C8.66416 4.85002 8.65909 4.51443 8.665 4.17885C8.67597 3.56739 8.9898 3.25031 9.60734 3.24947C13.7471 3.24611 17.8868 3.24611 22.0257 3.24947C22.6871 3.24947 22.9874 3.56403 22.9942 4.23772C22.9976 4.56826 22.9942 4.8988 22.9942 5.25962C23.2034 5.25962 23.3553 5.25962 23.508 5.25962C25.3041 5.25962 27.1002 5.25878 28.8963 5.25962C30.6325 5.2613 31.6575 6.29076 31.6583 8.03345C31.6583 9.5726 31.6583 11.1118 31.6583 12.6509V13.1311C31.8406 13.0807 31.9814 13.0597 32.1063 13.0033C32.5965 12.7838 33.0672 12.8343 33.5717 12.9941C36.4544 13.9083 39.3439 14.8023 42.2333 15.6947C42.6104 15.8116 42.9226 15.9866 43.109 16.3449V25.4124C43.0829 25.5318 43.0483 25.6504 43.0323 25.7715C42.3531 30.6943 39.7075 34.1199 35.1189 36.0317C34.0543 36.4749 32.9449 36.9005 31.7503 36.4388C31.7334 36.432 31.7047 36.4556 31.6583 36.4732C31.6583 37.5834 31.644 38.7012 31.6651 39.8182C31.6735 40.2572 31.5352 40.5902 31.223 40.8972C29.6184 42.4801 28.0282 44.079 26.4278 45.6661C26.2219 45.8705 25.9866 46.0454 25.7647 46.2338H9.76763V46.2355ZM17.2035 44.5584C18.9439 44.5542 20.6835 44.5567 22.4239 44.5567C23.1528 44.5567 23.8808 44.5567 24.6713 44.5567C24.6713 44.3481 24.6713 44.1589 24.6713 43.9697C24.6713 43.2564 24.6663 42.5424 24.673 41.8291C24.6874 40.369 25.7689 39.2841 27.2276 39.2689C28.1243 39.2597 29.0203 39.2673 29.9761 39.2673C29.9761 38.6785 29.9761 38.1108 29.9761 37.5431C29.9761 37.0536 29.9922 36.5624 29.9652 36.0746C29.9576 35.9434 29.8496 35.7575 29.7357 35.7011C25.7023 33.6851 23.3536 30.4512 22.6601 26.0129C22.6517 25.9599 22.6382 25.9086 22.6196 25.8186H22.1581C20.1511 25.8186 18.145 25.8186 16.1379 25.8186C16.0114 25.8186 15.884 25.8253 15.7591 25.8119C15.269 25.7581 14.9543 25.4107 14.967 24.9456C14.9796 24.483 15.312 24.1483 15.8157 24.1449C17.5139 24.1348 19.2113 24.1399 20.9096 24.139C21.441 24.139 21.9725 24.139 22.5352 24.139V16.6661C22.3775 16.6661 22.2273 16.6661 22.078 16.6661C20.0431 16.6661 18.0083 16.6678 15.9743 16.6645C15.3609 16.6636 15.0007 16.3751 14.9703 15.8806C14.9417 15.4088 15.2538 15.0395 15.7288 14.9958C15.8823 14.9815 16.0375 14.9865 16.1911 14.9865C19.2501 14.9865 22.3091 14.9882 25.3682 14.9823C25.5892 14.9823 25.8195 14.9621 26.0296 14.8991C27.2351 14.5332 28.4331 14.1421 29.6404 13.7813C29.9044 13.7022 29.9837 13.5853 29.982 13.3153C29.9702 11.5247 29.9778 9.73324 29.9744 7.94262C29.9736 7.24706 29.6682 6.94091 28.9756 6.93923C27.1094 6.93586 25.2433 6.93754 23.3763 6.93923C23.2667 6.93923 23.1562 6.95016 22.9942 6.95857C22.9942 7.26051 23.0001 7.54984 22.9933 7.83916C22.9672 8.84508 22.2071 9.62054 21.1922 9.62306C17.6143 9.63316 14.0356 9.63316 10.4577 9.62306C9.44705 9.6197 8.69031 8.83835 8.66669 7.82991C8.65994 7.55236 8.66584 7.27481 8.66584 6.96782C8.51568 6.95689 8.39419 6.94007 8.27355 6.94007C6.42092 6.93838 4.56914 6.93754 2.71651 6.94007C1.98761 6.94091 1.68559 7.23612 1.68559 7.95355C1.68474 19.8193 1.68474 31.6851 1.68559 43.5508C1.68559 44.2581 1.99689 44.5559 2.72664 44.5567C4.95806 44.5584 7.18863 44.5542 9.42006 44.5592H17.2035V44.5584ZM24.263 17.2112C24.2579 17.3205 24.2512 17.4038 24.2512 17.4862C24.2512 19.8773 24.2326 22.2693 24.2571 24.6605C24.3069 29.4705 27.7666 33.7692 32.4665 34.8794C32.6876 34.9316 32.9415 34.9375 33.1625 34.8878C37.8152 33.8449 41.3509 29.5168 41.4184 24.7513C41.4521 22.3467 41.4218 19.9404 41.4344 17.535C41.4361 17.2759 41.3441 17.1758 41.1096 17.1035C38.4614 16.2877 35.8166 15.4592 33.1668 14.6493C32.9693 14.5887 32.7213 14.5929 32.5222 14.6518C31.234 15.0336 29.9525 15.439 28.6693 15.8385C27.2022 16.2952 25.736 16.7528 24.2647 17.212L24.263 17.2112ZM10.3481 4.93833C10.3481 5.81388 10.3658 6.65074 10.3396 7.48592C10.3287 7.85094 10.4274 7.96028 10.8053 7.95776C14.0002 7.94262 17.1959 7.94934 20.3916 7.94934C21.0046 7.94934 21.3111 7.64123 21.3111 7.02501V4.93833H10.3481ZM26.3561 43.1622C27.0892 42.4238 27.8442 41.6643 28.5563 40.9477C28.164 40.9477 27.6747 40.9342 27.1862 40.9519C26.7045 40.9696 26.3763 41.2993 26.3603 41.7812C26.3434 42.2673 26.3569 42.7543 26.3569 43.1631L26.3561 43.1622Z" fill="black"/>
<path d="M19.6002 33.2949C20.8066 33.2949 22.0122 33.2924 23.2186 33.2958C23.8319 33.2974 24.2082 33.6246 24.2031 34.1368C24.198 34.6356 23.8285 34.9703 23.2464 34.972C20.7923 34.977 18.3381 34.9762 15.8832 34.972C15.4124 34.9712 15.0783 34.7306 14.9923 34.3521C14.9071 33.9762 14.9999 33.6389 15.3407 33.4413C15.5111 33.342 15.7381 33.3042 15.9397 33.3025C17.1596 33.2899 18.3795 33.2966 19.6002 33.2966V33.2949Z" fill="black"/>
<path d="M7.98419 36.6549C8.88435 35.7566 9.73389 34.908 10.5843 34.0602C10.7032 33.9416 10.8171 33.8171 10.9462 33.7095C11.3284 33.3907 11.7957 33.4067 12.118 33.7423C12.4302 34.0661 12.4453 34.5161 12.1315 34.8786C11.9214 35.1216 11.6827 35.3403 11.4558 35.5674C10.5649 36.4581 9.67484 37.3496 8.78058 38.2369C8.20691 38.8063 7.80787 38.8072 7.24263 38.2479C6.81491 37.824 6.38549 37.4026 5.96536 36.9711C5.5697 36.5641 5.54607 36.0998 5.8869 35.7423C6.23195 35.3798 6.74235 35.3916 7.15236 35.7886C7.42317 36.051 7.67626 36.3319 7.98419 36.6541V36.6549Z" fill="black"/>
<path d="M7.98333 18.3483C8.91554 17.4181 9.79546 16.5391 10.6754 15.6611C11.2423 15.0959 11.7215 15.0219 12.1188 15.4365C12.5086 15.8427 12.431 16.2868 11.87 16.847C10.8399 17.8756 9.8098 18.9042 8.77719 19.9303C8.20605 20.4972 7.80532 20.4972 7.24008 19.9362C6.81236 19.5123 6.38295 19.0909 5.96281 18.6595C5.56884 18.2549 5.5469 17.7873 5.88942 17.4307C6.23278 17.0724 6.74824 17.0875 7.15572 17.4828C7.42653 17.7461 7.67877 18.027 7.98417 18.3474L7.98333 18.3483Z" fill="black"/>
<path d="M7.98418 27.4999C8.91556 26.5705 9.79463 25.6916 10.6745 24.8144C11.2415 24.2492 11.7198 24.1743 12.118 24.589C12.5086 24.9952 12.431 25.4401 11.87 25.9995C10.8399 27.0281 9.80981 28.0567 8.7772 29.0828C8.20521 29.6505 7.80533 29.6505 7.24009 29.0904C6.81237 28.6665 6.38296 28.2451 5.96283 27.8136C5.56885 27.4082 5.54607 26.9414 5.88774 26.5848C6.2311 26.2265 6.74656 26.2408 7.15404 26.6361C7.42485 26.8994 7.6771 27.1803 7.98334 27.5008L7.98418 27.4999Z" fill="black"/>
<path d="M18.6765 36.9787C19.5867 36.9787 20.4962 36.9753 21.4065 36.9795C22.0358 36.9829 22.3977 37.2899 22.4003 37.8063C22.4028 38.316 22.0265 38.6524 21.4157 38.6549C19.5817 38.6608 17.7485 38.66 15.9144 38.6549C15.4327 38.6532 15.0952 38.432 14.9999 38.0645C14.9046 37.6953 14.9746 37.3488 15.3146 37.1444C15.4934 37.0367 15.7338 36.9896 15.9473 36.9863C16.8567 36.9694 17.767 36.9795 18.6765 36.9787Z" fill="black"/>
<path d="M17.7527 29.4991C17.1503 29.4991 16.5479 29.505 15.9464 29.4974C15.3255 29.489 14.9628 29.1686 14.9653 28.6488C14.9678 28.1299 15.3255 27.8246 15.9591 27.822C17.1773 27.817 18.3955 27.8162 19.6137 27.822C20.2271 27.8254 20.6101 28.1585 20.605 28.6614C20.5999 29.1652 20.2178 29.4899 19.6011 29.4974C18.9852 29.505 18.3685 29.4991 17.7527 29.4991Z" fill="black"/>
<path d="M17.713 18.6696C18.3162 18.6696 18.9186 18.6603 19.5218 18.6721C20.0575 18.683 20.4025 19.0035 20.4186 19.4745C20.4354 19.9589 20.0836 20.3323 19.5378 20.3399C18.3044 20.3567 17.0702 20.3567 15.8368 20.3399C15.2867 20.3323 14.951 19.9673 14.967 19.4694C14.983 18.9942 15.3196 18.683 15.8621 18.6729C16.4788 18.6612 17.0955 18.6704 17.713 18.6704V18.6696Z" fill="black"/>
<path d="M39.8163 22.0792C39.737 23.4308 39.8104 24.8136 39.5489 26.129C38.8436 29.6791 36.6755 32.0131 33.2174 33.13C32.9829 33.2057 32.6842 33.1964 32.4438 33.1283C28.6896 32.0627 25.979 28.5184 25.9385 24.6218C25.9199 22.8169 25.9326 21.0119 25.9343 19.207C25.9343 18.646 26.1224 18.3878 26.6581 18.2204C28.5959 17.6157 30.5338 17.0093 32.4784 16.4239C32.7036 16.3558 32.9846 16.3592 33.2098 16.4273C35.1409 17.0085 37.0661 17.6098 38.9904 18.2112C39.5717 18.3929 39.7404 18.6401 39.7412 19.2625C39.7429 20.2003 39.7412 21.1373 39.7412 22.075L39.8146 22.0792H39.8163ZM27.6182 22.4258H27.6275C27.6275 23.2231 27.6047 24.0204 27.6317 24.8169C27.7295 27.7152 29.7737 30.4554 32.5265 31.3789C32.7188 31.4437 32.9727 31.4454 33.1642 31.3789C35.9938 30.3915 37.9865 27.6673 38.0489 24.679C38.081 23.1415 38.0464 21.6024 38.0692 20.0641C38.0734 19.7436 37.951 19.6343 37.6726 19.5493C36.1592 19.0909 34.6524 18.6115 33.1381 18.154C32.9635 18.101 32.745 18.0968 32.5712 18.1498C31.018 18.6208 29.4716 19.1162 27.9185 19.588C27.6857 19.6587 27.6106 19.7562 27.6148 19.9926C27.6283 20.8034 27.6199 21.615 27.6199 22.4258H27.6182Z" fill="black"/>
<path d="M32.0776 25.2887C32.9913 24.3753 33.8602 23.5057 34.7308 22.6368C34.8296 22.5384 34.9249 22.4333 35.0371 22.3509C35.3627 22.112 35.8326 22.1482 36.1169 22.424C36.4139 22.7125 36.4645 23.1499 36.2156 23.493C36.0942 23.6613 35.9356 23.8042 35.7879 23.9523C34.7983 24.9405 33.8096 25.9288 32.8166 26.9145C32.2936 27.4334 31.8692 27.4292 31.3403 26.9036C30.7742 26.3417 30.2081 25.7807 29.6479 25.2147C29.2185 24.7807 29.1915 24.2862 29.5661 23.9262C29.9255 23.5813 30.4114 23.615 30.8307 24.028C31.2382 24.4291 31.6364 24.8413 32.0793 25.2896L32.0776 25.2887Z" fill="black"/>
</svg>
