<svg width="46" height="47" viewBox="0 0 46 47" fill="none" xmlns="http://www.w3.org/2000/svg">
<ellipse cx="27" cy="19.628" rx="19" ry="18.9421" fill="#FFED00"/>
<path d="M46 34.6623C45.7704 34.8385 45.5678 35.0853 45.309 35.1796C39.9476 37.1385 34.5817 39.084 29.2101 41.0138C28.8095 41.1574 28.6407 41.3358 28.5867 41.7734C28.2738 44.2922 26.4968 46.1536 24.0018 46.636C21.8129 47.059 19.5238 46.0178 18.2352 44.0129C17.0952 42.2401 17.1672 39.7034 18.4074 37.9688C18.5379 37.787 18.6437 37.5615 18.8204 37.4437C19.3595 37.0802 19.2627 36.6729 19.0703 36.1467C16.0452 27.9036 13.0415 19.6537 10.031 11.4061C9.97025 11.2412 9.89823 11.0796 9.81832 10.8844C8.559 11.3355 7.32331 11.7775 6.08874 12.2218C4.73939 12.7076 3.39003 13.1957 2.04067 13.6804C1.38569 13.9149 1.12234 13.7903 0.878131 13.1295C0.60916 12.4024 0.339063 11.6754 0.0790953 10.9461C-0.107721 10.4233 0.030703 10.1215 0.55514 9.93186C3.36527 8.91536 6.1709 7.88651 8.99228 6.9003C10.9707 6.20916 12.7534 7.09328 13.4804 9.08365C16.5055 17.3582 19.526 25.6338 22.5477 33.9095C22.7064 34.3437 22.8392 34.7891 23.0328 35.2076C23.1014 35.3568 23.2973 35.5016 23.4627 35.5442C23.8195 35.6362 24.1942 35.6609 24.6219 35.7226C24.5701 35.5588 24.5296 35.4118 24.4778 35.2693C21.9637 28.3793 19.4473 21.4904 16.932 14.6015C16.663 13.8644 16.7801 13.6041 17.5071 13.3404C22.3812 11.5722 27.2553 9.80396 32.1294 8.03686C32.8789 7.76534 33.1265 7.87754 33.3921 8.60457C33.7309 9.52795 34.0662 10.4536 34.4016 11.3781C34.4376 11.4757 34.4759 11.5733 34.5006 11.6743C34.6053 12.0984 34.45 12.4249 34.0921 12.5472C33.7275 12.6717 33.3989 12.518 33.2379 12.1051C32.9577 11.3826 32.7011 10.651 32.4333 9.92289C32.3781 9.77142 32.3196 9.61996 32.2453 9.42249C30.6945 9.9846 29.1719 10.5366 27.6098 11.1043C27.9249 11.9671 28.2254 12.7895 28.5236 13.6131C28.7588 14.2616 28.6305 14.542 27.9767 14.781C26.9942 15.1412 26.0117 15.498 25.027 15.8503C24.399 16.0747 24.1211 15.9423 23.8881 15.3173C23.582 14.4938 23.2815 13.6691 22.9596 12.794C21.4178 13.3528 19.8952 13.9036 18.3185 14.4758C19.4934 17.6948 20.6616 20.8924 21.8522 24.1562C26.5035 22.4688 31.1256 20.7914 35.7813 19.1017C35.2727 17.7015 34.7786 16.3451 34.2868 14.9897C34.2362 14.8495 34.1743 14.7092 34.1529 14.5645C34.0989 14.2043 34.2654 13.9452 34.5986 13.8273C34.917 13.7151 35.1939 13.8273 35.3717 14.1157C35.4572 14.2537 35.509 14.413 35.5653 14.5667C37.6405 20.2518 39.7135 25.9379 41.7887 31.6229C41.8439 31.7744 41.9103 31.9214 41.9846 32.1031C42.6542 31.863 43.2979 31.6308 43.9416 31.4019C44.609 31.1652 44.8633 31.2852 45.1143 31.9382C45.4069 32.7 45.704 33.4585 45.9989 34.2192V34.6668L46 34.6623ZM31.6061 22.0458C31.7738 22.508 31.9212 22.9131 32.0686 23.3192C32.2217 23.74 32.377 24.1585 32.5256 24.5803C32.7439 25.203 32.6122 25.4824 31.9831 25.7146C31.0164 26.0714 30.0474 26.4237 29.0773 26.7726C28.383 27.0228 28.114 26.8916 27.854 26.1836C27.5569 25.3758 27.2621 24.568 26.9559 23.731C25.3928 24.2987 23.8723 24.8518 22.3328 25.4117C22.3947 25.6058 22.433 25.7472 22.4836 25.8852C23.6844 29.1748 24.8931 32.4622 26.0815 35.7563C26.2818 36.3128 26.5159 36.8109 26.9953 37.1969C27.2137 37.373 27.3633 37.4123 27.6177 37.3192C30.4368 36.2858 33.2604 35.2637 36.083 34.2405C37.6124 33.6862 39.1418 33.1342 40.7039 32.5688C39.2138 28.4893 37.7362 24.4401 36.2461 20.3617C34.6706 20.9339 33.158 21.4826 31.605 22.0458H31.6061ZM21.7386 35.6497C21.7026 35.542 21.6801 35.4713 21.6553 35.4028C18.503 26.7625 15.3531 18.1223 12.1963 9.4842C11.7349 8.22198 10.6601 7.72495 9.3873 8.17822C6.89566 9.06458 4.40964 9.96665 1.92138 10.8631C1.79871 10.9069 1.68279 10.9674 1.54099 11.0303L2.00016 12.2644C4.60434 11.3276 7.1635 10.4076 9.72154 9.48869C10.4598 9.2239 10.704 9.33946 10.973 10.0777C14.0825 18.5901 17.1908 27.1036 20.3003 35.616C20.36 35.781 20.4275 35.9425 20.4916 36.1063C20.9204 35.9492 21.3098 35.8068 21.7375 35.6497H21.7386ZM23.0137 36.8794C20.7032 36.8984 18.7664 38.8002 18.7731 41.0407C18.781 43.462 20.6683 45.3873 23.0249 45.3794C25.3342 45.3716 27.3183 43.4238 27.2958 41.1855C27.2722 38.7609 25.3826 36.8603 23.0137 36.8794ZM43.9968 32.8066C38.65 34.7454 33.364 36.6617 28.0611 38.5836C28.2231 39.0268 28.3695 39.4262 28.5236 39.8447C33.8378 37.9183 39.135 35.9975 44.4593 34.0677C44.2973 33.6268 44.1555 33.2386 43.9979 32.8066H43.9968ZM27.1045 13.6647C26.8412 12.9432 26.5981 12.2757 26.3404 11.5655C25.6268 11.8246 24.9471 12.0703 24.2325 12.3295C24.4958 13.0465 24.7445 13.7264 25.0022 14.4287C25.7079 14.1729 26.3775 13.9294 27.1056 13.6647H27.1045ZM30.3198 22.5114C29.6029 22.7728 28.9243 23.0208 28.2265 23.2755C28.4944 24.0047 28.7386 24.6712 28.9952 25.3713C29.7154 25.1099 30.3963 24.8631 31.0986 24.6072C30.8735 23.9846 30.6619 23.3978 30.4492 22.8121C30.4188 22.7291 30.3794 22.6505 30.3186 22.5125L30.3198 22.5114Z" fill="black"/>
<path d="M23.0508 39.12C24.1447 39.1244 25.0394 40.0164 25.0495 41.1114C25.0597 42.2054 24.1312 43.1355 23.0283 43.1389C21.9187 43.1422 21.0138 42.2312 21.0161 41.1137C21.0183 39.9996 21.9209 39.1155 23.0508 39.12ZM23.6968 41.1373C23.7058 40.7838 23.4121 40.4798 23.0531 40.4686C22.6862 40.4573 22.3857 40.7289 22.3654 41.0879C22.3452 41.4626 22.6513 41.7891 23.0227 41.788C23.3716 41.788 23.6867 41.4817 23.6957 41.1373H23.6968Z" fill="black"/>
</svg>
