<svg width="46" height="60" viewBox="0 0 46 60" fill="none" xmlns="http://www.w3.org/2000/svg">
<ellipse cx="27" cy="18.9421" rx="19" ry="18.9421" fill="#FFED00"/>
<path d="M29.1285 59.6531C28.6694 59.4257 28.5087 59.0165 28.371 58.5504C26.4658 52.1385 24.5492 45.738 22.6325 39.3374C22.5751 39.1555 22.5063 38.9736 22.4489 38.769C17.0088 38.769 11.5802 38.769 6.11721 38.769C6.01392 40.1673 5.89915 41.5429 5.79585 42.9185C5.48598 47.0908 5.16462 51.2745 4.85475 55.4467C4.77441 56.4585 4.68259 57.459 4.63668 58.4708C4.61373 59.0051 4.4301 59.3916 3.95954 59.6418C2.84628 59.6418 1.73302 59.6418 0.619755 59.6418C0.126246 59.3348 0 58.8801 0 58.323C0.0114769 49.7965 0 41.2587 0.0114769 32.7209C0.0114769 30.2426 1.53791 28.7419 4.03988 28.7419C9.87017 28.7419 15.689 28.7419 21.5193 28.7419C21.7373 28.7419 21.9439 28.7419 22.2308 28.7419C22.4489 27.7983 22.6784 26.8547 22.8965 25.9111C24.3311 19.738 25.7657 13.5535 27.2118 7.36895C27.5332 5.98198 28.7153 5.02702 30.0007 5.09523C31.4239 5.17481 32.5601 6.16388 32.6289 7.56222C32.6634 8.31254 32.4797 9.07424 32.3305 9.82457C30.7812 17.8053 29.2088 25.7747 27.6594 33.7441C27.602 34.0283 27.6135 34.3466 27.6824 34.6308C29.4384 42.4865 31.2058 50.3422 32.9618 58.1979C33.1339 58.9824 33.0192 59.2552 32.342 59.6531C31.2747 59.6531 30.1958 59.6531 29.1285 59.6531ZM1.85926 33.2439C9.9046 33.2439 17.8811 33.2439 25.8805 33.2439C26.0871 32.198 26.2822 31.1975 26.4773 30.1857C27.9004 22.9326 29.3121 15.668 30.7352 8.41486C30.9074 7.53948 30.7008 7.0961 30.104 6.95968C29.5187 6.82326 29.1285 7.18705 28.9334 8.05106C27.2692 15.1792 25.6165 22.3187 23.9524 29.4581C23.7343 30.3904 23.5048 30.5723 22.5637 30.5723C18.3516 30.5723 14.1396 30.5723 9.92755 30.5723C7.8617 30.5723 5.80733 30.5609 3.74148 30.5723C2.67413 30.5836 1.95108 31.2544 1.85926 32.3003C1.83631 32.5959 1.85926 32.8914 1.85926 33.2439ZM2.8348 57.8228C3.39717 50.2513 3.95954 42.7139 4.53339 35.1538C3.59228 35.1538 2.75447 35.1538 1.88222 35.1538C1.88222 42.7253 1.88222 50.2627 1.88222 57.8228C2.1921 57.8228 2.46754 57.8228 2.8348 57.8228ZM30.9648 57.7887C30.9304 57.6409 30.9074 57.4817 30.873 57.3339C29.886 52.9229 28.8989 48.5119 27.9119 44.1009C27.2692 41.2474 26.638 38.3938 25.9838 35.5403C25.9494 35.3812 25.7887 35.1311 25.6854 35.1311C24.905 35.097 24.1245 35.1083 23.2752 35.1083C23.3556 35.3812 23.413 35.5858 23.4703 35.7904C25.5936 42.9072 27.7283 50.0239 29.8515 57.1293C30.104 57.9137 30.0925 57.9137 30.9648 57.7887ZM21.8865 36.9046C21.7603 36.4612 21.6226 36.0747 21.5422 35.6881C21.4619 35.2561 21.2668 35.097 20.7847 35.097C16.1825 35.1197 11.5688 35.1083 6.9665 35.1083C6.78287 35.1083 6.58776 35.1311 6.3697 35.1424C6.33527 35.7563 6.30084 36.3134 6.26641 36.9046C11.4655 36.9046 16.6301 36.9046 21.8865 36.9046Z" fill="black"/>
<path fill-rule="evenodd" clip-rule="evenodd" d="M24.0817 2.06738C25.2962 0.795042 27.1777 0.100586 30.3527 0.100586C33.0976 0.100586 34.9205 1.40629 36.0455 3.02365C37.147 4.60727 37.5815 6.48269 37.6515 7.74217L37.6527 7.76347V38.5216C37.6527 39.7948 36.6206 40.8269 35.3474 40.8269H34.579C33.3058 40.8269 32.2737 39.7948 32.2737 38.5216V7.8331C32.2099 7.33295 32.1229 6.83436 31.8613 6.4135C31.6193 6.0243 31.1798 5.62798 30.2264 5.46908C29.4305 5.33644 28.8511 5.43624 28.4578 5.65393C28.0827 5.86153 27.7907 6.22318 27.642 6.81162L23.7956 23.5959C23.4916 24.9225 22.1107 25.6983 20.8196 25.268L20.2079 25.0641C19.1377 24.7073 18.4778 23.6282 18.6642 22.5082C19.0875 19.9647 19.689 16.5204 20.291 13.4273C20.8868 10.3663 21.4988 7.56297 21.949 6.36235C22.0384 6.12392 22.1271 5.8758 22.2169 5.625C22.3978 5.11896 22.5827 4.60199 22.785 4.13152C23.0979 3.40358 23.4897 2.68759 24.0817 2.06738ZM23.6876 6.07747C23.5943 6.33872 23.4968 6.61176 23.388 6.90198C22.9929 7.95561 22.4043 10.614 21.7996 13.7209C21.2011 16.7957 20.6021 20.2253 20.1802 22.7605C20.1191 23.1275 20.3341 23.4861 20.6939 23.6061L21.3056 23.81C21.736 23.9534 22.1963 23.6948 22.2976 23.2526L26.1475 6.45314L26.1493 6.4458C26.3854 5.50147 26.9119 4.75303 27.7135 4.30933C28.4984 3.8749 29.4558 3.7826 30.479 3.95315C31.8309 4.17846 32.672 4.8067 33.1665 5.60215C33.6331 6.35275 33.7411 7.18077 33.8047 7.68949L33.8106 7.73696V38.5216C33.8106 38.946 34.1546 39.2901 34.579 39.2901H35.3474C35.7718 39.2901 36.1159 38.946 36.1159 38.5216V7.80679C36.054 6.76091 35.6807 5.19066 34.7838 3.90121C33.9045 2.63699 32.5257 1.63743 30.3527 1.63743C27.3804 1.63743 25.996 2.28771 25.1934 3.12853C24.7769 3.5649 24.4723 4.09759 24.1969 4.7384C24.0125 5.16735 23.857 5.60296 23.6876 6.07747Z" fill="black"/>
</svg>
