<svg width="54" height="57" viewBox="0 0 54 57" fill="none" xmlns="http://www.w3.org/2000/svg">
<ellipse cx="33.48" cy="20.4574" rx="20.52" ry="20.4574" fill="#FFED00"/>
<path d="M4.3177 4.42862H0.866357C0.75233 4.42769 0.639257 4.44946 0.533729 4.49267C0.428201 4.53587 0.332328 4.59965 0.251695 4.68028C0.171063 4.76092 0.107285 4.85679 0.0640778 4.96232C0.0208704 5.06785 -0.000902245 5.18092 2.86367e-05 5.29495V55.4302C0.00728679 55.6551 0.101755 55.8683 0.263443 56.0248C0.425131 56.1813 0.641353 56.2687 0.866357 56.2686H4.3177C4.5427 56.2687 4.75892 56.1813 4.92061 56.0248C5.0823 55.8683 5.17677 55.6551 5.18403 55.4302V5.29495C5.18496 5.18092 5.16318 5.06785 5.11998 4.96232C5.07677 4.85679 5.01299 4.76092 4.93236 4.68028C4.85173 4.59965 4.75585 4.53587 4.65033 4.49267C4.5448 4.44946 4.43172 4.42769 4.3177 4.42862ZM3.49329 54.5359H1.7257V6.15429H3.49329V54.5359Z" fill="black"/>
<path d="M47.5083 47.6262H4.3176C4.09518 47.637 3.88545 47.733 3.73194 47.8943C3.57843 48.0557 3.49293 48.2699 3.49319 48.4926V51.9369C3.49227 52.0504 3.51382 52.1629 3.55659 52.2679C3.59936 52.373 3.66251 52.4686 3.7424 52.5491C3.82229 52.6296 3.91734 52.6936 4.02206 52.7372C4.12677 52.7808 4.23909 52.8033 4.35253 52.8033H47.5083C47.6229 52.8051 47.7367 52.784 47.843 52.7413C47.9494 52.6985 48.0461 52.6348 48.1275 52.5541C48.2088 52.4734 48.2732 52.3772 48.3169 52.2712C48.3605 52.1652 48.3825 52.0516 48.3816 51.9369V48.4926C48.3816 48.3782 48.3589 48.265 48.315 48.1594C48.271 48.0539 48.2066 47.958 48.1254 47.8775C48.0442 47.797 47.9479 47.7333 47.8419 47.6902C47.736 47.6471 47.6226 47.6253 47.5083 47.6262ZM46.6489 51.1195H5.18393V49.3519H46.6559V51.0846L46.6489 51.1195Z" fill="black"/>
<path d="M47.5082 7.92188H4.31757C4.10168 7.93049 3.89696 8.02011 3.74418 8.17289C3.5914 8.32567 3.50178 8.53039 3.49316 8.74628V12.2395C3.49316 12.4681 3.58347 12.6874 3.74443 12.8497C3.90539 13.0119 4.12395 13.104 4.35251 13.1059H47.5082C47.7368 13.104 47.9553 13.0119 48.1163 12.8497C48.2773 12.6874 48.3676 12.4681 48.3676 12.2395V8.74628C48.3586 8.52448 48.264 8.31478 48.1039 8.1611C47.9437 8.00742 47.7302 7.92169 47.5082 7.92188ZM46.6559 11.3383H5.1839V9.61261H46.6559V11.3383Z" fill="black"/>
<path d="M47.5083 27.7566H4.31761C4.09459 27.7657 3.88385 27.8611 3.72999 28.0228C3.57612 28.1845 3.4912 28.3997 3.4932 28.6229V32.0743C3.49319 32.3028 3.58351 32.5221 3.74447 32.6844C3.90543 32.8467 4.12399 32.9387 4.35254 32.9406H47.5083C47.7368 32.9387 47.9554 32.8467 48.1163 32.6844C48.2773 32.5221 48.3676 32.3028 48.3676 32.0743V28.6229C48.3685 28.5095 48.347 28.397 48.3042 28.2919C48.2614 28.1869 48.1983 28.0913 48.1184 28.0108C48.0385 27.9302 47.9435 27.8663 47.8387 27.8227C47.734 27.779 47.6217 27.7566 47.5083 27.7566ZM46.6489 31.2499H5.18394V29.4823H46.6559V31.2149L46.6489 31.2499Z" fill="black"/>
<path d="M41.4717 22.5935H29.3781C29.264 22.5926 29.151 22.6144 29.0454 22.6576C28.9399 22.7008 28.844 22.7646 28.7634 22.8452C28.6828 22.9258 28.619 23.0217 28.5758 23.1272C28.5326 23.2328 28.5108 23.3458 28.5117 23.4599V28.6439C28.5117 28.7573 28.5342 28.8696 28.5778 28.9743C28.6214 29.0791 28.6854 29.1741 28.7659 29.254C28.8464 29.3339 28.942 29.397 29.0471 29.4398C29.1521 29.4826 29.2646 29.5041 29.3781 29.5032H41.4717C41.7003 29.5032 41.9196 29.4129 42.0819 29.2519C42.2441 29.091 42.3362 28.8724 42.3381 28.6439V23.4389C42.3326 23.2128 42.2389 22.9978 42.077 22.8398C41.9152 22.6819 41.6979 22.5935 41.4717 22.5935ZM40.6054 27.7775H30.2374V24.2982H40.6054V27.7775Z" fill="black"/>
<path d="M42.3382 19.1003H28.5118C28.2826 19.1022 28.0633 19.194 27.9013 19.3561C27.7392 19.5182 27.6473 19.7375 27.6455 19.9667V23.425C27.6474 23.6535 27.7394 23.8721 27.9017 24.0331C28.064 24.194 28.2833 24.2843 28.5118 24.2843H42.3382C42.5661 24.2843 42.7846 24.1938 42.9458 24.0326C43.107 23.8715 43.1975 23.6529 43.1975 23.425V19.9806C43.1993 19.8663 43.1785 19.7527 43.1363 19.6464C43.094 19.5402 43.0311 19.4433 42.9512 19.3615C42.8713 19.2796 42.776 19.2144 42.6708 19.1696C42.5656 19.1248 42.4525 19.1012 42.3382 19.1003ZM41.4718 22.5936H29.3782V20.847H41.4718V22.5936Z" fill="black"/>
<path d="M23.3282 42.4424H11.2345C11.0047 42.4424 10.7844 42.5337 10.6219 42.6961C10.4594 42.8586 10.3682 43.0789 10.3682 43.3087V48.4927C10.3682 48.6061 10.3906 48.7185 10.4342 48.8232C10.4779 48.9279 10.5418 49.0229 10.6223 49.1028C10.7029 49.1827 10.7984 49.2459 10.9035 49.2887C11.0086 49.3314 11.1211 49.353 11.2345 49.3521H23.3282C23.5567 49.3521 23.776 49.2617 23.9383 49.1008C24.1006 48.9398 24.1926 48.7213 24.1945 48.4927V43.3087C24.1927 43.0795 24.1008 42.8602 23.9387 42.6981C23.7767 42.5361 23.5574 42.4442 23.3282 42.4424ZM22.4618 47.6264H12.0938V44.175H22.4618V47.6264Z" fill="black"/>
<path d="M24.1946 38.991H10.3683C10.1397 38.991 9.92042 39.0813 9.75815 39.2422C9.59588 39.4032 9.5038 39.6218 9.50195 39.8503V43.3086C9.50378 43.5378 9.59564 43.7571 9.75771 43.9192C9.91979 44.0813 10.1391 44.1731 10.3683 44.175H24.1946C24.4232 44.1731 24.6417 44.081 24.8027 43.9188C24.9636 43.7565 25.054 43.5372 25.0539 43.3086V39.8503C25.0539 39.6224 24.9634 39.4038 24.8022 39.2427C24.6411 39.0815 24.4225 38.991 24.1946 38.991ZM23.3283 42.4423H11.2346V40.7166H23.3283V42.4423Z" fill="black"/>
<path d="M40.6057 42.4424H31.9703C31.7406 42.4424 31.5202 42.5337 31.3577 42.6961C31.1953 42.8586 31.104 43.0789 31.104 43.3087V48.4927C31.104 48.6061 31.1265 48.7185 31.1701 48.8232C31.2137 48.9279 31.2776 49.0229 31.3582 49.1028C31.4387 49.1827 31.5343 49.2459 31.6393 49.2887C31.7444 49.3314 31.8569 49.353 31.9703 49.3521H40.6057C40.8342 49.3521 41.0535 49.2617 41.2158 49.1008C41.3781 48.9398 41.4702 48.7213 41.472 48.4927V43.3087C41.4702 43.0795 41.3783 42.8602 41.2162 42.6981C41.0542 42.5361 40.8349 42.4442 40.6057 42.4424ZM39.7463 47.6264H32.8367V44.175H39.7533L39.7463 47.6264Z" fill="black"/>
<path d="M41.4716 38.991H31.1036C30.8751 38.991 30.6558 39.0813 30.4935 39.2422C30.3312 39.4032 30.2391 39.6218 30.2373 39.8503V43.3086C30.2391 43.5378 30.331 43.7571 30.4931 43.9192C30.6551 44.0813 30.8744 44.1731 31.1036 44.175H41.4716C41.7008 44.1731 41.9201 44.0813 42.0822 43.9192C42.2443 43.7571 42.3361 43.5378 42.338 43.3086V39.8503C42.3361 39.6218 42.244 39.4032 42.0818 39.2422C41.9195 39.0813 41.7002 38.991 41.4716 38.991ZM40.6053 42.4423H31.97V40.7166H40.6053V42.4423Z" fill="black"/>
<path d="M11.2341 20.847C10.5466 20.847 9.88736 21.12 9.40127 21.6061C8.91517 22.0922 8.64209 22.7515 8.64209 23.4389V28.6229C8.64209 28.8509 8.73263 29.0694 8.89379 29.2306C9.05494 29.3918 9.27352 29.4823 9.50143 29.4823H12.9947C13.2233 29.4823 13.4426 29.392 13.6048 29.231C13.7671 29.0701 13.8592 28.8515 13.861 28.6229V23.4389C13.8601 23.0959 13.7913 22.7564 13.6585 22.44C13.5258 22.1237 13.3317 21.8367 13.0875 21.5958C12.8432 21.3548 12.5537 21.1646 12.2356 21.0361C11.9175 20.9075 11.5771 20.8433 11.2341 20.847ZM12.0934 27.7566H10.3678V23.4389C10.357 23.3191 10.3713 23.1983 10.4097 23.0843C10.4482 22.9703 10.5099 22.8656 10.5911 22.7768C10.6723 22.688 10.7711 22.617 10.8812 22.5685C10.9913 22.52 11.1103 22.4949 11.2306 22.4949C11.3509 22.4949 11.4699 22.52 11.58 22.5685C11.6901 22.617 11.7889 22.688 11.8701 22.7768C11.9512 22.8656 12.013 22.9703 12.0515 23.0843C12.0899 23.1983 12.1042 23.3191 12.0934 23.4389V27.7566Z" fill="black"/>
<path d="M11.2341 18.2549C11.0074 18.253 10.7891 18.3408 10.6268 18.4992C10.4645 18.6575 10.3714 18.8736 10.3678 19.1003V21.6923C10.357 21.8121 10.3712 21.9329 10.4097 22.0469C10.4482 22.1609 10.5099 22.2656 10.5911 22.3545C10.6723 22.4433 10.7711 22.5142 10.8812 22.5627C10.9913 22.6113 11.1103 22.6363 11.2306 22.6363C11.3509 22.6363 11.4699 22.6113 11.58 22.5627C11.6901 22.5142 11.7889 22.4433 11.8701 22.3545C11.9512 22.2656 12.013 22.1609 12.0515 22.0469C12.0899 21.9329 12.1042 21.8121 12.0934 21.6923V19.1003C12.0898 18.8748 11.9976 18.6598 11.8368 18.5016C11.6761 18.3435 11.4596 18.2549 11.2341 18.2549Z" fill="black"/>
<path d="M20.7361 20.847C20.0523 20.8525 19.3984 21.128 18.9168 21.6135C18.4352 22.099 18.165 22.7551 18.165 23.439V28.623C18.165 28.7364 18.1875 28.8487 18.2311 28.9534C18.2747 29.0582 18.3387 29.1532 18.4192 29.2331C18.4997 29.313 18.5953 29.3761 18.7004 29.4189C18.8054 29.4617 18.9179 29.4832 19.0314 29.4823H22.4827C22.7113 29.4823 22.9306 29.392 23.0928 29.231C23.2551 29.0701 23.3472 28.8515 23.349 28.623V23.439C23.3481 23.0971 23.2798 22.7587 23.1479 22.4433C23.016 22.1279 22.8231 21.8415 22.5804 21.6008C22.3377 21.36 22.0498 21.1695 21.7333 21.0401C21.4169 20.9108 21.078 20.8451 20.7361 20.847ZM21.6024 27.7566H19.8698V23.439C19.8698 23.2092 19.961 22.9888 20.1235 22.8264C20.286 22.6639 20.5063 22.5726 20.7361 22.5726C20.9658 22.5726 21.1862 22.6639 21.3487 22.8264C21.5111 22.9888 21.6024 23.2092 21.6024 23.439V27.7566Z" fill="black"/>
<path d="M20.736 18.2549C20.5098 18.2548 20.2925 18.3432 20.1307 18.5012C19.9688 18.6591 19.8751 18.8741 19.8696 19.1003V21.6922C19.8696 21.922 19.9609 22.1424 20.1234 22.3048C20.2858 22.4673 20.5062 22.5586 20.736 22.5586C20.9657 22.5586 21.1861 22.4673 21.3485 22.3048C21.511 22.1424 21.6023 21.922 21.6023 21.6922V19.1003C21.5968 18.8741 21.5031 18.6591 21.3413 18.5012C21.1794 18.3432 20.9621 18.2548 20.736 18.2549Z" fill="black"/>
</svg>
