<svg width="20" height="20" viewBox="0 0 20 20" fill="none" xmlns="http://www.w3.org/2000/svg">
<path d="M10 5.00006C9.45 5.00006 9 5.45006 9 6.00006V9.00006H6C5.45 9.00006 5 9.45006 5 10.0001C5 10.5501 5.45 11.0001 6 11.0001H9V14.0001C9 14.5501 9.45 15.0001 10 15.0001C10.55 15.0001 11 14.5501 11 14.0001V11.0001H14C14.55 11.0001 15 10.5501 15 10.0001C15 9.45006 14.55 9.00006 14 9.00006H11V6.00006C11 5.45006 10.55 5.00006 10 5.00006ZM10 6.10352e-05C4.48 6.10352e-05 0 4.48006 0 10.0001C0 15.5201 4.48 20.0001 10 20.0001C15.52 20.0001 20 15.5201 20 10.0001C20 4.48006 15.52 6.10352e-05 10 6.10352e-05ZM10 18.0001C5.59 18.0001 2 14.4101 2 10.0001C2 5.59006 5.59 2.00006 10 2.00006C14.41 2.00006 18 5.59006 18 10.0001C18 14.4101 14.41 18.0001 10 18.0001Z" fill="black"/>
</svg>
