<svg width="58" height="55" viewBox="0 0 58 55" fill="none" xmlns="http://www.w3.org/2000/svg">
<ellipse cx="38.4946" cy="18.9421" rx="19" ry="18.9421" fill="#FFED00"/>
<path d="M46.4032 17.5129L23.8346 9.06435C23.6279 8.97855 23.3962 8.97855 23.1894 9.06435L0.62082 17.5129C0.541913 17.5476 0.468165 17.5933 0.401707 17.6487C0.278753 17.7368 0.178208 17.8533 0.108363 17.9886C0.0385182 18.1239 0.00137515 18.2741 0 18.4269V45.6004C0.00213779 45.7966 0.0625244 45.9876 0.173274 46.1485C0.284023 46.3093 0.439991 46.4326 0.62082 46.5021L23.1651 54.9382C23.2707 54.9766 23.3817 54.9974 23.4938 55C23.602 54.9986 23.7092 54.9777 23.8103 54.9382L46.3789 46.4897C46.5607 46.4217 46.7176 46.2988 46.8286 46.1376C46.9395 45.9765 46.9993 45.7847 46.9997 45.5881V18.4145C47.0046 18.22 46.9499 18.0288 46.843 17.8673C46.7361 17.7058 46.5825 17.5819 46.4032 17.5129ZM22.5808 52.6779L1.88681 44.9334V19.7732L6.12299 21.3542V32.8783C6.12326 33.0717 6.18167 33.2605 6.29042 33.4194C6.39917 33.5783 6.55308 33.6997 6.73163 33.7676L16.8473 37.5472C16.952 37.5659 17.0591 37.5659 17.1638 37.5472C17.3556 37.5465 17.5425 37.4861 17.6994 37.3742C17.8239 37.2876 17.9255 37.1714 17.9955 37.0358C18.0656 36.9002 18.1018 36.7492 18.1012 36.5961V25.8378L22.5808 27.53V52.6779ZM16.2022 25.1338V35.2868L7.9611 32.1989V22.0459L16.2022 25.1338ZM9.77487 20.6749L17.1395 17.8958L24.5528 20.6749L17.1395 23.454L9.77487 20.6749ZM23.5546 25.8378L19.9027 24.4668L27.6447 21.5642C27.8226 21.4958 27.9758 21.374 28.0838 21.2152C28.1919 21.0563 28.2498 20.8679 28.2498 20.6749C28.2498 20.4818 28.1919 20.2934 28.0838 20.1345C27.9758 19.9757 27.8226 19.854 27.6447 19.7856L17.4682 15.9936C17.2593 15.9192 17.0318 15.9192 16.823 15.9936L7.08465 19.6991L3.6884 18.4022L23.5546 10.9912L43.4208 18.4022L23.5546 25.8378ZM45.1494 44.9334L24.4554 52.6779V27.53L45.1494 19.7856V44.9334Z" fill="black"/>
</svg>
