<svg width="16" height="24" viewBox="0 0 16 24" fill="none" xmlns="http://www.w3.org/2000/svg">
<path d="M12 0H3.27273C1.46182 0 0 1.46182 0 3.27273V20.7273C0 22.5382 1.46182 24 3.27273 24H12C13.8109 24 15.2727 22.5382 15.2727 20.7273V3.27273C15.2727 1.46182 13.8109 0 12 0ZM9.27273 21.8182H6C5.69455 21.8182 5.45455 21.5782 5.45455 21.2727C5.45455 20.9673 5.69455 20.7273 6 20.7273H9.27273C9.57818 20.7273 9.81818 20.9673 9.81818 21.2727C9.81818 21.5782 9.57818 21.8182 9.27273 21.8182ZM13.0909 18.5455H2.18182V3.27273H13.0909V18.5455Z" fill="black"/>
</svg>
