<svg width="59" height="63" viewBox="0 0 59 63" fill="none" xmlns="http://www.w3.org/2000/svg">
<ellipse cx="40" cy="18.9421" rx="19" ry="18.9421" fill="#FFED00"/>
<path d="M45.9774 61.0883L45.9774 58.0278L52.0422 58.0278C52.4329 58.0256 52.8194 57.9462 53.1795 57.7942C53.5397 57.6422 53.8664 57.4207 54.1411 57.1422C54.4158 56.8637 54.633 56.5337 54.7804 56.1711C54.9278 55.8085 55.0025 55.4203 55.0002 55.0288L55.0002 36.6923C55.0094 36.2866 54.9367 35.8833 54.7863 35.5065C54.6359 35.1297 54.411 34.7874 54.125 34.5C54.411 34.2126 54.6359 33.8703 54.7863 33.4935C54.9367 33.1167 55.0094 32.7134 55.0002 32.3077L55.0002 13.9712C55.0025 13.5797 54.9278 13.1915 54.7804 12.8289C54.633 12.4663 54.4158 12.1363 54.1411 11.8578C53.8664 11.5793 53.5397 11.3578 53.1795 11.2058C52.8194 11.0538 52.4329 10.9745 52.0422 10.9722L45.9774 10.9722L45.9774 7.91169C45.9786 7.6618 45.9306 7.41412 45.8362 7.1828C45.7419 6.95149 45.6029 6.74107 45.4274 6.56355C45.2519 6.38603 45.0432 6.2449 44.8132 6.1482C44.5832 6.05151 44.3365 6.00115 44.0871 6L30.2948 6C29.7904 6.00232 29.3073 6.20475 28.9515 6.56301C28.5956 6.92127 28.3958 7.40619 28.3958 7.91169L28.3958 12.2349L28.3958 12.4629L28.3958 12.5945L26.3654 12.5945C26.1854 12.5945 26.0072 12.6301 25.8409 12.6994C25.6747 12.7687 25.5238 12.8703 25.397 12.9982C25.2701 13.1262 25.1697 13.278 25.1016 13.445C25.0335 13.612 24.999 13.7908 25.0002 13.9712L25.0002 19.3731C25.0002 19.7367 25.1437 20.0856 25.3995 20.3435C25.6553 20.6015 26.0025 20.7475 26.3654 20.7498L28.3958 20.7498L28.3958 48.2502L26.3654 48.2502C26.0025 48.2525 25.6553 48.3985 25.3995 48.6565C25.1437 48.9144 25.0002 49.2633 25.0002 49.6269L25.0002 55.0288C24.999 55.2092 25.0335 55.388 25.1016 55.555C25.1697 55.722 25.2701 55.8738 25.397 56.0018C25.5238 56.1297 25.6747 56.2313 25.8409 56.3006C26.0071 56.3699 26.1854 56.4055 26.3654 56.4055L28.3958 56.4055L28.3958 56.5371L28.3958 56.7651L28.3958 61.0883C28.3958 61.5938 28.5956 62.0787 28.9514 62.437C29.3073 62.7953 29.7904 62.9977 30.2948 63L44.0871 63C44.3365 62.9989 44.5832 62.9485 44.8132 62.8518C45.0432 62.7551 45.2519 62.614 45.4274 62.4365C45.6029 62.2589 45.7419 62.0485 45.8362 61.8172C45.9306 61.5859 45.9786 61.3382 45.9774 61.0883ZM40.1227 12.4805C40.0311 12.055 39.7972 11.6735 39.4599 11.3993C39.1225 11.125 38.7018 10.9743 38.2674 10.9722L35.0819 10.9722C34.6485 10.9747 34.2291 11.1257 33.8932 11.4001C33.5573 11.6744 33.3252 12.0557 33.2353 12.4805L30.3123 12.4805C30.2809 12.4806 30.2498 12.4741 30.221 12.4616C30.1922 12.4491 30.1663 12.4307 30.1449 12.4076C30.1235 12.3845 30.1072 12.3573 30.0968 12.3276C30.0865 12.2978 30.0824 12.2663 30.0848 12.2349L30.0848 7.91169C30.0836 7.88059 30.0886 7.84957 30.0994 7.82039C30.1102 7.79122 30.1266 7.76446 30.1478 7.74166C30.1689 7.71885 30.1943 7.70044 30.2225 7.68749C30.2508 7.67453 30.2813 7.66728 30.3123 7.66615L44.0871 7.66615C44.149 7.6706 44.207 7.69841 44.2492 7.74399C44.2914 7.78956 44.3148 7.8495 44.3147 7.91169L44.3147 12.2349C44.3158 12.266 44.3109 12.297 44.3001 12.3262C44.2893 12.3554 44.2728 12.3822 44.2517 12.405C44.2306 12.4278 44.2051 12.4462 44.1769 12.4591C44.1487 12.4721 44.1182 12.4793 44.0871 12.4805L40.1227 12.4805ZM26.6892 19.0749L26.6892 14.2606L28.4395 14.2606L28.4395 19.0749L26.6892 19.0749ZM26.6892 54.7394L26.6892 49.9251L28.4395 49.9251L28.4395 54.7394L26.6892 54.7394ZM30.0673 14.1378C30.1431 14.1425 30.2191 14.1425 30.2948 14.1378L33.1741 14.1378L33.1741 33.4302C33.174 33.815 33.2899 34.191 33.5066 34.5088C33.2899 34.8266 33.174 35.2025 33.1741 35.5874L33.1741 54.8797L30.2948 54.8797C30.2191 54.875 30.1431 54.875 30.0673 54.8797L30.0673 14.1378ZM45.9424 56.3617C45.854 55.9338 45.6213 55.5495 45.2835 55.2732C44.9456 54.9969 44.5232 54.8456 44.0871 54.8446L40.1227 54.8446L40.1227 42.5677C40.0673 42.389 39.9563 42.2327 39.8059 42.1217C39.6556 42.0107 39.4737 41.9509 39.2869 41.9509C39.1002 41.9509 38.9183 42.0107 38.768 42.1217C38.6176 42.2327 38.5066 42.389 38.4512 42.5677L38.4512 56.1162C38.4513 56.1783 38.4279 56.2383 38.3857 56.2839C38.3435 56.3294 38.2856 56.3573 38.2236 56.3617L35.0381 56.3617C34.9762 56.3573 34.9183 56.3294 34.8761 56.2839C34.8338 56.2383 34.8104 56.1783 34.8106 56.1162L34.8106 35.5786C34.8104 35.5164 34.8338 35.4565 34.8761 35.4109C34.9183 35.3653 34.9762 35.3375 35.0381 35.3331L38.2499 35.3331C38.3118 35.3375 38.3697 35.3653 38.412 35.4109C38.4542 35.4565 38.4776 35.5164 38.4774 35.5786L38.4774 39.3231C38.4295 39.4555 38.414 39.5976 38.4325 39.7373C38.4509 39.877 38.5027 40.0102 38.5834 40.1256C38.6641 40.241 38.7714 40.3352 38.8962 40.4002C39.0209 40.4652 39.1595 40.4992 39.3001 40.4992C39.4407 40.4992 39.5793 40.4652 39.704 40.4002C39.8287 40.3352 39.936 40.241 40.0167 40.1256C40.0974 40.0102 40.1492 39.877 40.1677 39.7373C40.1861 39.5976 40.1707 39.4555 40.1227 39.3231L40.1227 35.5786C40.1227 35.1937 40.0068 34.8178 39.7902 34.5C40.0068 34.1822 40.1227 33.8063 40.1227 33.4214L40.1227 20.8288C40.0673 20.6501 39.9563 20.4938 39.8059 20.3828C39.6556 20.2718 39.4737 20.2119 39.287 20.2119C39.1002 20.2119 38.9183 20.2718 38.768 20.3828C38.6176 20.4938 38.5066 20.6501 38.4512 20.8288L38.4512 33.4214C38.4513 33.4836 38.4279 33.5435 38.3857 33.5891C38.3435 33.6347 38.2856 33.6625 38.2236 33.6669L35.0381 33.6669C34.9762 33.6625 34.9183 33.6347 34.8761 33.5891C34.8338 33.5435 34.8104 33.4836 34.8106 33.4214L34.8106 12.8838C34.8104 12.8217 34.8338 12.7617 34.8761 12.7161C34.9183 12.6706 34.9762 12.6427 35.0381 12.6383L38.2499 12.6383C38.3118 12.6427 38.3697 12.6706 38.412 12.7161C38.4542 12.7617 38.4776 12.8217 38.4774 12.8838L38.4774 17.6982C38.5328 17.8769 38.6438 18.0331 38.7942 18.1441C38.9446 18.2551 39.1264 18.315 39.3132 18.315C39.5 18.315 39.6818 18.2551 39.8322 18.1441C39.9826 18.0331 40.0936 17.8769 40.149 17.6982L40.149 14.1905L44.0871 14.1905C44.5232 14.1895 44.9456 14.0381 45.2835 13.7619C45.6213 13.4856 45.854 13.1013 45.9424 12.6734L52.0685 12.6734C52.406 12.6846 52.7262 12.8258 52.9625 13.0675C53.1988 13.3092 53.3331 13.6329 53.3374 13.9712L53.3374 32.3077C53.3398 32.6551 53.2049 32.9892 52.9622 33.2373C52.7196 33.4854 52.3888 33.6272 52.0422 33.6318L42.5994 33.6318C42.4243 33.6895 42.2718 33.8011 42.1638 33.9507C42.0557 34.1003 41.9975 34.2802 41.9975 34.4649C41.9975 34.6496 42.0557 34.8296 42.1638 34.9792C42.2718 35.1288 42.4243 35.2403 42.5994 35.298L52.0422 35.298C52.2199 35.3001 52.3954 35.3383 52.558 35.4103C52.7206 35.4823 52.8668 35.5867 52.9879 35.7171C53.1091 35.8475 53.2025 36.0011 53.2625 36.1688C53.3226 36.3364 53.3481 36.5145 53.3374 36.6923L53.3374 55.0288C53.3397 55.2015 53.3081 55.373 53.2442 55.5335C53.1804 55.694 53.0856 55.8403 52.9653 55.9641C52.8451 56.0878 52.7016 56.1867 52.5432 56.2549C52.3848 56.3231 52.2146 56.3594 52.0422 56.3617L45.9162 56.3617L45.9424 56.3617ZM30.2948 61.3338C30.2638 61.3327 30.2333 61.3255 30.205 61.3125C30.1768 61.2996 30.1514 61.2811 30.1303 61.2583C30.1091 61.2355 30.0927 61.2088 30.0819 61.1796C30.0711 61.1504 30.0661 61.1194 30.0673 61.0883L30.0673 56.7651C30.0649 56.7337 30.069 56.7022 30.0793 56.6724C30.0897 56.6427 30.106 56.6155 30.1274 56.5924C30.1488 56.5693 30.1747 56.5509 30.2035 56.5384C30.2323 56.5259 30.2634 56.5194 30.2948 56.5195L33.2178 56.5195C33.3077 56.9443 33.5398 57.3256 33.8757 57.5999C34.2116 57.8743 34.631 58.0253 35.0644 58.0278L38.2499 58.0278C38.6873 58.0297 39.1121 57.8808 39.453 57.6062C39.794 57.3316 40.0304 56.948 40.1227 56.5195L44.0871 56.5195C44.1182 56.5207 44.1487 56.5279 44.1769 56.5409C44.2051 56.5538 44.2306 56.5722 44.2517 56.595C44.2728 56.6178 44.2893 56.6446 44.3001 56.6738C44.3109 56.703 44.3158 56.734 44.3147 56.7651L44.3147 61.0883C44.3148 61.1505 44.2914 61.2104 44.2492 61.256C44.207 61.3016 44.149 61.3294 44.0871 61.3338L30.2948 61.3338Z" fill="black"/>
<mask id="path-3-inside-1_827_6452" fill="white">
<rect x="21.5" y="63" width="6" height="56" rx="1" transform="rotate(-180 21.5 63)"/>
</mask>
<rect x="21.5" y="63" width="6" height="56" rx="1" transform="rotate(-180 21.5 63)" stroke="black" stroke-width="4" mask="url(#path-3-inside-1_827_6452)"/>
<mask id="path-4-inside-2_827_6452" fill="white">
<rect x="17.5" y="59" width="6" height="48" rx="1" transform="rotate(-180 17.5 59)"/>
</mask>
<rect x="17.5" y="59" width="6" height="48" rx="1" transform="rotate(-180 17.5 59)" stroke="black" stroke-width="4" mask="url(#path-4-inside-2_827_6452)"/>
<path d="M7.43945 58L1.56055 58L2.44291 43L6.5571 43L7.43945 58L7.43945 58Z" stroke="black" stroke-width="2"/>
<path d="M1.56055 13L7.43945 13L6.5571 28L2.4429 28L1.56055 13L1.56055 13Z" stroke="black" stroke-width="2"/>
</svg>
