<svg width="40" height="40" viewBox="0 0 40 40" fill="none" xmlns="http://www.w3.org/2000/svg">
<rect x="0.5" y="0.5" width="39" height="39" stroke="#D6D6D6"/>
<path d="M23.8694 20.8764C24.0915 20.8764 24.2752 20.7186 24.3051 20.5123L24.5786 18.3357C24.6085 18.0889 24.4077 17.8744 24.1428 17.8744H21.3958V16.0539C21.3958 15.2285 21.6393 14.6662 22.8868 14.6662H24.0445C24.2838 14.6662 24.4803 14.4801 24.4803 14.2535V12.4127C24.4803 12.1821 24.2838 12 24.0445 12H22.1562C19.8578 12 18.2857 13.327 18.2857 15.7706V17.8744H16.4358C16.1923 17.8744 15.9958 18.0605 16.0001 18.2912L16.0086 20.4678C16.0086 20.6943 16.2051 20.8804 16.4444 20.8804H18.2985L18.2857 27.4467H21.3958L21.4086 20.8764H23.8694Z" fill="black"/>
</svg>
