<svg width="40" height="40" viewBox="0 0 40 40" fill="none" xmlns="http://www.w3.org/2000/svg">
<rect x="0.5" y="0.5" width="39" height="39" stroke="#D6D6D6"/>
<path d="M27.2016 15.4C26.8575 15.5435 26.5008 15.6559 26.1359 15.7374C26.5381 15.3806 26.8409 14.9307 27.0109 14.4305C27.0606 14.287 26.8948 14.1629 26.7579 14.2404C26.2479 14.5235 25.7005 14.7329 25.1282 14.8687C25.0951 14.8764 25.0619 14.8803 25.0246 14.8803C24.9209 14.8803 24.8172 14.8454 24.7384 14.7795C24.1289 14.2792 23.3493 14 22.5365 14C22.184 14 21.8316 14.0504 21.4832 14.1512C20.4051 14.4654 19.5716 15.2991 19.3103 16.3268C19.2108 16.7107 19.1859 17.0985 19.2315 17.4747C19.2357 17.5174 19.2149 17.5484 19.2025 17.5639C19.1776 17.5872 19.1444 17.6027 19.1113 17.6027C19.1071 17.6027 19.103 17.6027 19.0988 17.6027C16.7352 17.3971 14.6037 16.3307 13.0943 14.605C13.0196 14.5158 12.8704 14.5274 12.8082 14.6244C12.5137 15.0975 12.3603 15.6404 12.3603 16.1911C12.3603 17.0365 12.7211 17.8315 13.3514 18.4093C13.086 18.3511 12.8289 18.2581 12.5925 18.134C12.4764 18.0758 12.3354 18.1534 12.3313 18.2736C12.3147 19.5262 13.0984 20.643 14.2761 21.1472C14.2512 21.1472 14.2305 21.1472 14.2056 21.1472C14.019 21.1472 13.8324 21.1317 13.6458 21.0968C13.5173 21.0735 13.4053 21.1899 13.4468 21.3062C13.8283 22.4192 14.8567 23.2413 16.0841 23.4275C15.064 24.0673 13.878 24.4047 12.6423 24.4047H12.2566C12.1364 24.4047 12.0369 24.4784 12.0078 24.5831C11.9788 24.6878 12.0327 24.8003 12.1322 24.8546C13.5256 25.6108 15.1138 26.0141 16.7269 26.0141C18.1368 26.0141 19.4596 25.7504 20.6539 25.2346C21.7486 24.7615 22.7148 24.0829 23.5276 23.2219C24.2823 22.4192 24.8753 21.4923 25.2858 20.4685C25.6756 19.4913 25.883 18.4481 25.883 17.4553V17.4088C25.883 17.2498 25.9617 17.0985 26.0944 16.9977C26.6045 16.6099 27.0523 16.1523 27.4173 15.6404C27.5126 15.5047 27.3592 15.334 27.2016 15.4Z" fill="black"/>
</svg>
