<svg width="53" height="61" viewBox="0 0 53 61" fill="none" xmlns="http://www.w3.org/2000/svg">
<g clip-path="url(#clip0_199_2420)">
<path d="M26.1636 60.5848C23.5749 59.3832 20.9861 58.183 18.3974 56.9813C14.8652 55.342 11.3371 53.697 7.8021 52.0661C7.09069 51.7371 6.66522 51.2386 6.65831 50.4112C6.64035 48.1166 6.592 45.8235 6.60443 43.5289C6.60996 42.6111 7.41393 41.9192 8.29526 41.9517C9.17383 41.9842 9.8742 42.7071 9.88249 43.6475C9.89906 45.3942 9.89216 47.1423 9.88387 48.8904C9.88387 49.1756 9.92116 49.3606 10.2251 49.499C14.9785 51.6707 19.7235 53.8593 24.4714 56.0423C24.5612 56.0833 24.6579 56.1129 24.7933 56.1624V39.2956C24.6234 39.4566 24.499 39.5639 24.3844 39.6825C23.3179 40.7896 22.2584 41.9023 21.1878 43.0036C20.5303 43.6814 19.9252 43.7986 19.0729 43.4032C13.0611 40.6145 7.04924 37.8229 1.04156 35.0228C-0.107766 34.4877 -0.350891 33.1448 0.542872 32.2228C2.67022 30.0299 4.81276 27.8511 6.96498 25.6837C7.23988 25.4069 7.58937 25.1796 7.94163 25.013C11.5913 23.2987 15.2478 21.6001 18.9044 19.9C19.9045 19.434 20.8784 19.7531 21.2735 20.6625C21.6589 21.5507 21.2541 22.4995 20.2816 22.9528C17.7716 24.1234 15.2589 25.2869 12.7489 26.4532C12.6259 26.5097 12.5071 26.5761 12.322 26.6693C12.4767 26.7667 12.5776 26.8472 12.6909 26.8994C17.1624 28.9808 21.6326 31.0621 26.1111 33.1279C26.3018 33.2154 26.5946 33.238 26.7797 33.1533C31.3397 31.0593 35.8928 28.9483 40.4459 26.8387C40.508 26.8105 40.566 26.7752 40.7429 26.6806C40.4652 26.5478 40.2635 26.4476 40.0591 26.353C37.5311 25.181 35.0032 24.0118 32.4766 22.837C31.7527 22.501 31.3784 21.9107 31.4102 21.1821C31.4405 20.4775 31.8494 19.8449 32.5194 19.6896C32.9131 19.5992 33.4063 19.5978 33.7654 19.763C37.6375 21.5309 41.4943 23.3355 45.3484 25.1443C45.6233 25.2728 45.8747 25.4846 46.0916 25.7049C48.2217 27.8709 50.3449 30.044 52.4571 32.227C52.6795 32.4572 52.8218 32.7692 53.0014 33.0432V33.8904C52.7002 34.5964 52.1352 34.972 51.4652 35.2699C49.9015 35.9647 48.3599 36.7145 46.8003 37.4191C46.4715 37.5673 46.3513 37.7438 46.3527 38.1194C46.3679 42.107 46.3486 46.0932 46.3707 50.0807C46.3762 51.072 45.9756 51.6947 45.0956 52.0957C42.4047 53.3228 39.7275 54.5823 37.0449 55.8277C33.6259 57.4148 30.207 58.9991 26.7866 60.5848H26.165H26.1636ZM28.1376 56.257C28.3144 56.1821 28.425 56.1384 28.5327 56.0889C33.2557 53.8946 37.9787 51.6975 42.7072 49.5131C42.9959 49.3804 43.0677 49.2123 43.0664 48.9144C43.0581 45.8432 43.0608 42.7721 43.0595 39.7009C43.0595 39.5484 43.0443 39.3973 43.0346 39.1982C42.8219 39.2886 42.6492 39.3578 42.4806 39.4354C39.7496 40.7049 37.0241 41.9827 34.289 43.2423C32.9297 43.8678 32.6244 43.8071 31.5372 42.7339C30.5316 41.7399 29.5453 40.7274 28.5493 39.7235C28.4374 39.6105 28.3131 39.5117 28.1376 39.355V56.257ZM48.4621 32.9472C48.3295 32.7975 48.2438 32.6916 48.1485 32.5941C46.9909 31.408 45.8236 30.2318 44.6812 29.0316C44.4312 28.769 44.2419 28.752 43.927 28.8989C39.2109 31.1002 34.4893 33.2889 29.7691 35.4803C29.6378 35.5411 29.5149 35.6215 29.3477 35.7147C30.6255 37.0195 31.8702 38.2663 33.0803 39.5456C33.3745 39.8576 33.5969 39.8774 33.963 39.7065C38.3019 37.6775 42.6478 35.6667 46.9909 33.6489C47.4716 33.4258 47.9468 33.1929 48.4621 32.9472ZM4.58622 32.9415C4.74093 33.0234 4.85697 33.0926 4.97853 33.1491C9.696 35.3518 14.4162 37.5504 19.1282 39.763C19.4238 39.9014 19.5854 39.8322 19.7912 39.6176C20.7209 38.6475 21.6644 37.6902 22.6065 36.7328C22.9311 36.4024 23.2668 36.0847 23.5887 35.7684C23.5058 35.6653 23.4906 35.6272 23.463 35.6145C18.6019 33.3524 13.7407 31.0889 8.8713 28.8466C8.73593 28.7845 8.44445 28.8918 8.32151 29.0175C7.1487 30.2135 5.99524 31.4292 4.83763 32.6407C4.75751 32.7241 4.68844 32.8187 4.5876 32.9415H4.58622Z" fill="white"/>
</g>
<path d="M23.2254 18.774C23.2254 19.4233 23.4512 19.9832 23.9029 20.4537C24.364 20.9149 25.0181 21.1454 25.865 21.1454C26.7214 21.1454 27.3754 20.9149 27.8271 20.4537C28.2882 19.9926 28.5188 19.4327 28.5188 18.774C28.5188 18.1341 28.2882 17.5835 27.8271 17.1224C27.3754 16.6519 26.7214 16.4166 25.865 16.4166C25.0087 16.4166 24.3546 16.6519 23.9029 17.1224C23.4512 17.5835 23.2254 18.1341 23.2254 18.774ZM19.7388 6.09801H24.0017V5.70277C24.0017 4.87464 24.1805 4.25826 24.5381 3.8536C24.9051 3.43954 25.4557 3.23251 26.1897 3.23251C26.9519 3.23251 27.5071 3.43484 27.8553 3.83949C28.2035 4.23473 28.3776 4.84171 28.3776 5.66042C28.3776 6.44149 28.1894 7.05788 27.813 7.50959C27.4366 7.96129 26.8484 8.52592 26.0485 9.20348C25.0886 10.0222 24.4393 10.8174 24.1005 11.589C23.7712 12.3607 23.6065 13.2923 23.6065 14.384V14.638H28.0247V14.4263C28.0247 13.8617 28.1329 13.2876 28.3494 12.7042C28.5658 12.1207 29.0599 11.5279 29.8315 10.9256C30.6408 10.2857 31.356 9.53755 31.9771 8.6812C32.5982 7.82484 32.9088 6.74263 32.9088 5.43457C32.9088 3.73127 32.3065 2.39968 31.102 1.43981C29.9068 0.479936 28.2929 0 26.2603 0C24.284 0 22.7031 0.484641 21.5174 1.45392C20.3316 2.4138 19.7388 3.7595 19.7388 5.49103V6.09801Z" fill="white"/>
<defs>
<clipPath id="clip0_199_2420">
<rect width="53" height="40.9545" fill="white" transform="translate(0 19.6304)"/>
</clipPath>
</defs>
</svg>
