<svg width="46" height="47" viewBox="0 0 46 47" fill="none" xmlns="http://www.w3.org/2000/svg">
<ellipse cx="27" cy="19.8415" rx="19" ry="18.9421" fill="#FFED00"/>
<path d="M0 13.6004C0.272377 13.0337 0.729078 12.8628 1.34662 12.8628C15.7791 12.8733 30.2127 12.871 44.6452 12.871C45.6689 12.871 45.9988 13.1953 46 14.2022C46 15.9935 46.0023 17.7859 46 19.5772C45.9977 21.5956 44.7508 22.8296 42.715 22.8331C42.4943 22.8331 42.2724 22.8331 41.9965 22.8331C41.9965 23.0497 41.9965 23.2253 41.9965 23.401C41.9895 25.0728 42.0247 26.747 41.9684 28.4166C41.7887 33.7436 39.6907 38.2171 35.7624 41.8044C31.8634 45.3647 27.2189 47.0097 21.9498 46.7275C16.8639 46.4559 12.5599 44.3965 9.0941 40.6781C5.64947 36.982 3.98116 32.5728 4.00347 27.5279C4.00934 26.1394 4.00347 24.7509 4.00347 23.3623C4.00347 23.2008 4.00347 23.0404 4.00347 22.8331C3.70292 22.8331 3.45285 22.8343 3.20278 22.8331C1.57791 22.8238 0.529491 22.0323 0.0774865 20.4752C0.06105 20.4202 0.0258288 20.3722 0 20.3195V13.6004ZM6.01108 22.8554C6.01108 24.5717 5.9512 26.2448 6.02986 27.9108C6.09091 29.201 6.22123 30.5052 6.50065 31.7626C7.20155 34.9132 8.77124 37.62 11.0759 39.8761C13.6799 42.4237 16.7946 43.9984 20.4142 44.5604C23.0652 44.9714 25.6692 44.7665 28.2121 43.9481C31.1954 42.9869 33.7301 41.3162 35.7894 38.9536C38.1868 36.2022 39.6203 33.0107 39.8903 29.3743C40.0453 27.2797 39.9654 25.1688 39.9878 23.0649C39.9878 22.997 39.9584 22.9291 39.942 22.8565H6.01108V22.8554ZM1.99117 14.873C1.99117 16.47 1.98765 18.0201 1.99234 19.5702C1.99469 20.4647 2.37978 20.8452 3.28144 20.8463C4.44843 20.8463 5.6166 20.8346 6.78359 20.8358C18.7294 20.8393 30.6765 20.844 42.6223 20.8475C43.6496 20.8475 44.0053 20.4963 44.0065 19.4847C44.0077 18.1407 44.0065 16.7978 44.0065 15.4537V14.873H1.99117Z" fill="black"/>
<path d="M23.0214 42.7842C18.1197 42.8228 14.0576 38.8059 14.0083 33.8723C13.959 28.9281 17.98 24.8737 22.9779 24.828C27.8737 24.7835 31.9417 28.8051 31.991 33.74C32.0403 38.683 28.0122 42.7456 23.0214 42.7842ZM22.999 40.7775C26.8558 40.7775 30.001 37.648 30.001 33.8079C30.001 29.9689 26.8558 26.8359 23.0002 26.8359C19.1447 26.8359 15.9994 29.9665 15.9983 33.8067C15.9971 37.6457 19.1412 40.7775 22.999 40.7787V40.7775Z" fill="black"/>
<path d="M35.0017 26.8418C35.5476 26.8418 35.9984 27.2961 35.989 27.8358C35.9808 28.3697 35.5018 28.8321 34.9759 28.8157C34.4534 28.7982 34.0214 28.3568 34.0167 27.8323C34.0108 27.2832 34.4511 26.8406 35.0017 26.8418Z" fill="black"/>
<path d="M22.9731 38.7837C20.2236 38.772 17.9659 36.5018 17.9964 33.7786C18.0269 31.0226 20.2682 28.8168 23.026 28.8262C25.7732 28.8367 28.0321 31.108 28.0027 33.8313C27.9734 36.5861 25.7298 38.7954 22.9731 38.7837ZM25.9881 33.8184C25.9963 32.177 24.6438 30.8154 23.0025 30.813C21.3635 30.8107 20.0075 32.1723 20.0122 33.8137C20.0169 35.4399 21.3412 36.7723 22.9755 36.7957C24.6074 36.8191 25.9799 35.4622 25.9881 33.8184Z" fill="black"/>
</svg>
