<svg width="128" height="135" viewBox="0 0 128 135" fill="none" xmlns="http://www.w3.org/2000/svg">
<circle cx="84" cy="44" r="44" fill="#FFED00"/>
<path d="M0 44.1495C0.0641059 44.0538 0.160265 43.9581 0.192318 43.8623C1.41033 39.3308 4.45536 36.9373 9.13509 36.9373C16.2188 36.9054 23.3025 36.9054 30.4182 36.9054C37.7904 36.9054 45.1626 36.9054 52.5348 36.9054C53.6887 36.9054 54.7144 37.0331 55.3234 38.15C55.9003 39.235 55.5157 40.1924 54.9067 41.1817C52.5668 44.8835 50.3231 48.5854 48.0474 52.3191C47.823 52.7021 47.5986 53.0531 47.246 53.6594C48.8487 53.6594 50.2911 53.6594 51.7014 53.6594C54.3618 53.6594 55.1631 54.553 54.8426 57.1698C54.7144 58.2867 54.5541 59.3717 54.6182 60.6163C57.4389 57.0102 60.2275 53.4041 63.0481 49.798C62.952 49.6704 62.9199 49.5427 62.8879 49.5427C60.4198 49.1598 59.5864 47.4046 60.8685 45.0431C61.9904 42.9688 62.984 40.8306 63.9777 38.7244C64.5546 37.5118 65.388 36.9054 66.7983 36.9054C75.8052 36.9373 84.8121 36.8735 93.851 36.9373C99.1077 36.9693 102.698 40.6392 102.73 45.8728C102.762 55.4146 102.73 64.9245 102.73 74.4663C102.73 74.945 102.73 75.4237 102.73 75.8704C115.487 76.764 123.596 87.9971 123.147 98.4963C122.731 108.581 114.942 118.41 102.73 119.463C102.73 121.505 102.762 123.579 102.73 125.622C102.666 129.739 99.909 133.121 95.8383 133.983C94.9729 134.174 94.0754 134.174 93.2099 134.174C65.3239 134.174 37.4378 134.174 9.55178 134.174C4.48741 134.174 1.60265 132.004 0.192318 127.122C0.160265 127.058 0.0961588 126.994 0.0641059 126.93C0 99.358 0 71.7537 0 44.1495ZM97.7935 76.1896C97.8256 75.9981 97.8576 75.9343 97.8576 75.8704C97.8576 65.7861 97.8897 55.7018 97.8576 45.5856C97.8576 43.3517 96.255 41.7561 93.9792 41.7242C85.5172 41.6923 77.0873 41.6923 68.6253 41.7242C68.3048 41.7242 67.8561 41.8518 67.7279 42.0752C67.1509 43.0964 66.6701 44.1495 66.1573 45.2346C66.606 45.3622 66.8624 45.426 67.1509 45.4899C70.1318 46.16 70.7088 47.7875 68.8177 50.181C66.6701 52.9254 64.5546 55.6699 62.4071 58.4144C59.2338 62.4992 56.0285 66.6158 52.8232 70.7006C51.9258 71.8495 50.868 72.1367 49.7782 71.6261C48.6884 71.1474 48.2076 70.0943 48.432 68.7221C48.5282 68.0519 48.6243 67.3817 48.7205 66.7116C49.0731 63.999 49.4577 61.2865 49.8423 58.4144C47.6307 58.4144 45.5793 58.4144 43.4958 58.4144C42.374 58.4144 41.4124 58.1591 40.8675 57.106C40.3547 56.1167 40.6431 55.1912 41.188 54.2977C43.5279 50.532 45.8037 46.7344 48.1435 42.9688C48.3679 42.6177 48.5602 42.2348 48.8487 41.7561C48.3999 41.7242 48.1115 41.6923 47.7909 41.6923C34.9057 41.6923 21.9883 41.6923 9.10303 41.6923C6.31443 41.6923 4.83999 43.2241 4.83999 46.0324C4.83999 56.7868 4.83999 67.5732 4.83999 78.3277C4.83999 78.7106 4.83999 79.0936 4.83999 79.6042C5.48105 79.6042 5.9939 79.6042 6.50675 79.6042C25.1295 79.6042 43.7523 79.6042 62.4071 79.6042C64.8751 79.6042 65.6765 80.402 65.6765 82.8273C65.6765 93.2627 65.6765 103.73 65.6765 114.165C65.6765 117.037 65.0354 117.676 62.1186 117.676C43.5599 117.676 25.0333 117.676 6.47469 117.676C5.96185 117.676 5.449 117.676 4.9041 117.676C4.9041 120.58 4.87205 123.324 4.93615 126.069C4.96821 126.707 5.32079 127.377 5.70542 127.92C6.63496 129.228 8.01323 129.419 9.55178 129.419C37.4378 129.387 65.3239 129.419 93.2099 129.419C93.5946 129.419 94.0113 129.419 94.3959 129.387C96.1268 129.26 97.7294 127.92 97.8256 126.26C97.9538 123.93 97.8576 121.569 97.8576 119.239C85.4852 116.718 79.94 106.762 79.5875 98.5921C79.1067 88.3482 86.4788 78.0724 97.7935 76.1896ZM4.83999 112.793C23.5589 112.793 42.1496 112.793 60.7403 112.793C60.7403 103.315 60.7403 93.9009 60.7403 84.5187C42.0535 84.5187 23.4628 84.5187 4.83999 84.5187C4.83999 93.9967 4.83999 103.347 4.83999 112.793ZM101.319 114.612C110.647 114.612 118.275 107.017 118.275 97.7304C118.275 88.412 110.711 80.7849 101.383 80.7849C91.9919 80.753 84.3633 88.3482 84.3954 97.7623C84.3633 107.081 91.9599 114.612 101.319 114.612Z" fill="black"/>
<path d="M25.5769 101.337C30.1284 101.337 34.712 101.337 39.2635 101.337C40.9302 101.337 41.9559 102.422 41.8277 103.953C41.7316 105.198 40.77 106.06 39.3596 106.091C37.8852 106.123 36.4108 106.091 34.9043 106.091C27.3718 106.091 19.8715 106.091 12.339 106.091C11.121 106.091 10.0953 105.74 9.61452 104.56C8.94141 102.9 10.1594 101.337 12.1146 101.305C16.6341 101.305 21.1215 101.337 25.5769 101.337Z" fill="black"/>
<path d="M43.7206 91.2841C45.3232 91.2841 46.9259 91.2522 48.5285 91.2841C50.0671 91.316 51.1248 92.3053 51.1248 93.6775C51.1248 95.0179 50.0991 96.0391 48.6247 96.0391C45.3553 96.071 42.0538 96.071 38.7844 96.0391C37.31 96.0071 36.3164 94.986 36.3484 93.6137C36.3484 92.2415 37.342 91.2841 38.8485 91.2522C40.4191 91.2522 42.0538 91.2841 43.7206 91.2841Z" fill="black"/>
<path d="M14.3921 91.2841C15.2575 91.2841 16.155 91.2522 17.0204 91.2841C18.3026 91.3479 19.2 92.2415 19.2962 93.4542C19.3924 94.7307 18.591 95.8795 17.2769 95.9752C15.3857 96.1029 13.4305 96.1029 11.5394 95.9752C10.2252 95.8795 9.39183 94.6987 9.48799 93.4861C9.58415 92.2415 10.5457 91.3479 11.892 91.2841C12.7253 91.2522 13.5587 91.2841 14.3921 91.2841Z" fill="black"/>
<path d="M30.2598 93.6775C30.2598 94.9221 29.138 96.0391 27.8559 96.071C26.5737 96.071 25.4839 95.0179 25.4519 93.7095C25.4198 92.3372 26.4776 91.2841 27.8879 91.316C29.2021 91.316 30.2598 92.3691 30.2598 93.6775Z" fill="black"/>
<path d="M98.0807 98.1772C97.1833 97.3794 96.414 96.7411 95.7409 96.0391C94.6511 94.954 94.619 93.4861 95.5806 92.5287C96.5743 91.5394 97.9525 91.5713 99.1064 92.6883C99.8116 93.3903 100.421 94.1881 101.318 95.1774C102.119 94.252 102.664 93.518 103.305 92.8797C104.587 91.6032 105.934 91.5075 106.991 92.5287C108.017 93.5499 107.921 94.986 106.703 96.1986C106.062 96.8369 105.357 97.4113 104.491 98.1772C105.389 99.0069 106.126 99.6771 106.799 100.379C107.889 101.496 107.953 102.9 106.991 103.89C105.998 104.943 104.555 104.879 103.369 103.73C102.696 103.06 102.055 102.326 101.19 101.4C100.389 102.294 99.7475 103.092 99.0103 103.794C97.8884 104.879 96.4781 104.879 95.4845 103.89C94.5549 102.964 94.587 101.56 95.5806 100.475C95.9332 100.092 96.3178 99.7409 96.6704 99.358C97.1192 99.0388 97.4717 98.7197 98.0807 98.1772Z" fill="black"/>
</svg>
