<svg width="47" height="41" viewBox="0 0 47 41" fill="none" xmlns="http://www.w3.org/2000/svg">
<path d="M45.083 39.7042C45.083 39.6439 45.103 39.5837 45.1633 39.5435C45.2035 39.5034 45.2637 39.4833 45.344 39.4833C45.4043 39.4833 45.4645 39.5034 45.5248 39.5435C45.5649 39.5837 45.6051 39.6439 45.6051 39.7042C45.6051 39.7644 45.585 39.8247 45.5248 39.8648C45.4846 39.905 45.4244 39.9251 45.344 39.9251C45.2838 39.9251 45.2235 39.905 45.1633 39.8648C45.103 39.8247 45.083 39.7644 45.083 39.7042ZM45.5649 39.0414H45.4846C45.6051 38.6197 45.7055 38.0975 45.826 37.4951C45.9465 36.8524 46.0871 36.5311 46.2478 36.5311C46.308 36.5311 46.3482 36.5512 46.3883 36.5913C46.4285 36.6315 46.4285 36.6917 46.4285 36.752C46.4285 36.8524 46.3281 37.1536 46.1072 37.6758C45.8863 38.1779 45.7055 38.6398 45.5649 39.0414ZM43.8177 37.6356C44.0587 37.6356 44.2596 37.716 44.4001 37.8566C44.5407 37.9971 44.621 38.198 44.621 38.439C44.621 38.6398 44.5809 38.8205 44.4805 39.0214C44.3801 39.2222 44.2596 39.4029 44.0989 39.5435C43.9784 39.664 43.8378 39.7443 43.6972 39.8247C43.5566 39.8849 43.396 39.9251 43.2554 39.9251C43.0144 39.9251 42.8337 39.8448 42.673 39.7042C42.5324 39.5636 42.4521 39.3628 42.4521 39.1218C42.4521 38.9209 42.4923 38.7402 42.5927 38.5394C42.6931 38.3385 42.8136 38.1578 42.9742 38.0172C43.0947 37.8967 43.2353 37.8164 43.3759 37.7361C43.5165 37.6758 43.6571 37.6356 43.8177 37.6356ZM43.8378 37.7361C43.7173 37.7361 43.5968 37.7762 43.4964 37.8365C43.396 37.9168 43.2956 38.0172 43.1952 38.1779C43.0747 38.3586 42.9943 38.5394 42.9341 38.7603C42.8738 38.9812 42.8337 39.1619 42.8337 39.3226C42.8337 39.4632 42.8738 39.5837 42.9542 39.6841C43.0345 39.7644 43.1148 39.8247 43.2353 39.8247C43.3558 39.8247 43.4763 39.7845 43.5767 39.7042C43.6771 39.6239 43.7776 39.5234 43.878 39.3628C43.9985 39.182 44.0788 39.0013 44.1591 38.7804C44.2194 38.5595 44.2596 38.3787 44.2596 38.218C44.2596 38.0775 44.2194 37.957 44.1591 37.8566C44.0386 37.7762 43.9583 37.7361 43.8378 37.7361ZM40.6647 39.8849L41.1668 38.2783C41.2069 38.1779 41.2069 38.1176 41.227 38.0775C41.227 38.0373 41.2471 38.0172 41.2471 37.9971C41.2471 37.9369 41.227 37.8967 41.1869 37.8766C41.1467 37.8566 41.0664 37.8365 40.966 37.8365H40.9258V37.7762C41.0664 37.7561 41.2069 37.7561 41.3475 37.716C41.4881 37.6959 41.6086 37.6557 41.7291 37.6156L41.4279 38.5795C41.6287 38.218 41.8094 37.9771 41.95 37.8365C42.0906 37.6959 42.2312 37.6156 42.3718 37.6156C42.432 37.6156 42.4923 37.6356 42.5324 37.6758C42.5726 37.716 42.5927 37.7762 42.5927 37.8365C42.5927 37.8967 42.5726 37.957 42.5324 37.9971C42.4923 38.0373 42.4521 38.0574 42.3918 38.0574C42.3115 38.0574 42.2513 38.0373 42.2111 37.9771C42.1709 37.9168 42.1308 37.8967 42.1107 37.8967C41.9902 37.8967 41.8295 38.0775 41.6086 38.459C41.4078 38.8205 41.2069 39.2824 41.0463 39.8448H40.6647V39.8849ZM40.4438 37.6959L39.9417 39.3427V39.3628C39.9016 39.4632 39.8815 39.5636 39.8815 39.6038C39.8815 39.6239 39.8815 39.664 39.9016 39.6841C39.9216 39.7042 39.9417 39.7042 39.9618 39.7042C40.002 39.7042 40.0622 39.6841 40.1225 39.6239C40.1827 39.5837 40.263 39.4833 40.3635 39.3628L40.4237 39.4029C40.2831 39.6038 40.1626 39.7243 40.0421 39.8046C39.9417 39.8849 39.8212 39.9251 39.7208 39.9251C39.6405 39.9251 39.5802 39.905 39.5401 39.8648C39.4999 39.8247 39.4798 39.7644 39.4798 39.7042C39.4798 39.664 39.4798 39.6239 39.4999 39.5636C39.52 39.5034 39.5401 39.4431 39.5601 39.3628L39.7208 38.8205C39.4597 39.2021 39.2388 39.4833 39.038 39.6439C38.8372 39.8247 38.6564 39.905 38.4757 39.905C38.3752 39.905 38.315 39.8849 38.2548 39.8448C38.2146 39.8046 38.1744 39.7444 38.1744 39.6439C38.1744 39.6038 38.1744 39.5435 38.1945 39.4833C38.2146 39.423 38.2347 39.3628 38.2548 39.2824L38.556 38.2381C38.556 38.2381 38.556 38.218 38.5761 38.198C38.6162 38.0775 38.6363 37.9971 38.6363 37.957C38.6363 37.8967 38.6162 37.8566 38.5761 37.8365C38.5359 37.8164 38.4556 37.7963 38.315 37.7963V37.7361C38.4556 37.716 38.5962 37.716 38.7367 37.6758C38.8773 37.6557 38.9978 37.6156 39.1183 37.5754L38.6363 39.2021C38.6162 39.2824 38.5962 39.3427 38.5761 39.4029C38.556 39.4431 38.556 39.4833 38.556 39.5234C38.556 39.5636 38.5761 39.6038 38.5962 39.6239C38.6162 39.6439 38.6564 39.664 38.6966 39.664C38.8773 39.664 39.1183 39.4632 39.4196 39.0615C39.7208 38.6599 39.9417 38.198 40.0823 37.6356H40.4438V37.6959ZM37.3109 37.8164H36.9494L36.9694 37.7361C37.1301 37.716 37.2908 37.6557 37.4514 37.5352C37.6121 37.4147 37.7326 37.2741 37.8129 37.0934H37.9133L37.7326 37.6959H38.1142L38.0941 37.8164H37.6924L37.2305 39.3427C37.2104 39.4029 37.1904 39.4632 37.1904 39.5034C37.1904 39.5435 37.1703 39.5837 37.1703 39.6038C37.1703 39.6239 37.1703 39.664 37.1904 39.6841C37.2104 39.7042 37.2305 39.7042 37.2506 39.7042C37.2908 39.7042 37.351 39.6841 37.4113 39.6239C37.4715 39.5837 37.5518 39.4833 37.6322 39.3628L37.7125 39.4029C37.5719 39.6038 37.4514 39.7243 37.3309 39.8046C37.2305 39.8849 37.11 39.9251 37.0096 39.9251C36.9293 39.9251 36.869 39.905 36.8289 39.8648C36.7887 39.8247 36.7686 39.7644 36.7686 39.7042C36.7686 39.664 36.7686 39.6239 36.7887 39.5636C36.8088 39.5034 36.8088 39.4431 36.8489 39.3628L37.3109 37.8164ZM36.4674 37.6959L35.9653 39.3427V39.3628C35.9251 39.4632 35.905 39.5636 35.905 39.6038C35.905 39.6239 35.905 39.664 35.9251 39.6841C35.9452 39.7042 35.9653 39.7042 35.9854 39.7042C36.0255 39.7042 36.0858 39.6841 36.146 39.6239C36.2063 39.5837 36.2866 39.4833 36.387 39.3628L36.4674 39.4029C36.3268 39.6038 36.2063 39.7243 36.0858 39.8046C35.9854 39.8849 35.8649 39.9251 35.7645 39.9251C35.6841 39.9251 35.6239 39.905 35.5837 39.8648C35.5436 39.8247 35.5235 39.7644 35.5235 39.7042C35.5235 39.664 35.5235 39.6239 35.5436 39.5636C35.5636 39.5034 35.5636 39.4431 35.5837 39.3628L35.7444 38.8205C35.4833 39.2021 35.2624 39.4833 35.0616 39.6439C34.8607 39.8247 34.68 39.905 34.4992 39.905C34.3988 39.905 34.3386 39.8849 34.2783 39.8448C34.2382 39.8046 34.198 39.7444 34.198 39.6439C34.198 39.6038 34.198 39.5435 34.2181 39.4833C34.2382 39.423 34.2582 39.3628 34.2783 39.2824L34.5997 38.2582C34.5997 38.2381 34.5997 38.2381 34.6197 38.218C34.6599 38.0975 34.68 38.0172 34.68 37.9771C34.68 37.7963 34.4792 38.1377 34.3787 38.2381L34.2582 38.1377C34.3587 38.0172 34.6197 37.716 34.7603 37.6959C34.9009 37.6758 35.2021 37.6959 35.162 37.7963L34.6599 39.2222C34.6398 39.3025 34.6197 39.3628 34.5997 39.423C34.5997 39.4632 34.5796 39.5034 34.5796 39.5435C34.5796 39.5837 34.5997 39.6239 34.6197 39.6439C34.6398 39.664 34.68 39.6841 34.7201 39.6841C34.9009 39.6841 35.1419 39.4833 35.4431 39.0816C35.7444 38.68 35.9653 38.218 36.1059 37.6557H36.4674V37.6959ZM33.8164 37.8566C33.6558 38.5795 33.3143 40.9493 32.2098 40.9493C32.1294 40.9493 32.0491 40.9292 32.009 40.8891C31.9487 40.8489 31.9286 40.7887 31.9286 40.7284C31.9286 40.6682 31.9487 40.628 31.9889 40.5878C32.029 40.5477 32.0692 40.5276 32.1295 40.5276C32.1696 40.5276 32.2098 40.5477 32.2299 40.5677C32.2499 40.5878 32.27 40.628 32.27 40.6682C32.27 40.6882 32.27 40.7284 32.2499 40.7485C32.2299 40.7686 32.2299 40.7887 32.2299 40.7887C32.2299 40.8087 32.2299 40.8087 32.2499 40.8087C32.2499 40.8087 32.27 40.8288 32.2901 40.8288C32.5311 40.8288 32.8524 40.5878 33.0934 39.3829C33.1938 38.8607 33.3746 38.1779 33.4549 37.8566H33.0733L33.0934 37.7361H33.475C33.6558 37.0934 34.0172 36.4307 34.7201 36.4307C34.8206 36.4307 34.9411 36.4909 35.0013 36.5311C35.0616 36.5712 35.0816 36.6315 35.0816 36.7118C35.0816 36.7721 35.0616 36.8122 35.0214 36.8524C34.9812 36.8926 34.9411 36.9127 34.8808 36.9127C34.8406 36.9127 34.8005 36.8926 34.7603 36.8725C34.7402 36.8524 34.7201 36.8122 34.7201 36.7721C34.7201 36.752 34.7201 36.7118 34.7402 36.6917C34.7603 36.6717 34.7603 36.6516 34.7603 36.6315C34.7603 36.6114 34.7603 36.6114 34.7402 36.5913C34.7402 36.5913 34.7201 36.5712 34.7001 36.5712C34.4992 36.5712 34.3787 36.6114 34.2181 36.8323C34.0373 37.0934 33.8566 37.5553 33.8164 37.716H34.2382L34.198 37.8365H33.8164V37.8566ZM30.5027 37.6356C30.7437 37.6356 30.9446 37.716 31.0851 37.8566C31.2257 37.9971 31.306 38.198 31.306 38.439C31.306 38.6398 31.2659 38.8205 31.1655 39.0214C31.0651 39.2222 30.9446 39.4029 30.7839 39.5435C30.6634 39.664 30.5228 39.7443 30.3822 39.8247C30.2417 39.8849 30.081 39.9251 29.9404 39.9251C29.6994 39.9251 29.5187 39.8448 29.3781 39.7042C29.2375 39.5636 29.1572 39.3628 29.1572 39.1218C29.1572 38.9209 29.1973 38.7402 29.2978 38.5394C29.3982 38.3385 29.5187 38.1578 29.6793 38.0172C29.7998 37.8967 29.9404 37.8164 30.081 37.7361C30.2216 37.6758 30.3622 37.6356 30.5027 37.6356ZM30.5228 37.7361C30.4023 37.7361 30.2818 37.7762 30.1814 37.8365C30.081 37.9168 29.9806 38.0172 29.8802 38.1779C29.7597 38.3586 29.6793 38.5394 29.6191 38.7603C29.5588 38.9812 29.5187 39.1619 29.5187 39.3226C29.5187 39.4632 29.5588 39.5837 29.6191 39.6841C29.6994 39.7644 29.7797 39.8247 29.9002 39.8247C30.0207 39.8247 30.1212 39.7845 30.2417 39.7042C30.3421 39.6239 30.4425 39.5234 30.5429 39.3628C30.6634 39.182 30.7437 39.0013 30.8241 38.7804C30.8843 38.5595 30.9245 38.3787 30.9245 38.218C30.9245 38.0775 30.8843 37.957 30.8241 37.8566C30.7437 37.7762 30.6433 37.7361 30.5228 37.7361ZM28.4342 37.9369L28.6752 37.1135C28.6752 37.0934 28.6953 37.0733 28.6953 37.0532C28.7354 36.9528 28.7354 36.8725 28.7354 36.8524C28.7354 36.7922 28.7153 36.7721 28.6752 36.7319C28.635 36.7118 28.5748 36.6917 28.4944 36.6917H28.4141V36.6114C28.5547 36.5913 28.6953 36.5712 28.8158 36.5512C28.9563 36.5311 29.0768 36.4909 29.2174 36.4708L28.3739 39.3226C28.3739 39.3427 28.3739 39.3427 28.3539 39.3628C28.3338 39.4632 28.3137 39.5234 28.3137 39.5837C28.3137 39.6038 28.3137 39.6439 28.3338 39.664C28.3539 39.6841 28.3739 39.6841 28.394 39.6841C28.4543 39.6841 28.4944 39.664 28.5547 39.6038C28.6149 39.5636 28.6953 39.4632 28.7957 39.3427L28.876 39.3829C28.7354 39.5636 28.6149 39.7042 28.4944 39.7845C28.394 39.8648 28.2735 39.905 28.1731 39.905C28.0928 39.905 28.0325 39.8849 27.9924 39.8448C27.9522 39.8046 27.9321 39.7644 27.9321 39.6841C27.9321 39.6439 27.9522 39.5435 27.9924 39.4029C27.9924 39.3829 28.0124 39.3427 28.0124 39.3427L28.0526 39.1619C27.912 39.4029 27.7514 39.5837 27.5907 39.7243C27.41 39.8448 27.2493 39.905 27.0685 39.905C26.9079 39.905 26.8075 39.8648 26.7071 39.7644C26.6267 39.664 26.5866 39.5234 26.5866 39.3628C26.5866 39.2021 26.6267 39.0214 26.687 38.8406C26.7673 38.6599 26.8677 38.4791 26.9882 38.2984C27.1489 38.0975 27.3095 37.9369 27.5104 37.8164C27.6911 37.6959 27.8719 37.6356 28.0325 37.6356C28.153 37.6356 28.2334 37.6557 28.3137 37.716C28.3739 37.7762 28.4141 37.8566 28.4342 37.9369ZM27.3095 39.6841C27.41 39.6841 27.4903 39.6439 27.6108 39.5636C27.7112 39.4833 27.8116 39.3829 27.912 39.2423C28.0325 39.0615 28.153 38.8607 28.2334 38.6398C28.3137 38.4189 28.3539 38.2381 28.3539 38.0775C28.3539 37.9771 28.3338 37.8967 28.2735 37.8365C28.2334 37.7762 28.153 37.7561 28.0727 37.7561C27.9924 37.7561 27.8919 37.7762 27.8116 37.8365C27.7112 37.8967 27.6309 37.9771 27.5305 38.0775C27.3698 38.2582 27.2292 38.459 27.1288 38.68C27.0284 38.9009 26.9882 39.1017 26.9882 39.2824C26.9882 39.4029 27.0083 39.5034 27.0685 39.5837C27.1087 39.6439 27.189 39.6841 27.3095 39.6841ZM24.036 39.8849L24.5381 38.2783C24.5783 38.1779 24.5783 38.1176 24.5983 38.0775C24.5983 38.0373 24.6184 38.0172 24.6184 37.9971C24.6184 37.9369 24.5983 37.8967 24.5582 37.8766C24.518 37.8566 24.4377 37.8365 24.3373 37.8365H24.277V37.7762C24.4176 37.7561 24.5582 37.7561 24.6988 37.716C24.8393 37.6959 24.9598 37.6557 25.0803 37.6156L24.759 38.7201C25.0201 38.3385 25.241 38.0574 25.4418 37.8967C25.6427 37.716 25.8234 37.6356 26.0042 37.6356C26.1046 37.6356 26.1648 37.6557 26.2251 37.6959C26.2652 37.7361 26.3054 37.7963 26.3054 37.8766C26.3054 37.9168 26.3054 37.9771 26.2853 38.0373C26.2652 38.0975 26.2451 38.1779 26.2251 38.2582L25.9037 39.3427C25.9037 39.3427 25.9037 39.3628 25.8837 39.3829C25.8435 39.4632 25.8435 39.5435 25.8435 39.6038C25.8435 39.6439 25.8435 39.664 25.8636 39.6841C25.8836 39.7042 25.9037 39.7042 25.9238 39.7042C25.964 39.7042 26.0242 39.6841 26.0845 39.6239C26.1447 39.5837 26.2251 39.4833 26.3255 39.3628L26.4058 39.4029C26.2652 39.6038 26.1447 39.7243 26.0242 39.8046C25.9238 39.8849 25.8033 39.9251 25.7029 39.9251C25.6226 39.9251 25.5623 39.905 25.5222 39.8648C25.482 39.8247 25.4619 39.7644 25.4619 39.7042C25.4619 39.664 25.4619 39.6239 25.482 39.5636C25.5021 39.5034 25.5021 39.4431 25.5422 39.3628L25.8636 38.2984C25.8836 38.2381 25.9037 38.1779 25.9037 38.1176C25.9238 38.0574 25.9238 38.0172 25.9238 37.9971C25.9238 37.957 25.9037 37.9168 25.8837 37.8967C25.8636 37.8766 25.8234 37.8566 25.7832 37.8566C25.6025 37.8566 25.3615 38.0574 25.0602 38.459C24.759 38.8607 24.5381 39.3427 24.3975 39.8849H24.036ZM23.5942 39.3829L23.6544 39.4431C23.5139 39.6038 23.3532 39.7443 23.1725 39.8247C22.9917 39.905 22.831 39.9653 22.6503 39.9653C22.4294 39.9653 22.2486 39.905 22.1281 39.7644C22.0076 39.6439 21.9273 39.4632 21.9273 39.2423C21.9273 39.0414 21.9675 38.8406 22.0679 38.6398C22.1683 38.439 22.3089 38.2582 22.4896 38.0775C22.6503 37.9369 22.7909 37.8365 22.9515 37.7561C23.1122 37.6959 23.2528 37.6557 23.4335 37.6557C23.5741 37.6557 23.6946 37.6959 23.7749 37.7561C23.8553 37.8164 23.8954 37.9168 23.8954 38.0373C23.8954 38.2582 23.7549 38.459 23.4938 38.6197C23.2126 38.7804 22.8511 38.8607 22.3892 38.9009C22.3691 38.941 22.3691 38.9611 22.3691 39.0013C22.3691 39.0414 22.3691 39.0816 22.3691 39.1419C22.3691 39.3226 22.4093 39.4833 22.5097 39.5837C22.6101 39.6841 22.7306 39.7444 22.8913 39.7444C23.0118 39.7444 23.1323 39.7243 23.2528 39.664C23.3532 39.5837 23.4737 39.4833 23.5942 39.3829ZM22.4093 38.7804C22.7507 38.7603 23.0319 38.6599 23.2528 38.5193C23.4737 38.3586 23.5942 38.198 23.5942 37.9971C23.5942 37.9168 23.5741 37.8766 23.5339 37.8365C23.4938 37.7963 23.4335 37.7762 23.3532 37.7762C23.1725 37.7762 22.9917 37.8766 22.831 38.0574C22.6302 38.218 22.5097 38.459 22.4093 38.7804ZM20.5617 39.9452C20.5416 39.6038 20.5215 39.2824 20.4813 38.9812C20.4412 38.68 20.401 38.439 20.3608 38.218C20.3006 37.957 20.2002 37.8365 20.0797 37.8365C20.0596 37.8365 20.0596 37.8365 20.0395 37.8365C20.0194 37.8365 19.9993 37.8365 19.9592 37.8365L19.9391 37.7762L20.5617 37.6156C20.642 37.7561 20.7022 37.977 20.7424 38.2984C20.8027 38.6197 20.8428 39.0414 20.8629 39.5234C21.4252 38.7603 21.6863 38.2984 21.6863 38.1377C21.6863 38.0775 21.6461 38.0172 21.5658 37.957C21.4855 37.8967 21.4453 37.8365 21.4453 37.7762C21.4453 37.7361 21.4654 37.6959 21.5056 37.6557C21.5457 37.6356 21.5859 37.6156 21.6461 37.6156C21.7265 37.6156 21.7867 37.6356 21.847 37.6959C21.8871 37.7561 21.9072 37.8164 21.9072 37.9168C21.9072 38.0775 21.8269 38.2984 21.6863 38.5595C21.5257 38.8406 21.2445 39.2423 20.8428 39.7644C20.5617 40.146 20.3006 40.4272 20.0596 40.6079C19.8387 40.8087 19.6379 40.9092 19.4772 40.9092C19.4169 40.9092 19.3567 40.8891 19.3165 40.8489C19.2764 40.8087 19.2563 40.7686 19.2563 40.7083C19.2563 40.6682 19.2764 40.628 19.3165 40.5878C19.3567 40.5477 19.3969 40.5276 19.4571 40.5276C19.5174 40.5276 19.5575 40.5477 19.6178 40.5878C19.678 40.628 19.7182 40.6481 19.7584 40.6481C19.8186 40.6481 19.919 40.5878 20.0395 40.4673C20.16 40.4071 20.3408 40.2063 20.5617 39.9452ZM17.9107 38.2783C17.9107 38.2783 17.9107 38.2582 17.9308 38.2381C18.473 36.3905 17.1877 40.7083 17.9107 38.2783ZM15.5811 39.8849L16.0832 38.2783C16.1233 38.1779 16.1233 38.1176 16.1434 38.0775C16.1434 38.0373 16.1635 38.0172 16.1635 37.9971C16.1635 37.9369 16.1434 37.8967 16.1033 37.8766C16.0631 37.8566 15.9828 37.8365 15.8823 37.8365H15.8422V37.7762C15.9828 37.7561 16.1233 37.7561 16.2639 37.716C16.4045 37.6959 16.525 37.6557 16.6455 37.6156L16.3442 38.5795C16.5451 38.218 16.7258 37.9771 16.8664 37.8365C17.007 37.6959 17.1476 37.6156 17.2881 37.6156C17.3484 37.6156 17.4086 37.6356 17.4488 37.6758C17.489 37.716 17.5091 37.7762 17.5091 37.8365C17.5091 37.8967 17.489 37.957 17.4488 37.9971C17.4086 38.0373 17.3685 38.0574 17.3082 38.0574C17.2279 38.0574 17.1676 38.0373 17.1275 37.9771C17.0873 37.9168 17.0472 37.8967 17.0271 37.8967C16.9066 37.8967 16.7459 38.0775 16.525 38.459C16.3242 38.8205 16.1233 39.2824 15.9627 39.8448H15.5811V39.8849ZM14.7979 37.8164H14.4364L14.4565 37.7361C14.6171 37.716 14.7778 37.6557 14.9384 37.5352C15.079 37.4147 15.2196 37.2741 15.2999 37.0934H15.4004L15.2196 37.6959H15.6012L15.5811 37.8164H15.1794L14.7175 39.3427C14.6974 39.4029 14.6774 39.4632 14.6774 39.5034C14.6573 39.5435 14.6573 39.5837 14.6573 39.6038C14.6573 39.6239 14.6573 39.664 14.6774 39.6841C14.6974 39.7042 14.7175 39.7042 14.7376 39.7042C14.7778 39.7042 14.838 39.6841 14.8983 39.6239C14.9585 39.5837 15.0389 39.4833 15.1192 39.3628L15.1995 39.4029C15.0589 39.6038 14.9184 39.7243 14.8179 39.8046C14.7175 39.8849 14.597 39.9251 14.4966 39.9251C14.4163 39.9251 14.356 39.905 14.3159 39.8648C14.2757 39.8247 14.2556 39.7644 14.2556 39.7042C14.2556 39.664 14.2556 39.6239 14.2757 39.5636C14.2958 39.5034 14.2958 39.4431 14.336 39.3628L14.7979 37.8164ZM12.167 39.9251L12.2875 39.2021H12.3477C12.3678 39.4029 12.4281 39.5636 12.5285 39.664C12.6289 39.7845 12.7494 39.8247 12.9101 39.8247C13.0306 39.8247 13.131 39.7845 13.2314 39.7042C13.3117 39.6239 13.3519 39.5234 13.3519 39.4029C13.3519 39.2624 13.2515 39.0816 13.0707 38.8808C13.0707 38.8607 13.0506 38.8607 13.0506 38.8607C13.0306 38.8406 13.0306 38.8406 13.0105 38.8004C12.7896 38.5394 12.6691 38.3385 12.6691 38.1578C12.6691 38.0172 12.7293 37.8766 12.8498 37.7762C12.9703 37.6758 13.1109 37.6156 13.2916 37.6156C13.3921 37.6156 13.4925 37.6356 13.5929 37.6758C13.6933 37.716 13.7535 37.7361 13.7736 37.7361C13.8138 37.7361 13.854 37.7361 13.874 37.716C13.8941 37.6959 13.9142 37.6758 13.9343 37.6356H13.9945L13.8941 38.3185H13.8339C13.8339 38.3185 13.8339 38.2984 13.8339 38.2783C13.8339 38.2582 13.8339 38.2582 13.8339 38.2582C13.8339 38.1176 13.7937 37.9971 13.6933 37.8967C13.5929 37.7963 13.4724 37.7361 13.3519 37.7361C13.2515 37.7361 13.1511 37.7561 13.0908 37.8164C13.0306 37.8766 12.9904 37.9369 12.9904 38.0373C12.9904 38.1578 13.0908 38.3385 13.2716 38.5193L13.2916 38.5394C13.4724 38.7201 13.5728 38.8607 13.633 38.9611C13.6933 39.0615 13.7134 39.1619 13.7134 39.2824C13.7134 39.4632 13.6331 39.6239 13.4925 39.7444C13.3519 39.8648 13.1511 39.9251 12.9301 39.9251C12.8498 39.9251 12.7293 39.905 12.6088 39.8648C12.4883 39.8247 12.408 39.8046 12.3879 39.8046C12.3678 39.8046 12.3277 39.8046 12.3076 39.8247C12.2875 39.8448 12.2473 39.8648 12.2473 39.905H12.167V39.9251ZM9.67671 39.8849L10.1788 38.2783C10.2189 38.1779 10.2189 38.1176 10.239 38.0775C10.239 38.0373 10.2591 38.0172 10.2591 37.9971C10.2591 37.9369 10.239 37.8967 10.1989 37.8766C10.1587 37.8566 10.0784 37.8365 9.97795 37.8365H9.93779V37.7762C10.0784 37.7561 10.2189 37.7561 10.3595 37.716C10.5001 37.6959 10.6206 37.6557 10.7411 37.6156L10.4198 38.7201C10.6809 38.3385 10.9018 38.0574 11.1026 37.8967C11.3034 37.716 11.4842 37.6356 11.6649 37.6356C11.7653 37.6356 11.8256 37.6557 11.8858 37.6959C11.926 37.7361 11.9662 37.7963 11.9662 37.8766C11.9662 37.9168 11.9662 37.9771 11.9461 38.0373C11.926 38.0975 11.9059 38.1779 11.8858 38.2582L11.5645 39.3427C11.5645 39.3427 11.5645 39.3628 11.5444 39.3829C11.5043 39.4632 11.5043 39.5435 11.5043 39.6038C11.5043 39.6439 11.5043 39.664 11.5243 39.6841C11.5444 39.7042 11.5645 39.7042 11.5846 39.7042C11.6248 39.7042 11.685 39.6841 11.7453 39.6239C11.8055 39.5837 11.8858 39.4833 11.9862 39.3628L12.0666 39.4029C11.926 39.6038 11.8055 39.7243 11.685 39.8046C11.5846 39.8849 11.4641 39.9251 11.3637 39.9251C11.2833 39.9251 11.2231 39.905 11.1829 39.8648C11.1428 39.8247 11.1227 39.7644 11.1227 39.7042C11.1227 39.664 11.1227 39.6239 11.1428 39.5636C11.1628 39.5034 11.1628 39.4431 11.203 39.3628L11.5243 38.2984C11.5444 38.2381 11.5645 38.1779 11.5645 38.1176C11.5846 38.0574 11.5846 38.0172 11.5846 37.9971C11.5846 37.957 11.5645 37.9168 11.5444 37.8967C11.5243 37.8766 11.4842 37.8566 11.444 37.8566C11.2633 37.8566 11.0223 38.0574 10.721 38.459C10.4198 38.8607 10.2189 39.3427 10.0583 39.8849H9.67671ZM8.65248 37.6356C8.89347 37.6356 9.0943 37.716 9.23488 37.8566C9.37546 37.9971 9.4558 38.198 9.4558 38.439C9.4558 38.6398 9.41563 38.8205 9.31522 39.0214C9.2148 39.2222 9.0943 39.4029 8.93364 39.5435C8.81314 39.664 8.67256 39.7443 8.53198 39.8247C8.3914 39.8849 8.23074 39.9251 8.09016 39.9251C7.84916 39.9251 7.66841 39.8448 7.52783 39.7042C7.38725 39.5636 7.30692 39.3628 7.30692 39.1218C7.30692 38.9209 7.34709 38.7402 7.4475 38.5394C7.54792 38.3385 7.66841 38.1578 7.82908 38.0172C7.94957 37.8967 8.09016 37.8164 8.23074 37.7361C8.35123 37.6758 8.5119 37.6356 8.65248 37.6356ZM8.67256 37.7361C8.55206 37.7361 8.43157 37.7762 8.33115 37.8365C8.23074 37.9168 8.13032 38.0172 8.02991 38.1779C7.90941 38.3586 7.82908 38.5394 7.76883 38.7603C7.70858 38.9812 7.66841 39.1619 7.66841 39.3226C7.66841 39.4632 7.70858 39.5837 7.76883 39.6841C7.84916 39.7644 7.92949 39.8247 8.04999 39.8247C8.17049 39.8247 8.2709 39.7845 8.3914 39.7042C8.49181 39.6239 8.59223 39.5234 8.69264 39.3628C8.81314 39.182 8.89347 39.0013 8.97381 38.7804C9.03405 38.5595 9.07422 38.3787 9.07422 38.218C9.07422 38.0775 9.03405 37.957 8.95372 37.8566C8.89347 37.7762 8.79306 37.7361 8.67256 37.7361ZM6.80485 39.1017L6.88518 39.1419C6.70443 39.4029 6.48352 39.6038 6.24252 39.7444C5.98145 39.8849 5.72037 39.9452 5.39904 39.9452C4.99738 39.9452 4.67605 39.8247 4.43506 39.5837C4.19406 39.3427 4.07357 39.0414 4.07357 38.6599C4.07357 38.439 4.11373 38.2381 4.19406 38.0373C4.27439 37.8365 4.39489 37.6356 4.53547 37.4549C4.75639 37.1737 5.03755 36.9528 5.33879 36.7721C5.66012 36.6114 5.96136 36.5311 6.28269 36.5311C6.44335 36.5311 6.6241 36.5512 6.78476 36.5913C6.96551 36.6315 7.04584 36.6516 7.06592 36.6516C7.10609 36.6516 7.14626 36.6315 7.18642 36.6315C7.22659 36.6114 7.26675 36.5712 7.30692 36.5311H7.36717L7.16634 37.5352H7.10609C7.10609 37.5151 7.10609 37.4951 7.10609 37.475C7.10609 37.4549 7.10609 37.4147 7.10609 37.4147C7.10609 37.1737 7.02576 36.993 6.88518 36.8725C6.7446 36.752 6.54377 36.6917 6.28269 36.6917C6.08186 36.6917 5.90111 36.7319 5.72037 36.8323C5.53962 36.9327 5.35887 37.0733 5.19821 37.2541C5.01746 37.4549 4.87688 37.6959 4.75639 37.957C4.65597 38.218 4.59572 38.4791 4.59572 38.7201C4.59572 39.0214 4.69614 39.2624 4.87688 39.4431C5.05763 39.6239 5.29862 39.7042 5.59987 39.7042C5.82078 39.7042 6.02161 39.6439 6.22244 39.5435C6.44335 39.4632 6.6241 39.3025 6.80485 39.1017ZM2.98909 38.4189L3.06942 38.439C2.94892 38.8607 2.84851 39.3829 2.72801 39.9853C2.60751 40.628 2.46693 40.9493 2.30626 40.9493C2.24602 40.9493 2.18577 40.9292 2.16568 40.8891C2.1456 40.8489 2.12552 40.7887 2.12552 40.7083C2.12552 40.628 2.24602 40.3268 2.44685 39.8046C2.66776 39.3025 2.8485 38.8406 2.98909 38.4189ZM3.49116 37.7561C3.49116 37.8164 3.47108 37.8766 3.41083 37.9168C3.37066 37.957 3.31041 37.9771 3.23008 37.9771C3.16983 37.9771 3.10958 37.957 3.04933 37.9168C3.00917 37.8766 2.969 37.8164 2.969 37.7561C2.969 37.6959 2.98909 37.6356 3.04933 37.5955C3.0895 37.5553 3.14975 37.5352 3.23008 37.5352C3.29033 37.5352 3.35058 37.5553 3.41083 37.5955C3.45099 37.6356 3.49116 37.6959 3.49116 37.7561Z" fill="#1B1B19"/>
<path d="M19.7181 37.6559L19.216 39.3027V39.3228C19.1759 39.4433 19.1558 39.5236 19.1558 39.5638C19.1558 39.6039 19.1558 39.624 19.1759 39.6441C19.1959 39.6642 19.216 39.6642 19.2361 39.6642C19.2763 39.6642 19.3365 39.6441 19.3968 39.5839C19.457 39.5437 19.5374 39.4433 19.6378 39.3228L19.7181 39.3629C19.5775 39.5437 19.457 39.6843 19.3365 39.7646C19.2361 39.8449 19.1156 39.8851 19.0152 39.8851C18.9349 39.8851 18.8746 39.865 18.8345 39.8248C18.7943 39.7847 18.7742 39.7244 18.7742 39.6642C18.7742 39.624 18.7742 39.5839 18.7943 39.5236C18.8144 39.4634 18.8144 39.4031 18.8345 39.3228L18.9951 38.7805C18.734 39.1621 18.5131 39.4433 18.3123 39.6039C18.1115 39.7847 17.9307 39.865 17.75 39.865C17.6496 39.865 17.5893 39.8449 17.5291 39.8048C17.4688 39.7646 17.4487 39.7043 17.4487 39.6039C17.4487 39.5638 17.4487 39.5035 17.4688 39.4433C17.4889 39.383 17.509 39.3228 17.5291 39.2424L17.8504 38.2182C17.8504 38.1981 17.8504 38.1981 17.8705 38.178C17.9106 38.0575 17.9307 37.9772 17.9307 37.9371C17.9307 37.7563 17.7299 38.0977 17.6295 38.1981L17.509 38.0977C17.6094 37.9772 17.8705 37.676 18.0111 37.6559C18.1516 37.6358 18.4529 37.6559 18.4127 37.7563L17.9106 39.1822C17.8906 39.2625 17.8705 39.3228 17.8504 39.383C17.8504 39.4232 17.8303 39.4634 17.8303 39.5035C17.8303 39.5437 17.8504 39.5839 17.8705 39.6039C17.8906 39.624 17.9307 39.6441 17.9709 39.6441C18.1516 39.6441 18.3926 39.4433 18.6939 39.0416C18.9951 38.64 19.216 38.158 19.3566 37.6157H19.7181V37.6559Z" fill="#1B1B19"/>
<path d="M42.6531 3.29359V3.19318C42.7937 3.19318 42.8941 3.15301 42.9343 3.13293C42.9744 3.09276 42.9945 3.01243 42.9945 2.91202V1.10455C42.9945 0.984052 42.9744 0.923803 42.9343 0.883637C42.8941 0.843471 42.7937 0.823388 42.6531 0.823388V0.722973H43.2958H43.9384V0.823388C43.7978 0.843471 43.7175 0.863554 43.6573 0.883637C43.6171 0.923803 43.597 1.00414 43.597 1.10455V2.95218C43.597 3.03251 43.6171 3.09276 43.6573 3.11285C43.6974 3.15301 43.7577 3.17309 43.8179 3.17309H43.8782C44.1393 3.17309 44.3401 3.11284 44.5007 2.99235C44.6614 2.87185 44.7819 2.6911 44.9024 2.43002H45.0229L44.9426 2.85177L44.8622 3.29359H43.597H42.6531ZM40.9059 1.48613L40.5444 2.38986H41.2674L40.9059 1.48613ZM40.1628 2.91202L41.0666 0.662725H41.1268H41.1871L42.131 2.91202C42.1711 3.03251 42.2314 3.11284 42.2715 3.13293C42.3117 3.17309 42.372 3.19318 42.4523 3.19318V3.29359H41.8297H41.2071V3.19318C41.3678 3.19318 41.4682 3.17309 41.5084 3.13293C41.5485 3.09276 41.5485 3.01243 41.4883 2.91202L41.3477 2.55052H40.5042L40.4239 2.75135C40.3436 2.9321 40.3235 3.0526 40.3637 3.11285C40.4038 3.17309 40.5042 3.19318 40.685 3.19318V3.29359H40.2833H39.8817V3.19318C39.962 3.19318 40.0222 3.17309 40.0825 3.13293C40.0825 3.11284 40.1227 3.03251 40.1628 2.91202ZM38.757 2.91202V1.10455C38.757 0.984052 38.7369 0.923803 38.6968 0.883637C38.6566 0.843471 38.5562 0.823388 38.4156 0.823388V0.722973H39.0783H39.7411V0.823388C39.6005 0.843471 39.5001 0.863554 39.4599 0.883637C39.4198 0.923803 39.3997 1.00414 39.3997 1.10455V2.91202C39.3997 3.03251 39.4198 3.09276 39.4599 3.13293C39.5001 3.17309 39.6005 3.19318 39.7411 3.19318V3.29359H39.0783H38.4156V3.19318C38.5562 3.19318 38.6566 3.15301 38.6968 3.13293C38.7369 3.09276 38.757 3.03251 38.757 2.91202ZM36.6081 1.9882H36.7688C36.9696 1.9882 37.1102 1.94803 37.1905 1.84762C37.2709 1.76729 37.311 1.60662 37.311 1.38571C37.311 1.20496 37.2709 1.06438 37.1905 0.963969C37.1102 0.883637 36.9897 0.823388 36.8291 0.823388H36.809C36.7286 0.823388 36.6885 0.843471 36.6483 0.863554C36.6282 0.883637 36.6081 0.943886 36.6081 1.02422V1.9882ZM36.0057 2.91202V1.10455C36.0057 0.984052 35.9856 0.923803 35.9454 0.883637C35.9052 0.843471 35.8048 0.823388 35.6843 0.823388V0.722973H36.327H36.9295C37.2709 0.722973 37.552 0.783223 37.7328 0.90372C37.9135 1.02422 38.014 1.18488 38.014 1.40579C38.014 1.64679 37.9135 1.82754 37.7328 1.94803C37.6525 2.00828 37.552 2.04845 37.4315 2.06853L38.034 2.9321C38.1144 3.0526 38.1746 3.13293 38.2148 3.17309C38.2549 3.21326 38.2951 3.23334 38.3554 3.23334V3.33376H38.2349H37.5721L36.7889 2.14886H36.6684V2.95218C36.6684 3.07268 36.6885 3.13293 36.7286 3.17309C36.7688 3.21326 36.8692 3.23334 37.0098 3.23334V3.33376H36.3671H35.7245V3.23334C35.8651 3.23334 35.9454 3.19318 35.9856 3.17309C35.9856 3.09276 36.0057 3.03251 36.0057 2.91202ZM33.8969 1.48613L33.5355 2.38986H34.2584L33.8969 1.48613ZM33.1539 2.91202L34.0576 0.662725H34.1179H34.1781L35.122 2.91202C35.1823 3.03251 35.2224 3.11284 35.2626 3.13293C35.3027 3.17309 35.363 3.19318 35.4433 3.19318V3.29359H34.8208H34.1982V3.19318C34.3589 3.19318 34.4593 3.17309 34.4994 3.13293C34.5396 3.09276 34.5396 3.01243 34.4794 2.91202L34.3388 2.55052H33.4953L33.415 2.75135C33.3346 2.9321 33.3145 3.0526 33.3547 3.11285C33.3949 3.17309 33.4953 3.19318 33.676 3.19318V3.29359H33.2744H32.8727V3.19318C32.953 3.19318 33.0133 3.17309 33.0735 3.13293C33.0735 3.11284 33.1137 3.03251 33.1539 2.91202ZM32.4309 1.48613C32.3706 1.26521 32.2702 1.10455 32.1497 0.963969C32.0091 0.843471 31.8686 0.763139 31.7079 0.763139C31.5874 0.763139 31.487 0.803305 31.4067 0.863554C31.3263 0.923803 31.2862 1.02422 31.2862 1.12463C31.2862 1.22505 31.3263 1.32546 31.4067 1.40579C31.487 1.48613 31.6276 1.56646 31.8485 1.64679C32.1296 1.76729 32.3506 1.90787 32.4711 2.02837C32.5916 2.16895 32.6518 2.32961 32.6518 2.51036C32.6518 2.77144 32.5715 2.97226 32.3907 3.11285C32.21 3.25343 31.9891 3.33376 31.7079 3.33376C31.5472 3.33376 31.3665 3.29359 31.1657 3.23334C31.1054 3.21326 31.0653 3.21326 31.0251 3.21326C31.005 3.23334 30.9849 3.25343 30.9648 3.31367L30.9447 3.35384H30.8243V2.40994H30.9447C30.9849 2.65094 31.0853 2.85177 31.2259 3.01243C31.3665 3.15301 31.5472 3.23334 31.728 3.23334C31.8686 3.23334 31.9891 3.19318 32.0694 3.11285C32.1497 3.03251 32.21 2.9321 32.21 2.79152C32.21 2.6911 32.1698 2.59069 32.0895 2.51036C32.0091 2.43002 31.8485 2.34969 31.6276 2.24928C31.3665 2.12878 31.1657 2.00828 31.0452 1.8677C30.9247 1.72712 30.8644 1.56646 30.8644 1.38571C30.8644 1.14472 30.9448 0.963969 31.0853 0.843471C31.246 0.70289 31.4468 0.642642 31.7079 0.642642C31.8485 0.642642 32.0091 0.682808 32.1899 0.743056C32.2702 0.783222 32.3104 0.783222 32.3506 0.763139C32.3907 0.743056 32.4108 0.722974 32.4309 0.662725L32.451 0.622559H32.5514V1.44596H32.4309V1.48613ZM28.1934 3.29359V3.19318C28.334 3.19318 28.4143 3.15301 28.4745 3.13293C28.5147 3.09276 28.5348 3.01243 28.5348 2.91202V1.10455C28.5348 0.984052 28.5147 0.923803 28.4745 0.883637C28.4344 0.843471 28.334 0.823388 28.1934 0.823388V0.722973H29.1574H30.4025V1.10455V1.48613H30.3021C30.282 1.26521 30.2017 1.08447 30.0812 0.984052C29.9607 0.883637 29.7599 0.843471 29.5189 0.843471H29.3582C29.2779 0.843471 29.2377 0.863554 29.1975 0.883637C29.1775 0.90372 29.1574 0.963969 29.1574 1.0443V1.92795H29.2176C29.3984 1.92795 29.5189 1.88778 29.5992 1.80745C29.6795 1.72712 29.7398 1.56646 29.7599 1.36563H29.8603V2.00828V2.65094H29.7599C29.7398 2.43002 29.6795 2.28944 29.5992 2.18903C29.5189 2.1087 29.3783 2.04845 29.2176 2.04845H29.1574V2.97226C29.1574 3.0526 29.1775 3.11284 29.2176 3.13293C29.2578 3.17309 29.318 3.19318 29.3783 3.19318H29.4787C29.7398 3.19318 29.9607 3.13293 30.1214 3.03251C30.282 2.9321 30.4025 2.75135 30.5029 2.51036H30.6033L30.523 2.91202L30.4427 3.31367H29.1574L28.1934 3.29359ZM26.4261 1.9882H26.5667C26.7675 1.9882 26.9081 1.94803 26.9884 1.84762C27.0687 1.76729 27.1089 1.60662 27.1089 1.38571C27.1089 1.20496 27.0687 1.06438 26.9884 0.963969C26.9081 0.883637 26.7876 0.823388 26.6269 0.823388H26.6068C26.5265 0.823388 26.4863 0.843471 26.4462 0.863554C26.406 0.883637 26.406 0.943886 26.406 1.02422V1.9882H26.4261ZM25.8035 2.91202V1.10455C25.8035 0.984052 25.7834 0.923803 25.7433 0.883637C25.7031 0.843471 25.6027 0.823388 25.4621 0.823388V0.722973H26.1048H26.7073C27.0487 0.722973 27.3298 0.783223 27.5106 0.90372C27.6913 1.02422 27.7917 1.18488 27.7917 1.40579C27.7917 1.64679 27.6913 1.82754 27.4905 1.94803C27.4102 2.00828 27.3097 2.04845 27.1892 2.06853L27.7917 2.9321C27.8721 3.0526 27.9524 3.13293 27.9926 3.17309C28.0327 3.21326 28.0729 3.23334 28.1331 3.23334V3.33376H28.0126H27.3499L26.5667 2.14886H26.4462V2.95218C26.4462 3.07268 26.4663 3.13293 26.5064 3.17309C26.5466 3.21326 26.647 3.23334 26.7876 3.23334V3.33376H26.1449H25.5023V3.23334C25.6429 3.23334 25.7232 3.19318 25.7834 3.17309C25.7834 3.09276 25.8035 3.03251 25.8035 2.91202ZM24.0563 2.00828H24.1165C24.3174 2.00828 24.478 1.96812 24.5584 1.8677C24.6387 1.76729 24.6789 1.62671 24.6789 1.40579C24.6789 1.20496 24.6387 1.06438 24.5785 0.984052C24.5182 0.883637 24.3977 0.843471 24.2571 0.843471C24.1768 0.843471 24.1366 0.863554 24.0965 0.883637C24.0764 0.90372 24.0563 0.963969 24.0563 1.0443V2.00828ZM23.4337 2.91202V1.10455C23.4337 0.984052 23.4136 0.923803 23.3735 0.883637C23.3333 0.843471 23.2329 0.823388 23.0923 0.823388V0.722973H23.735H24.2973C24.6186 0.722973 24.8797 0.783223 25.0604 0.90372C25.2412 1.02422 25.3215 1.18488 25.3215 1.40579C25.3215 1.66687 25.2211 1.84762 25.0404 1.96812C24.8596 2.08861 24.5584 2.14886 24.1567 2.14886H24.0362V2.9321C24.0362 3.0526 24.0563 3.11285 24.0965 3.15301C24.1366 3.19318 24.237 3.21326 24.3776 3.21326V3.31367H23.735H23.0923V3.21326C23.2329 3.21326 23.3132 3.17309 23.3735 3.15301C23.4136 3.09276 23.4337 3.03251 23.4337 2.91202ZM19.9995 2.83168C19.9995 2.97226 20.0196 3.07268 20.0799 3.13293C20.12 3.17309 20.2205 3.21326 20.3811 3.21326V3.31367H19.9393H19.4975V3.21326C19.638 3.21326 19.7184 3.17309 19.7786 3.13293C19.8188 3.09276 19.8389 2.99235 19.8389 2.83168V1.20496C19.8389 1.06438 19.8188 0.963969 19.7786 0.90372C19.7385 0.863554 19.638 0.823388 19.4975 0.823388V0.722973H19.9795H20.4615L21.2447 2.53044L22.0078 0.722973H22.4898H22.9718V0.823388C22.8312 0.843471 22.7509 0.863554 22.6907 0.883637C22.6505 0.923803 22.6304 0.984052 22.6304 1.10455V2.91202C22.6304 3.03251 22.6505 3.09276 22.6907 3.13293C22.7308 3.17309 22.8312 3.19318 22.9718 3.19318V3.29359H22.3492H21.7267V3.19318C21.8673 3.19318 21.9476 3.15301 22.0078 3.13293C22.048 3.09276 22.0681 3.01243 22.0681 2.91202V0.984052L21.0639 3.29359H21.0037H20.9434L19.9995 1.06438V2.83168ZM16.9469 3.29359V3.19318C17.0875 3.19318 17.1678 3.15301 17.2281 3.13293C17.2683 3.09276 17.2883 3.01243 17.2883 2.91202V1.10455C17.2883 0.984052 17.2683 0.923803 17.2281 0.883637C17.1879 0.843471 17.0875 0.823388 16.9469 0.823388V0.722973H17.8908H19.136V1.10455V1.48613H19.0556C19.0356 1.26521 18.9552 1.08447 18.8347 0.984052C18.7142 0.883637 18.5134 0.843471 18.2724 0.843471H18.1117C18.0314 0.843471 17.9912 0.863554 17.9511 0.883637C17.931 0.90372 17.9109 0.963969 17.9109 1.0443V1.92795H17.9712C18.1519 1.92795 18.2724 1.88778 18.3527 1.80745C18.4331 1.72712 18.4933 1.56646 18.5134 1.36563H18.6138V2.00828V2.65094H18.5134C18.4933 2.43002 18.4331 2.28944 18.3527 2.18903C18.2724 2.1087 18.1318 2.04845 17.9712 2.04845H17.9109V2.97226C17.9109 3.0526 17.931 3.11284 17.9712 3.13293C18.0113 3.17309 18.0716 3.19318 18.1318 3.19318H18.2122C18.4732 3.19318 18.6942 3.13293 18.8548 3.03251C19.0155 2.9321 19.136 2.75135 19.2364 2.51036H19.3368L19.2565 2.91202L19.1761 3.31367H17.8908L16.9469 3.29359ZM14.4366 3.25343C14.6575 3.25343 14.8382 3.15301 14.9386 2.95218C15.0591 2.75135 15.0993 2.45011 15.0993 2.04845C15.0993 1.62671 15.0391 1.32546 14.9386 1.10455C14.8181 0.90372 14.6575 0.783222 14.4366 0.783222C14.2157 0.783222 14.0349 0.883637 13.9345 1.10455C13.814 1.30538 13.7537 1.62671 13.7537 2.04845C13.7537 2.45011 13.814 2.75135 13.9345 2.95218C14.0349 3.15301 14.2157 3.25343 14.4366 3.25343ZM14.4366 3.37392C14.0349 3.37392 13.7136 3.25343 13.4726 2.99235C13.2115 2.75135 13.091 2.43002 13.091 2.02837C13.091 1.62671 13.2115 1.2853 13.4726 1.0443C13.7136 0.783222 14.0349 0.662725 14.4366 0.662725C14.8382 0.662725 15.1596 0.783222 15.4005 1.0443C15.6616 1.30538 15.7821 1.62671 15.7821 2.02837C15.7821 2.40994 15.6616 2.73127 15.4005 2.99235C15.1596 3.25343 14.8382 3.37392 14.4366 3.37392ZM11.625 2.00828H11.6852C11.886 2.00828 12.0467 1.96812 12.127 1.8677C12.2074 1.76729 12.2475 1.62671 12.2475 1.40579C12.2475 1.20496 12.2074 1.06438 12.1471 0.984052C12.0869 0.883637 11.9664 0.843471 11.8258 0.843471C11.7454 0.843471 11.7053 0.863554 11.6651 0.883637C11.645 0.90372 11.625 0.963969 11.625 1.0443V2.00828ZM11.0225 2.91202V1.10455C11.0225 0.984052 11.0024 0.923803 10.9622 0.883637C10.922 0.843471 10.8216 0.823388 10.6811 0.823388V0.722973H11.3237H11.886C12.2274 0.722973 12.4684 0.783223 12.6492 0.90372C12.8299 1.02422 12.9103 1.18488 12.9103 1.40579C12.9103 1.66687 12.8098 1.84762 12.6291 1.96812C12.4484 2.08861 12.1471 2.14886 11.7454 2.14886H11.625V2.9321C11.625 3.0526 11.645 3.11285 11.6852 3.15301C11.7254 3.19318 11.8258 3.21326 11.9664 3.21326V3.31367H11.3237H10.6811V3.21326C10.8216 3.21326 10.902 3.17309 10.9622 3.15301C10.9823 3.09276 11.0225 3.03251 11.0225 2.91202ZM10.2392 2.36978C10.2392 2.71119 10.1589 2.95218 9.99823 3.13293C9.83757 3.29359 9.57649 3.37392 9.23508 3.37392C8.91375 3.37392 8.67276 3.29359 8.49201 3.13293C8.31126 2.97226 8.23093 2.73127 8.23093 2.43002V1.12463C8.23093 1.00413 8.21085 0.943886 8.17068 0.90372C8.13052 0.863554 8.05019 0.843471 7.92969 0.843471V0.743056H8.55226H9.17483V0.843471C9.03425 0.863554 8.95392 0.883637 8.89367 0.90372C8.8535 0.943886 8.83342 1.00413 8.83342 1.12463V2.47019C8.83342 2.73127 8.87359 2.91202 8.974 3.03251C9.05433 3.15301 9.19491 3.21326 9.39574 3.21326C9.63674 3.21326 9.7974 3.15301 9.9179 3.01243C10.0183 2.87185 10.0786 2.65094 10.0786 2.36978V1.22505C10.0786 1.08447 10.0585 0.984052 9.99823 0.923803C9.95807 0.883637 9.85765 0.843471 9.69699 0.843471V0.743056H10.1187H10.5405V0.843471C10.42 0.843471 10.3396 0.883637 10.2995 0.923803C10.2593 0.963969 10.2392 1.06438 10.2392 1.22505V2.36978ZM6.14231 1.9882H6.28289C6.48372 1.9882 6.6243 1.94803 6.70463 1.84762C6.78496 1.76729 6.82513 1.60662 6.82513 1.38571C6.82513 1.20496 6.78496 1.06438 6.70463 0.963969C6.6243 0.883637 6.5038 0.823388 6.34314 0.823388H6.32305C6.24272 0.823388 6.20255 0.843471 6.16239 0.863554C6.14231 0.883637 6.12222 0.943886 6.12222 1.02422L6.14231 1.9882ZM5.53982 2.91202V1.10455C5.53982 0.984052 5.51973 0.923803 5.47957 0.883637C5.4394 0.843471 5.33899 0.823388 5.19841 0.823388V0.722973H5.84106H6.44355C6.78496 0.722973 7.06612 0.783223 7.24687 0.90372C7.42761 1.02422 7.52803 1.18488 7.52803 1.40579C7.52803 1.64679 7.42761 1.82754 7.22678 1.94803C7.14645 2.00828 7.04604 2.04845 6.92554 2.06853L7.52803 2.9321C7.60836 3.0526 7.68869 3.13293 7.72886 3.17309C7.76902 3.21326 7.80919 3.23334 7.86944 3.23334V3.33376H7.74894H7.08621L6.30297 2.14886H6.18247V2.95218C6.18247 3.07268 6.20255 3.13293 6.24272 3.17309C6.28289 3.21326 6.3833 3.23334 6.52388 3.23334V3.33376H5.88123H5.19841V3.23334C5.33899 3.23334 5.41932 3.19318 5.47957 3.17309C5.49965 3.09276 5.53982 3.03251 5.53982 2.91202ZM3.65202 3.37392C3.25036 3.37392 2.90895 3.25343 2.64787 2.99235C2.38679 2.75135 2.2663 2.43002 2.2663 2.02837C2.2663 1.62671 2.38679 1.2853 2.64787 1.0443C2.90895 0.783222 3.23028 0.662725 3.63194 0.662725C3.7926 0.662725 3.99343 0.702891 4.21434 0.803305C4.31476 0.843471 4.37501 0.843471 4.41517 0.843471C4.45534 0.823388 4.4955 0.783223 4.51559 0.702891L4.53567 0.662725H4.63608V1.56646H4.53567C4.43526 1.32546 4.31476 1.14472 4.15409 1.00414C3.99343 0.863554 3.83277 0.783222 3.65202 0.783222C3.41102 0.783222 3.23028 0.883637 3.10978 1.10455C2.98928 1.30538 2.92903 1.62671 2.92903 2.04845C2.92903 2.45011 2.98928 2.75135 3.10978 2.95218C3.23028 3.15301 3.41102 3.25343 3.65202 3.25343C3.73235 3.25343 3.81268 3.23334 3.89302 3.23334C3.95326 3.21326 3.99343 3.19318 4.01351 3.15301C4.0336 3.11285 4.05368 3.0526 4.05368 3.01243V2.61077C4.05368 2.49027 4.0336 2.43002 3.97335 2.38986C3.93318 2.34969 3.81268 2.32961 3.65202 2.32961V2.22919H4.31476H4.99758V2.32961C4.857 2.34969 4.77667 2.36978 4.7365 2.40994C4.69633 2.45011 4.67625 2.51036 4.67625 2.63085V3.19318C4.39509 3.29359 4.05368 3.37392 3.65202 3.37392Z" fill="#273979"/>
<path d="M38.3955 27.4332L39.4398 24.8827C39.9017 25.204 40.3234 25.445 40.6849 25.6057C41.0464 25.7663 41.3878 25.8266 41.7092 25.8266C41.9301 25.8266 42.1108 25.7864 42.2313 25.7061C42.3518 25.6257 42.4321 25.5052 42.4321 25.3647C42.4321 25.1036 42.1108 24.9228 41.4682 24.7823C41.2673 24.7421 41.1067 24.7019 40.9862 24.6818C40.3034 24.5212 39.7812 24.2199 39.4197 23.7982C39.0582 23.3764 38.8775 22.8543 38.8775 22.2116C38.8775 21.2276 39.2189 20.4443 39.9218 19.8218C40.6247 19.1992 41.5485 18.8979 42.6731 18.8979C43.1953 18.8979 43.7175 18.9582 44.2195 19.0988C44.7216 19.2394 45.2438 19.4402 45.7458 19.7214L44.7417 22.1112C44.4204 21.8702 44.1191 21.7096 43.7978 21.569C43.4765 21.4485 43.1752 21.3882 42.874 21.3882C42.6531 21.3882 42.4723 21.4284 42.3518 21.5087C42.2313 21.5891 42.1711 21.6895 42.1711 21.8301C42.1711 22.0911 42.633 22.3121 43.5367 22.5129C43.6773 22.553 43.7978 22.5731 43.8781 22.5932C44.5007 22.7338 45.0028 23.015 45.3643 23.4568C45.7258 23.8986 45.9065 24.4208 45.9065 25.0433C45.9065 26.0475 45.545 26.8709 44.822 27.5135C44.099 28.1562 43.1351 28.4775 41.9702 28.4775C41.3678 28.4775 40.7653 28.3972 40.1829 28.2164C39.5804 28.0156 38.9779 27.7746 38.3955 27.4332Z" fill="#1B1B1A"/>
<path d="M37.3713 21.79C37.1303 21.2076 36.7889 20.7055 36.347 20.2637C35.8851 19.8218 35.363 19.4804 34.7605 19.2394C34.158 18.9984 33.5354 18.8779 32.8526 18.8779C32.1698 18.8779 31.5271 18.9984 30.9447 19.2394C30.3422 19.4804 29.8201 19.8218 29.3582 20.2637C28.9163 20.7055 28.5548 21.2076 28.3339 21.79C28.0929 22.3724 27.9925 22.9949 27.9925 23.6778C27.9925 24.3606 28.113 24.9831 28.3339 25.5455C28.5548 26.1279 28.9163 26.63 29.3582 27.0718C29.8201 27.5337 30.3422 27.8751 30.9447 28.096C31.5472 28.337 32.1698 28.4575 32.8526 28.4575C33.5153 28.4575 34.158 28.337 34.7605 28.096C35.363 27.855 35.8851 27.5136 36.347 27.0718C36.8089 26.6099 37.1503 26.1078 37.3913 25.5254C37.6323 24.943 37.7528 24.3204 37.7528 23.6577C37.7127 22.9949 37.5922 22.3724 37.3713 21.79ZM33.9572 24.9229C33.676 25.2442 33.3145 25.3848 32.8526 25.3848C32.3907 25.3848 32.0091 25.2241 31.728 24.9229C31.4468 24.6016 31.3062 24.1999 31.3062 23.6778C31.3062 23.1556 31.4468 22.7339 31.728 22.4125C32.0091 22.0912 32.3907 21.9305 32.8526 21.9305C33.3145 21.9305 33.676 22.0912 33.9572 22.4125C34.2383 22.7339 34.3789 23.1556 34.3789 23.6778C34.3789 24.1798 34.2383 24.6016 33.9572 24.9229Z" fill="#1B1B1A"/>
<path d="M18.5335 28.4374V18.8779H21.7468V22.9548L23.9157 18.8779H27.8118L24.9199 23.5974L28.2135 28.4374H24.0563L21.7468 24.4409V28.4374H18.5335Z" fill="#1B1B1A"/>
<path d="M12.0869 21.79C11.8459 21.2076 11.5045 20.7055 11.0627 20.2637C10.6008 19.8218 10.0786 19.4804 9.47615 19.2394C8.87366 18.9984 8.25109 18.8779 7.56826 18.8779C6.88544 18.8779 6.24279 18.9984 5.66038 19.2394C5.0579 19.4804 4.53574 19.8218 4.07383 20.2637C3.63201 20.7055 3.27051 21.2076 3.0496 21.79C2.80861 22.3724 2.70819 22.9949 2.70819 23.6778C2.70819 24.3606 2.82869 24.9831 3.0496 25.5455C3.2906 26.1078 3.63201 26.63 4.07383 27.0718C4.53574 27.5337 5.0579 27.8751 5.66038 28.096C6.26287 28.337 6.88544 28.4575 7.56826 28.4575C8.231 28.4575 8.87366 28.337 9.47615 28.096C10.0786 27.855 10.6008 27.5136 11.0627 27.0718C11.5246 26.6099 11.866 26.1078 12.107 25.5254C12.348 24.9631 12.4685 24.3204 12.4685 23.6577C12.4484 22.9949 12.3279 22.3724 12.0869 21.79ZM8.69291 24.9229C8.41175 25.2442 8.05026 25.3848 7.58835 25.3848C7.12644 25.3848 6.76495 25.2241 6.4637 24.9229C6.18254 24.6016 6.04196 24.1999 6.04196 23.6778C6.04196 23.1556 6.18254 22.7339 6.4637 22.4125C6.74486 22.0912 7.12644 21.9305 7.58835 21.9305C8.05026 21.9305 8.41175 22.0912 8.69291 22.4125C8.97407 22.7339 9.11465 23.1556 9.11465 23.6778C9.11465 24.1798 8.97407 24.6016 8.69291 24.9229Z" fill="#1B1B1A"/>
<path d="M2.70819 13.5561V15.946L19.618 9.33869L33.7765 15.9058H45.9066L26.2655 7.22998H18.1319L2.70819 13.5561Z" fill="#2A3C7F"/>
<path d="M17.0074 18.8779H13.7942V28.4374H17.0074V18.8779Z" fill="#1B1B1A"/>
<path d="M44.26 7.22998C43.3361 7.22998 42.5931 7.97305 42.5931 8.89687C42.5931 9.82068 43.3361 10.5638 44.26 10.5638C45.1838 10.5638 45.9268 9.82068 45.9268 8.89687C45.9068 7.97305 45.1637 7.22998 44.26 7.22998ZM44.26 10.4232C43.4165 10.4232 42.7136 9.74035 42.7136 8.87678C42.7136 8.0333 43.3964 7.3304 44.26 7.3304C45.1034 7.3304 45.8064 8.01322 45.8064 8.87678C45.8064 9.74035 45.1034 10.4232 44.26 10.4232Z" fill="#1F130E"/>
<path d="M43.5367 9.80063V7.99316H44.2999C44.5007 7.99316 44.6413 8.01325 44.7216 8.03333C44.802 8.0735 44.8823 8.11366 44.9425 8.21408C45.0028 8.29441 45.0229 8.39482 45.0229 8.49524C45.0229 8.63582 44.9827 8.73623 44.9024 8.83665C44.8221 8.91698 44.7016 8.97723 44.5409 8.99731C44.6212 9.03748 44.6815 9.09773 44.7417 9.15798C44.802 9.21822 44.8622 9.31864 44.9425 9.45922L45.1635 9.82071H44.7216L44.4606 9.41905C44.3601 9.27847 44.2999 9.19814 44.2597 9.15798C44.2196 9.11781 44.1794 9.09773 44.1593 9.07764C44.1191 9.05756 44.0589 9.05756 43.9786 9.05756H43.8982V9.82071H43.5367V9.80063ZM43.8982 8.75632H44.1593C44.3401 8.75632 44.4405 8.75632 44.4806 8.73623C44.5208 8.71615 44.561 8.69607 44.5811 8.6559C44.6011 8.61574 44.6212 8.57557 44.6212 8.51532C44.6212 8.45507 44.6011 8.41491 44.5811 8.37474C44.5409 8.33457 44.5007 8.31449 44.4405 8.29441C44.4204 8.29441 44.32 8.29441 44.1794 8.29441H43.8982V8.75632Z" fill="#1F130E"/>
<path opacity="0.5" d="M19.6177 9.33874L14.6773 11.2667L12.9502 9.35882L16.6856 7.83252L19.6177 9.33874Z" fill="url(#paint0_linear_188_111)"/>
<path d="M45.9869 31.3896H2.64789V34.6029H45.9869V31.3896Z" fill="#1B1B1A"/>
<defs>
<linearGradient id="paint0_linear_188_111" x1="15.4293" y1="10.3495" x2="16.8278" y2="8.71203" gradientUnits="userSpaceOnUse">
<stop stop-color="#1C1C1B" stop-opacity="0"/>
<stop offset="0.8744" stop-color="#1C1C1B"/>
</linearGradient>
</defs>
</svg>
