<svg width="51" height="38" viewBox="0 0 51 38" fill="none" xmlns="http://www.w3.org/2000/svg">
<path d="M50.9335 31.0874H0.937378V37.4956H50.9335V31.0874Z" fill="black"/>
<path fill-rule="evenodd" clip-rule="evenodd" d="M50.9123 22.2088L42.0102 21.8109L38.5351 18.8023L34.7615 18.9636L32.861 21.8109C32.861 21.8109 31.3208 19.4095 29.6227 18.9361C27.1664 18.25 24.2711 19.4095 24.2711 19.4095L23.043 19.1865L20.055 21.8109L16.4495 18.7852L11.7532 19.1865H6.84755L3.31413 18.6411L0.912781 20.0785V9.44391L20.4461 1.80762L36.8713 9.39932L50.9123 10.0511V22.2088Z" fill="#FFED00"/>
<path fill-rule="evenodd" clip-rule="evenodd" d="M18.4914 21.8145C18.4914 22.4251 18.3103 23.0221 17.9711 23.5298C17.6318 24.0375 17.1496 24.4333 16.5855 24.6669C16.0213 24.9006 15.4005 24.9618 14.8016 24.8426C14.2027 24.7235 13.6526 24.4295 13.2208 23.9977C12.789 23.5659 12.495 23.0157 12.3758 22.4168C12.2567 21.8179 12.3178 21.1971 12.5515 20.633C12.7852 20.0688 13.1809 19.5866 13.6887 19.2474C14.1964 18.9081 14.7933 18.7271 15.404 18.7271C16.2228 18.7271 17.0081 19.0523 17.5871 19.6313C18.1661 20.2104 18.4914 20.9957 18.4914 21.8145Z" fill="#FFED00"/>
<path fill-rule="evenodd" clip-rule="evenodd" d="M31.3727 21.8145C31.3727 22.4251 31.1916 23.0221 30.8524 23.5298C30.5131 24.0375 30.0309 24.4333 29.4668 24.6669C28.9026 24.9006 28.2818 24.9618 27.6829 24.8426C27.084 24.7235 26.5339 24.4295 26.1021 23.9977C25.6703 23.5659 25.3762 23.0157 25.2571 22.4168C25.138 21.8179 25.1991 21.1971 25.4328 20.633C25.6665 20.0688 26.0622 19.5866 26.5699 19.2474C27.0777 18.9081 27.6746 18.7271 28.2852 18.7271C29.1041 18.7271 29.8894 19.0523 30.4684 19.6313C31.0474 20.2104 31.3727 20.9957 31.3727 21.8145Z" fill="#FFED00"/>
<path fill-rule="evenodd" clip-rule="evenodd" d="M40.6144 21.8145C40.6144 22.4251 40.4333 23.0221 40.0941 23.5298C39.7548 24.0375 39.2726 24.4333 38.7085 24.6669C38.1443 24.9006 37.5235 24.9618 36.9246 24.8426C36.3257 24.7235 35.7756 24.4295 35.3438 23.9977C34.912 23.5659 34.6179 23.0157 34.4988 22.4168C34.3797 21.8179 34.4408 21.1971 34.6745 20.633C34.9082 20.0688 35.3039 19.5866 35.8116 19.2474C36.3194 18.9081 36.9163 18.7271 37.5269 18.7271C38.3458 18.7271 39.1311 19.0523 39.7101 19.6313C40.2891 20.2104 40.6144 20.9957 40.6144 21.8145Z" fill="#FFED00"/>
<path fill-rule="evenodd" clip-rule="evenodd" d="M46.4082 19.3618C45.5894 19.3618 44.8041 19.6871 44.2251 20.2661C43.6461 20.8451 43.3208 21.6304 43.3208 22.4493H49.4957C49.4957 21.6304 49.1704 20.8451 48.5914 20.2661C48.0124 19.6871 47.2271 19.3618 46.4082 19.3618Z" fill="#FFED00"/>
<path d="M4.9987 19.9518C4.98154 19.4989 4.74827 19.0324 3.95239 19.0324C3.26629 19.0324 2.9404 19.4681 2.9404 19.89C2.9404 20.4355 3.5819 20.7305 4.3915 20.9638C5.7637 21.3377 7.24225 21.7425 7.25597 23.5812C7.28684 25.3411 5.8083 26.4629 4.01757 26.4629C2.6934 26.4629 0.899246 25.7768 0.744873 23.7185H2.80317C2.82607 24.0319 2.97128 24.3237 3.20746 24.531C3.44364 24.7383 3.75186 24.8445 4.0656 24.8265C4.70367 24.8265 5.24912 24.4046 5.23197 23.8282C5.23197 23.0975 4.5939 22.8951 3.0193 22.3497C1.8495 21.9758 0.916398 21.3377 0.899246 20.1061C0.899246 18.4252 2.31947 17.3823 3.9867 17.3823C5.13935 17.3823 6.8546 17.8969 7.02612 19.9518H4.9987Z" fill="black"/>
<path d="M8.25432 19.2109H6.83752V17.6466H8.25432V14.6724H10.2955V17.6466H11.7603V19.2109H10.2955V26.1989H8.25432V19.2109Z" fill="black"/>
<path d="M10.8542 21.9005C10.848 21.3009 10.9627 20.7061 11.1917 20.1519C11.4206 19.5976 11.7589 19.0952 12.1865 18.6747C12.614 18.2542 13.1219 17.9243 13.6799 17.7046C14.2379 17.485 14.8345 17.3801 15.4339 17.3962C16.0388 17.3796 16.6409 17.4844 17.2047 17.7043C17.7684 17.9243 18.2824 18.2551 18.7161 18.6771C19.1499 19.099 19.4947 19.6037 19.7301 20.1612C19.9655 20.7186 20.0868 21.3176 20.0868 21.9228C20.0868 22.5279 19.9655 23.127 19.7301 23.6844C19.4947 24.2419 19.1499 24.7465 18.7161 25.1685C18.2824 25.5905 17.7684 25.9213 17.2047 26.1412C16.6409 26.3612 16.0388 26.466 15.4339 26.4493C14.8318 26.4656 14.2327 26.3598 13.6726 26.1383C13.1125 25.9167 12.6032 25.584 12.1752 25.1602C11.7472 24.7364 11.4095 24.2303 11.1825 23.6724C10.9554 23.1145 10.8438 22.5164 10.8542 21.9142V21.9005ZM12.9125 21.9314C12.9326 22.4269 13.0979 22.9056 13.3878 23.3081C13.6776 23.7105 14.0793 24.019 14.5429 24.1951C15.0066 24.3712 15.5117 24.4073 15.9957 24.2989C16.4796 24.1904 16.9211 23.9422 17.2652 23.5851C17.6093 23.2279 17.841 22.7776 17.9314 22.2899C18.0218 21.8023 17.967 21.2988 17.7738 20.842C17.5805 20.3853 17.2574 19.9953 16.8445 19.7206C16.4315 19.4459 15.947 19.2985 15.4511 19.2967C15.1093 19.296 14.7709 19.3644 14.4563 19.4978C14.1416 19.6311 13.8572 19.8268 13.6201 20.0729C13.383 20.319 13.198 20.6105 13.0764 20.9298C12.9548 21.2492 12.8991 21.5899 12.9125 21.9314Z" fill="black"/>
<path d="M20.014 17.6469H21.9488V18.7687C22.3193 18.0037 23.0226 17.3965 24.3159 17.3965V19.4548H24.2233C22.7893 19.4548 22.0552 20.1409 22.0552 21.6057V26.1992H20.014V17.6469Z" fill="black"/>
<path d="M32.8686 26.1987H30.8103V24.9672C30.2648 25.9654 29.1293 26.4629 27.9286 26.4629C25.1842 26.4629 23.5822 24.3291 23.5822 21.914C23.5822 19.2211 25.5307 17.3823 27.9286 17.3823C29.4861 17.3823 30.4363 18.2056 30.8103 18.8917V17.6465H32.8686V26.1987ZM25.6405 21.9552C25.6354 22.2981 25.6992 22.6385 25.8281 22.9563C25.9569 23.2741 26.1483 23.5627 26.3908 23.8052C26.6332 24.0477 26.9219 24.2391 27.2397 24.3679C27.5575 24.4968 27.8979 24.5606 28.2408 24.5555C28.7129 24.5759 29.1805 24.4566 29.585 24.2125C29.9896 23.9684 30.3132 23.6104 30.5152 23.1833C30.7129 22.8117 30.8298 22.4025 30.8583 21.9826C30.8726 21.5695 30.7916 21.1587 30.6216 20.782C30.4217 20.3207 30.0879 19.9302 29.6634 19.6611C29.2388 19.3919 28.7432 19.2565 28.2408 19.2725C27.8911 19.268 27.5441 19.3349 27.2211 19.4692C26.8981 19.6035 26.6059 19.8023 26.3625 20.0534C26.119 20.3046 25.9294 20.6028 25.8053 20.9298C25.6811 21.2568 25.625 21.6057 25.6405 21.9552Z" fill="black"/>
<path d="M41.9966 25.1872C41.9966 26.5903 41.7324 27.4925 41.2007 28.2095C40.47 29.1906 39.0361 29.9693 37.2762 29.9693C34.6141 29.9693 33.3346 28.381 33.0224 27.0568H35.3929C35.5826 27.4377 35.8941 27.7444 36.2779 27.9282C36.6631 28.1353 37.0961 28.2372 37.5332 28.2237C37.9704 28.2101 38.3962 28.0815 38.7678 27.8508C39.1394 27.6201 39.4435 27.2956 39.6496 26.9098C39.8557 26.5241 39.9565 26.0908 39.9417 25.6537V24.9368C39.6636 25.4212 39.2576 25.8199 38.7681 26.0891C38.2786 26.3583 37.7245 26.4878 37.1664 26.4633C34.7068 26.4633 32.8063 24.5937 32.8063 21.9556C32.8063 19.1666 34.7994 17.3896 37.1664 17.3896C38.398 17.3896 39.458 17.9523 39.9417 18.7927V17.6469H42L41.9966 25.1872ZM34.8474 21.9145C34.833 22.2574 34.8885 22.5996 35.0106 22.9204C35.1326 23.2411 35.3188 23.5336 35.5575 23.7801C35.7963 24.0266 36.0828 24.2219 36.3995 24.3541C36.7162 24.4863 37.0565 24.5527 37.3997 24.5491C37.7382 24.5604 38.0754 24.5009 38.3896 24.3745C38.7039 24.2481 38.9883 24.0575 39.2247 23.815C39.6957 23.3257 39.9577 22.6724 39.9554 21.9934C39.9665 21.3272 39.7471 20.6777 39.3345 20.1546C39.1012 19.8707 38.8047 19.6453 38.4688 19.4964C38.1329 19.3475 37.7668 19.2792 37.3997 19.297C37.0596 19.2951 36.7226 19.3615 36.4087 19.4923C36.0948 19.6231 35.8104 19.8156 35.5723 20.0585C35.3342 20.3014 35.1474 20.5896 35.0229 20.9061C34.8983 21.2225 34.8387 21.5608 34.8474 21.9008V21.9145Z" fill="black"/>
<path d="M44.0073 22.6003C44.0999 23.9725 45.3143 24.7341 46.4841 24.7204C46.9012 24.7436 47.3164 24.6476 47.6809 24.4434C48.0454 24.2393 48.3442 23.9355 48.5424 23.5677H50.6453C50.2949 24.4354 49.6988 25.1818 48.93 25.7152C48.2117 26.2116 47.3571 26.4728 46.4841 26.4631C45.3013 26.4348 44.1761 25.9461 43.3481 25.101C42.5201 24.2559 42.0546 23.121 42.0505 21.9378C42.0465 20.7547 42.5043 19.6166 43.3266 18.7659C44.1488 17.9151 45.2706 17.4188 46.4532 17.3825C47.0464 17.372 47.6356 17.4825 48.1847 17.7072C48.7338 17.9319 49.2314 18.2662 49.647 18.6895C50.1453 19.1995 50.5186 19.8181 50.7376 20.4966C50.9567 21.1752 51.0155 21.8952 50.9094 22.6003H44.0073ZM48.882 21.0429C48.781 20.4808 48.4787 19.9747 48.0317 19.6193C47.5847 19.2638 47.0236 19.0833 46.4532 19.1115C44.9404 19.1115 44.117 20.2024 44.0518 21.0429H48.882Z" fill="black"/>
<path d="M33.0744 13.7665C33.0744 15.3274 31.8668 16.2639 30.3848 16.2639C28.9029 16.2639 27.6919 15.3274 27.6919 13.7665C27.6919 12.2057 28.9063 11.2451 30.3848 11.2451C31.8634 11.2451 33.0744 12.2365 33.0744 13.7665ZM29.4723 13.794C29.4647 13.9183 29.4826 14.0428 29.5249 14.16C29.5672 14.2771 29.6331 14.3843 29.7184 14.4751C29.8037 14.5658 29.9067 14.6381 30.021 14.6875C30.1354 14.7369 30.2586 14.7624 30.3831 14.7624C30.5077 14.7624 30.6309 14.7369 30.7452 14.6875C30.8595 14.6381 30.9625 14.5658 31.0478 14.4751C31.1332 14.3843 31.199 14.2771 31.2413 14.16C31.2837 14.0428 31.3016 13.9183 31.2939 13.794C31.3016 13.6697 31.2837 13.5451 31.2413 13.428C31.199 13.3109 31.1332 13.2036 31.0478 13.1129C30.9625 13.0222 30.8595 12.9499 30.7452 12.9005C30.6309 12.851 30.5077 12.8255 30.3831 12.8255C30.2586 12.8255 30.1354 12.851 30.021 12.9005C29.9067 12.9499 29.8037 13.0222 29.7184 13.1129C29.6331 13.2036 29.5672 13.3109 29.5249 13.428C29.4826 13.5451 29.4647 13.6697 29.4723 13.794Z" fill="black"/>
<path d="M33.5816 11.3203H35.3483V16.1848H33.5816V11.3203Z" fill="black"/>
<path d="M36.0518 11.3203H37.7671L37.7293 13.4301H37.7671C37.8216 13.2358 37.9049 13.0508 38.0141 12.8812L38.8717 11.3203H40.7996L39.2799 13.6874L40.9609 16.1848H38.9026L38.0655 14.7131C37.9395 14.5396 37.839 14.349 37.7671 14.147H37.7293L37.7671 16.1848H36.0518V11.3203Z" fill="black"/>
<path d="M45.897 13.7665C45.897 15.3274 44.6894 16.2639 43.2074 16.2639C41.7255 16.2639 40.5145 15.3274 40.5145 13.7665C40.5145 12.2057 41.7289 11.2451 43.2074 11.2451C44.686 11.2451 45.897 12.2365 45.897 13.7665ZM42.2949 13.794C42.2873 13.9183 42.3052 14.0428 42.3475 14.16C42.3898 14.2771 42.4557 14.3843 42.541 14.4751C42.6263 14.5658 42.7293 14.6381 42.8436 14.6875C42.958 14.7369 43.0812 14.7624 43.2057 14.7624C43.3303 14.7624 43.4535 14.7369 43.5678 14.6875C43.6821 14.6381 43.7851 14.5658 43.8704 14.4751C43.9558 14.3843 44.0216 14.2771 44.0639 14.16C44.1063 14.0428 44.1242 13.9183 44.1165 13.794C44.1242 13.6697 44.1063 13.5451 44.0639 13.428C44.0216 13.3109 43.9558 13.2036 43.8704 13.1129C43.7851 13.0222 43.6821 12.9499 43.5678 12.9005C43.4535 12.851 43.3303 12.8255 43.2057 12.8255C43.0812 12.8255 42.958 12.851 42.8436 12.9005C42.7293 12.9499 42.6263 13.0222 42.541 13.1129C42.4557 13.2036 42.3898 13.3109 42.3475 13.428C42.3052 13.5451 42.2873 13.6697 42.2949 13.794Z" fill="black"/>
<path d="M46.683 14.442L46.7722 14.5141C47.0808 14.781 47.4694 14.9378 47.8768 14.96C48.0518 14.96 48.3262 14.888 48.3262 14.6685C48.3262 14.4489 48.0963 14.4318 47.9351 14.3974L47.5921 14.3323C46.906 14.2122 46.3228 13.804 46.3228 13.0424C46.3228 11.8897 47.3725 11.2448 48.4325 11.2448C48.9705 11.2387 49.4994 11.3837 49.9591 11.6633L49.4823 12.9086C49.1844 12.6846 48.8255 12.5566 48.4531 12.5415C48.2988 12.5415 48.0723 12.5999 48.0723 12.7988C48.0723 12.9978 48.2919 13.0047 48.4154 13.0355L48.8133 13.1282C49.5612 13.2963 50.1032 13.6942 50.1032 14.5209C50.1032 15.6805 49.0466 16.2568 47.9934 16.2568C47.3449 16.2484 46.7063 16.096 46.1238 15.8108L46.683 14.442Z" fill="black"/>
<path fill-rule="evenodd" clip-rule="evenodd" d="M0.933441 7.32412L18.7583 0L28.1854 0.006861L50.9296 10.0514L36.8885 10.0548L20.4599 2.45967L0.936872 10.0891L0.933441 7.32412Z" fill="black"/>
<path d="M48.847 0.109875C48.4573 0.111908 48.0769 0.229322 47.7539 0.447299C47.4309 0.665277 47.1797 0.974051 47.0319 1.33466C46.8842 1.69527 46.8466 2.09155 46.9239 2.47351C47.0012 2.85546 47.1898 3.20597 47.4661 3.48081C47.7424 3.75564 48.0939 3.94249 48.4762 4.01777C48.8586 4.09305 49.2547 4.05339 49.6145 3.9038C49.9743 3.7542 50.2818 3.50138 50.4981 3.17722C50.7144 2.85307 50.8298 2.47211 50.8298 2.08241C50.8294 1.82264 50.7777 1.5655 50.6778 1.32571C50.5778 1.08592 50.4316 0.868193 50.2474 0.684981C50.0633 0.501768 49.8448 0.35667 49.6045 0.257986C49.3642 0.159303 49.1068 0.108973 48.847 0.109875ZM48.847 3.91773C48.484 3.91773 48.1292 3.81009 47.8273 3.60843C47.5255 3.40676 47.2903 3.12012 47.1514 2.78476C47.0125 2.4494 46.9761 2.08038 47.0469 1.72436C47.1177 1.36834 47.2925 1.04132 47.5492 0.784648C47.8059 0.527974 48.1329 0.353177 48.4889 0.28236C48.8449 0.211544 49.214 0.24789 49.5493 0.386801C49.8847 0.525712 50.1713 0.760949 50.373 1.06277C50.5747 1.36458 50.6823 1.71942 50.6823 2.08241C50.6814 2.56889 50.4877 3.03519 50.1438 3.37918C49.7998 3.72317 49.3335 3.91683 48.847 3.91773Z" fill="#1E120D"/>
<path d="M47.9866 3.15931V1.00153H48.9025C49.0727 0.994101 49.2429 1.01379 49.4068 1.05985C49.5099 1.10031 49.5976 1.17236 49.6573 1.26568C49.7202 1.36887 49.7523 1.48789 49.7499 1.60873C49.7562 1.75561 49.7059 1.89931 49.6092 2.0101C49.4953 2.12439 49.3446 2.19484 49.1838 2.20906C49.2699 2.25669 49.3475 2.31811 49.4137 2.39088C49.5067 2.49798 49.5904 2.61274 49.6641 2.73393L49.9283 3.15245H49.4068L49.0912 2.68247C49.021 2.57276 48.9442 2.46737 48.8614 2.36687C48.8255 2.3274 48.7808 2.29686 48.731 2.27768C48.6596 2.25787 48.5855 2.24976 48.5115 2.25366H48.4291V3.15931H47.9866ZM48.4291 1.91404H48.7516C48.8825 1.92073 49.0136 1.91268 49.1427 1.89003C49.1917 1.87127 49.2345 1.83919 49.2662 1.7974C49.2961 1.74901 49.3116 1.69307 49.3108 1.63617C49.313 1.57274 49.2923 1.51063 49.2525 1.46122C49.209 1.41032 49.1475 1.37832 49.0809 1.37202C49.0432 1.37202 48.9403 1.37202 48.7619 1.37202H48.4188L48.4291 1.91404Z" fill="#1E120D"/>
<path fill-rule="evenodd" clip-rule="evenodd" d="M32.4706 27.0254L32.5117 27.1386C32.6652 27.5968 32.8761 28.0337 33.1395 28.4388H0.937378V27.0254H32.4706ZM42.3024 27.0254H50.9301V28.4388H41.6472C41.831 28.1686 41.9862 27.88 42.1103 27.5777C42.1549 27.4679 42.196 27.3581 42.2338 27.2552C42.2715 27.1523 42.2818 27.1009 42.3024 27.0254Z" fill="#EDD700"/>
<path fill-rule="evenodd" clip-rule="evenodd" d="M32.7473 27.7324C32.8591 27.9778 32.9899 28.2141 33.1384 28.4391H0.908844V27.7324H32.7473ZM42.0406 27.7324H50.9599V28.4391H41.6461C41.7976 28.2153 41.9295 27.9788 42.0406 27.7324Z" fill="#1E120D"/>
<path d="M9.01251 36.1301V32.4561H10.0074L10.9576 35.0941L11.8873 32.4561H12.8958V36.1301H12.2097L12.2269 33.1868L11.1977 36.1301H10.714L9.68489 33.1868L9.70204 36.1301H9.01251Z" fill="white"/>
<path d="M13.4998 32.4561H14.2442V36.1301H13.4998V32.4561Z" fill="white"/>
<path d="M17.2109 34.9912V32.4424H17.897V36.1165H17.235L15.5197 33.5744V36.1165H14.837V32.4561H15.4957L17.2109 34.9912Z" fill="white"/>
<path d="M18.4973 32.4561H19.2382V36.1301H18.4973V32.4561Z" fill="white"/>
<path d="M19.8322 32.4559H21.0432C21.3359 32.4373 21.6268 32.5131 21.8734 32.672C21.9916 32.7613 22.0859 32.8786 22.1477 33.0134C22.2094 33.1481 22.2368 33.2961 22.2273 33.444C22.2178 33.5919 22.1717 33.7352 22.0931 33.8609C22.0146 33.9866 21.9061 34.0908 21.7773 34.1643C21.9685 34.218 22.1361 34.3345 22.2531 34.4951C22.3701 34.6556 22.4297 34.8508 22.4222 35.0493C22.4274 35.2089 22.3935 35.3672 22.3235 35.5107C22.2536 35.6542 22.1497 35.7784 22.0209 35.8726C21.7163 36.0884 21.341 36.1804 20.9711 36.1299H19.8322V32.4559ZM20.5766 33.9241H20.9849C21.0932 33.9277 21.2014 33.9114 21.3039 33.8761C21.372 33.8435 21.4286 33.7909 21.466 33.7253C21.5034 33.6597 21.5198 33.5843 21.5132 33.509C21.5165 33.4384 21.4991 33.3683 21.4631 33.3073C21.4272 33.2464 21.3742 33.1973 21.3108 33.166C21.2016 33.1236 21.0847 33.1049 20.9677 33.1111H20.5766V33.9241ZM20.5766 35.4816H21.0981C21.2148 35.4849 21.3312 35.4663 21.4411 35.4267C21.5242 35.3934 21.5946 35.3347 21.642 35.2588C21.6895 35.183 21.7117 35.094 21.7053 35.0047C21.7105 34.9179 21.6881 34.8316 21.6413 34.7582C21.5945 34.6849 21.5256 34.6283 21.4446 34.5965C21.3248 34.5536 21.1975 34.536 21.0706 34.545H20.5766V35.4816Z" fill="white"/>
<path d="M22.6588 34.3222C22.6472 33.9363 22.7511 33.5557 22.9572 33.2293C23.1633 32.9028 23.4622 32.6453 23.8156 32.4898C24.169 32.3343 24.5608 32.2879 24.9407 32.3566C25.3207 32.4252 25.6714 32.6057 25.9481 32.875C26.2248 33.1443 26.4147 33.4901 26.4936 33.868C26.5724 34.246 26.5366 34.6389 26.3907 34.9963C26.2448 35.3538 25.9955 35.6595 25.6747 35.8744C25.3539 36.0892 24.9763 36.2033 24.5902 36.2021C24.3396 36.2067 24.0907 36.1615 23.8577 36.0693C23.6246 35.9771 23.4122 35.8396 23.2326 35.6648C23.0531 35.49 22.9099 35.2814 22.8114 35.0509C22.7129 34.8205 22.6611 34.5728 22.6588 34.3222ZM23.4033 34.2948C23.4153 34.5286 23.4957 34.7537 23.6344 34.9423C23.773 35.1309 23.964 35.2747 24.1835 35.3559C24.4031 35.4371 24.6416 35.4522 24.8696 35.3993C25.0977 35.3463 25.3052 35.2277 25.4665 35.0581C25.6278 34.8884 25.7359 34.6752 25.7773 34.4448C25.8187 34.2144 25.7916 33.9769 25.6995 33.7617C25.6073 33.5465 25.4541 33.3631 25.2588 33.2341C25.0635 33.105 24.8346 33.0361 24.6005 33.0358C24.4376 33.0374 24.2767 33.072 24.1275 33.1372C23.9782 33.2025 23.8437 33.2973 23.7319 33.4158C23.6201 33.5343 23.5334 33.6741 23.4769 33.8269C23.4205 33.9797 23.3954 34.1424 23.4033 34.3051V34.2948Z" fill="white"/>
<path d="M26.968 32.4559H28.1413C28.434 32.4264 28.7295 32.4688 29.0021 32.5794C29.2747 32.69 29.5162 32.8654 29.7056 33.0905C29.9656 33.4342 30.0989 33.8571 30.0829 34.2878C30.0829 35.3169 29.5375 36.1299 28.1962 36.1299H26.968V32.4559ZM27.7125 35.4816H28.2339C29.0332 35.4816 29.342 34.9601 29.342 34.2981C29.3489 34.0039 29.2611 33.7152 29.0915 33.4747C28.9903 33.3487 28.86 33.2492 28.7118 33.1846C28.5636 33.1201 28.402 33.0925 28.2408 33.1042H27.7125V35.4816Z" fill="white"/>
<path d="M30.5181 32.4561H32.5764V33.1044H31.2762V33.9415H32.5798V34.5898H31.2762V35.4818H32.6038V36.1301H30.5455L30.5181 32.4561Z" fill="white"/>
<path d="M35.8319 33.5811C35.7573 33.4664 35.6646 33.3644 35.5575 33.2792C35.3567 33.1196 35.1073 33.0337 34.8508 33.0356C34.5287 33.0525 34.2254 33.1923 34.0033 33.4262C33.7813 33.6602 33.6575 33.9704 33.6575 34.2929C33.6575 34.6155 33.7813 34.9257 34.0033 35.1596C34.2254 35.3936 34.5287 35.5334 34.8508 35.5502C35.1129 35.555 35.3698 35.477 35.5849 35.3272C35.7713 35.1913 35.9047 34.9949 35.9623 34.7715H34.5901V34.1746H36.8233C36.837 34.4905 36.7807 34.8056 36.6587 35.0974C36.4951 35.4341 36.2387 35.717 35.9195 35.9128C35.6004 36.1085 35.232 36.2089 34.8577 36.202C34.5125 36.1946 34.1758 36.0938 33.8834 35.9104C33.5909 35.7269 33.3536 35.4677 33.1967 35.1602C33.0397 34.8527 32.9691 34.5084 32.9921 34.164C33.0152 33.8195 33.1312 33.4877 33.3277 33.2039C33.5242 32.9201 33.794 32.6948 34.1083 32.552C34.4226 32.4092 34.7697 32.3542 35.1128 32.3929C35.4558 32.4316 35.782 32.5625 36.0566 32.7717C36.3312 32.9809 36.544 33.2606 36.6724 33.5811H35.8319Z" fill="white"/>
<path d="M37.4716 36.1301H36.6655L38.1612 32.4561H38.8233L40.2846 36.1301H39.4716L39.204 35.4097H37.7461L37.4716 36.1301ZM38.4562 33.3308L37.9313 34.8197H38.9948L38.4562 33.3308Z" fill="white"/>
<path d="M41.1019 34.9911C41.1294 35.4885 41.445 35.5846 41.6199 35.5846C41.751 35.5855 41.8772 35.535 41.9715 35.444C42.0658 35.3529 42.1206 35.2285 42.1242 35.0974C42.1242 34.7853 41.8601 34.7029 41.3489 34.5005C41.0676 34.4011 40.4261 34.1575 40.4261 33.4714C40.4322 33.3187 40.4688 33.1688 40.534 33.0306C40.5992 32.8924 40.6915 32.7688 40.8054 32.667C40.9194 32.5652 41.0526 32.4874 41.1973 32.4381C41.3419 32.3889 41.495 32.3693 41.6474 32.3805C41.7955 32.3697 41.9443 32.3894 42.0846 32.4383C42.2248 32.4873 42.3536 32.5644 42.4629 32.665C42.5722 32.7656 42.6597 32.8876 42.72 33.0233C42.7804 33.159 42.8123 33.3057 42.8137 33.4542H42.0796C42.0487 33.2861 41.987 33.0014 41.6199 33.0014C41.5625 32.9982 41.505 33.0065 41.4508 33.026C41.3967 33.0454 41.347 33.0756 41.3048 33.1146C41.2625 33.1537 41.2285 33.2008 41.2049 33.2533C41.1812 33.3057 41.1684 33.3624 41.1671 33.4199C41.1671 33.6944 41.3626 33.763 41.987 34.0203C42.5496 34.2638 42.8618 34.5348 42.8618 35.0494C42.8683 35.2089 42.8402 35.368 42.7793 35.5156C42.7185 35.6632 42.6263 35.7959 42.5093 35.9044C42.3922 36.013 42.253 36.0949 42.1013 36.1445C41.9495 36.1941 41.7888 36.2103 41.6302 36.1918C41.4639 36.2103 41.2956 36.192 41.1371 36.1383C40.9786 36.0845 40.8339 35.9966 40.7132 35.8808C40.5924 35.7649 40.4986 35.624 40.4383 35.4679C40.378 35.3117 40.3528 35.1443 40.3644 34.9774L41.1019 34.9911Z" fill="white"/>
</svg>
