<svg width="52" height="52" viewBox="0 0 52 52" fill="none" xmlns="http://www.w3.org/2000/svg">
<circle cx="32" cy="20" r="20" fill="#FFED00"/>
<path d="M46.8072 24.2817L46.8851 25.4588C46.8209 25.7204 46.7487 25.9808 46.6868 26.2435C46.3463 27.6753 45.5553 28.7985 44.3287 29.597C44.0238 29.7955 43.916 30.0009 43.916 30.3611C43.9275 37.5741 43.924 44.787 43.924 52H3.50201C3.17988 52 2.91851 51.7384 2.91851 51.416C2.91851 44.5163 2.91163 37.6177 2.93112 30.7191C2.93227 30.1362 2.87266 29.6854 2.2754 29.4421C2.11376 29.3767 1.98881 29.2184 1.8501 29.0991C0.242892 27.7189 -0.512563 25.0641 0.380456 23.1023C1.01096 21.7175 1.46148 20.2467 2.1321 18.8825C3.11339 16.8874 3.56392 14.8246 3.34381 12.6126V12.6069C3.31286 12.2811 3.5685 12 3.89522 12H42.8935C43.2053 12 43.4586 12.2501 43.4644 12.561C43.4735 13.083 43.4873 13.5901 43.4483 14.0938C43.352 15.3283 43.6512 16.448 44.135 17.5815C45.0796 19.7923 45.9233 22.0456 46.8072 24.2828V24.2817ZM27.8623 28.3396C26.7182 29.7439 25.2509 30.5217 23.4327 30.5252C21.602 30.5286 20.122 29.7473 18.9527 28.3121C17.7823 29.7576 16.3069 30.524 14.4888 30.5252C12.658 30.5275 11.185 29.7301 10.0248 28.3144C8.679 29.971 6.96748 30.6583 4.89599 30.516V50.0416H28.3082V33.1524C28.3082 32.8002 28.5937 32.5146 28.9456 32.5146H39.3821C39.7341 32.5146 40.0195 32.8002 40.0195 33.1524V50.045H41.9454V30.5114C40.9435 30.5814 40.0023 30.4678 39.0978 30.0869C38.1853 29.7014 37.4517 29.0842 36.8154 28.3339C34.5743 31.1458 30.3155 31.3604 27.8634 28.3407L27.8623 28.3396ZM30.2926 43.2703V50.0416H38.0352V34.4821H30.3006V41.2534C30.6732 41.2741 31.0102 41.2683 31.3392 41.3177C31.8677 41.3968 32.2093 41.7984 32.2002 42.2768C32.191 42.7437 31.862 43.1235 31.353 43.2015C31.0114 43.2531 30.6629 43.2497 30.2926 43.2726V43.2703ZM5.31098 15.84H41.4708V13.963H5.31098V15.84ZM10.2965 17.8936C8.48985 17.8936 6.75425 17.9028 5.01751 17.8844C4.69767 17.881 4.57387 17.9968 4.46267 18.2768C3.80924 19.9185 3.13518 21.5511 2.46914 23.1872C2.40838 23.3352 2.36138 23.49 2.2926 23.6874C4.63233 23.6874 6.91704 23.6908 9.20175 23.6759C9.30033 23.6759 9.4677 23.521 9.48375 23.42C9.76347 21.5982 10.0237 19.7728 10.2965 17.8936ZM26.4912 17.9234H20.3502C20.255 19.8463 20.161 21.7393 20.0659 23.6495H26.7652C26.6735 21.7267 26.583 19.8417 26.4912 17.9234ZM44.527 23.669C44.5098 23.5887 44.5064 23.529 44.4846 23.4751C43.7636 21.698 43.0471 19.9185 42.3054 18.1506C42.2526 18.0255 42.0153 17.9062 41.8617 17.9051C40.2775 17.8867 38.692 17.8936 37.1077 17.8936C36.9312 17.8936 36.7547 17.8936 36.5414 17.8936C36.8349 19.8612 37.1204 21.7657 37.4047 23.669H44.527ZM28.7255 23.6495H35.4249C35.136 21.714 34.854 19.821 34.5697 17.9211H28.4412C28.5364 19.8463 28.6304 21.7427 28.7255 23.6495ZM18.399 17.9269H12.2706C11.9886 19.852 11.7111 21.745 11.4314 23.6518H18.1044C18.203 21.7301 18.3005 19.844 18.399 17.9269ZM28.7943 25.6561C28.839 25.9521 28.8046 26.2171 28.9158 26.3881C29.4328 27.1854 30.0117 27.9415 30.9437 28.2949C33.0313 29.0853 34.7061 28.1583 35.7539 26.434C35.9878 26.0485 35.7161 25.6572 35.2678 25.6561C33.9885 25.655 32.7091 25.6561 31.4298 25.6561C30.5792 25.6561 29.7297 25.6561 28.7932 25.6561H28.7943ZM20.0108 25.6859C19.7644 26.2837 20.1404 26.6256 20.4201 26.9973C21.3326 28.2122 22.5351 28.7503 24.0495 28.5174C25.181 28.343 25.9582 27.6512 26.6139 26.7598C26.8615 26.4236 26.9704 26.1081 26.8306 25.6848H20.0097L20.0108 25.6859ZM11.0875 25.6836C11.0875 25.9498 10.9912 26.2619 11.1036 26.4408C11.7513 27.4734 12.5721 28.3178 13.8537 28.5151C15.3039 28.7388 16.4915 28.2696 17.3983 27.1132C17.7204 26.7036 18.14 26.325 17.9554 25.6825H11.0875V25.6836ZM2.06676 25.6813C2.29145 27.3518 4.03049 28.6987 5.76723 28.5713C7.46615 28.4463 9.11462 27.0214 9.09284 25.6813H2.06562H2.06676ZM44.7758 25.6882H37.7256C37.8391 27.1441 39.4842 28.514 41.1579 28.5771C42.8866 28.6425 44.5374 27.3357 44.7769 25.6882H44.7758Z" fill="black"/>
<path d="M7.50042 32.5054H25.6749C26.0268 32.5054 26.3123 32.791 26.3123 33.1433V45.5098C26.3123 45.862 26.0268 46.1477 25.6749 46.1477H7.50042C7.14848 46.1477 6.86304 45.862 6.86304 45.5098V33.1433C6.86304 32.791 7.14848 32.5054 7.50042 32.5054ZM8.80269 35.1177V43.5399C8.80269 43.8921 9.08813 44.1778 9.44007 44.1778H23.7433C24.0952 44.1778 24.3807 43.8921 24.3807 43.5399V35.1177C24.3807 34.7655 24.0952 34.4798 23.7433 34.4798H9.43892C9.08699 34.4798 8.80154 34.7655 8.80154 35.1177H8.80269Z" fill="black"/>
</svg>
