<svg width="51" height="51" viewBox="0 0 51 51" fill="none" xmlns="http://www.w3.org/2000/svg">
<circle cx="31" cy="20" r="20" fill="#FFED00"/>
<path d="M0 9.20809C0.219571 8.6067 0.465174 8.03151 0.982411 7.60666C1.83353 6.90732 2.78765 6.93466 3.79722 7.09184C8.57006 7.83788 13.3463 8.56228 18.1214 9.29466C19.7274 9.54068 21.3346 9.77759 22.9373 10.0407C24.489 10.2958 25.3559 11.3426 25.3582 12.9417C25.3627 16.1719 25.3593 19.4021 25.3593 22.6323C25.3593 22.802 25.3593 22.9729 25.3593 23.1995C26.0599 23.3453 26.7582 23.4945 27.4577 23.6346C31.9861 24.5413 36.5122 25.4593 41.0439 26.3432C42.3444 26.5972 43.1185 27.3466 43.4615 28.6007V48.0775C43.3675 48.3395 43.294 48.6129 43.1751 48.8623C42.7688 49.712 42.0445 50.1505 41.1696 50.384H2.29191C1.58906 50.1858 0.936007 49.8931 0.528555 49.2507C0.314643 48.9136 0.174299 48.5274 0 48.163V9.20809ZM23.5348 48.5445V47.9887C23.5348 36.3743 23.5348 24.7588 23.5348 13.1445C23.5348 13.0306 23.5371 12.9167 23.5337 12.8028C23.5133 12.2401 23.2677 11.9371 22.712 11.838C22.0578 11.7219 21.4014 11.625 20.7449 11.5248C14.8493 10.6318 8.95261 9.74001 3.05702 8.84589C2.23646 8.72174 1.8075 9.07028 1.80637 9.9006C1.8041 22.4125 1.8041 34.9244 1.80637 47.4351C1.80637 48.229 2.15157 48.565 2.95742 48.5673C4.24429 48.5707 5.53115 48.5684 6.81915 48.5673C6.94365 48.5673 7.06702 48.5536 7.23792 48.5434C7.23792 48.3543 7.23792 48.1869 7.23792 48.0206C7.23792 45.5296 7.2334 43.0386 7.23905 40.5476C7.24358 38.7731 8.36973 37.6409 10.1308 37.6352C11.8138 37.6295 13.4968 37.6318 15.1798 37.6352C17.0077 37.6386 18.0988 38.7423 18.101 40.592C18.1044 43.0682 18.101 45.5455 18.101 48.0217C18.101 48.188 18.101 48.3543 18.101 48.5445H23.5337H23.5348ZM25.3831 48.5684C25.5574 48.5684 25.7091 48.5684 25.8618 48.5684C30.7139 48.5684 35.5671 48.5684 40.4192 48.5684C41.3552 48.5684 41.6574 48.2609 41.6574 47.3087C41.6574 41.3438 41.6574 35.3777 41.6574 29.4128C41.6574 28.505 41.4559 28.2669 40.5686 28.0904C36.3141 27.2464 32.0596 26.399 27.8052 25.5539C27.0072 25.3955 26.2082 25.2406 25.3831 25.0789V48.5684ZM16.2981 48.5479V48.1402C16.2981 45.6218 16.2981 43.1047 16.2981 40.5863C16.2981 39.772 15.9766 39.4496 15.1674 39.4496C13.5138 39.4485 11.8602 39.4485 10.2055 39.4496C9.35667 39.4496 9.0624 39.7458 9.0624 40.6068C9.06014 43.1104 9.0624 45.6139 9.0624 48.1174C9.0624 48.2541 9.07598 48.3919 9.08504 48.5479H16.2981Z" fill="black"/>
<path d="M8.16801 15.7653C8.74637 15.7653 9.32585 15.7573 9.90421 15.7687C10.4848 15.7801 10.8685 16.1537 10.8629 16.6788C10.8572 17.2004 10.4645 17.574 9.8861 17.5774C8.72826 17.5854 7.57155 17.5854 6.41371 17.5774C5.83535 17.574 5.44261 17.2016 5.43469 16.681C5.42677 16.1525 5.80593 15.7892 6.38881 15.7664C6.4171 15.7664 6.4454 15.7653 6.47369 15.7653C7.03847 15.7653 7.60324 15.7653 8.16801 15.7653Z" fill="black"/>
<path d="M8.19159 21.2336C8.76994 21.2336 9.34943 21.2234 9.92779 21.2371C10.4858 21.2496 10.857 21.6152 10.8615 22.1278C10.8661 22.6517 10.4756 23.0401 9.90402 23.0446C8.7326 23.0538 7.56117 23.0538 6.38975 23.0446C5.82045 23.0401 5.42884 22.6483 5.43563 22.1255C5.44129 21.6129 5.81253 21.2496 6.37164 21.2382C6.97829 21.2257 7.58607 21.2348 8.19272 21.2348L8.19159 21.2336Z" fill="black"/>
<path d="M8.12831 28.5141C7.56354 28.5141 6.99877 28.5198 6.434 28.513C5.83074 28.5061 5.43008 28.1314 5.43461 27.5938C5.43914 27.0664 5.81829 26.7076 6.41023 26.7031C7.56807 26.694 8.72478 26.694 9.88262 26.7031C10.4757 26.7076 10.8548 27.0664 10.8605 27.5926C10.8662 28.1303 10.4666 28.5061 9.86338 28.513C9.28502 28.5198 8.70554 28.5141 8.12718 28.5141H8.12831Z" fill="black"/>
<path d="M8.12607 33.9813C7.5613 33.9813 6.99653 33.987 6.43175 33.9802C5.8285 33.9722 5.42897 33.5963 5.43463 33.0587C5.44142 32.5313 5.81944 32.1748 6.41251 32.1703C7.57035 32.1612 8.72706 32.1612 9.8849 32.1703C10.4768 32.1748 10.856 32.5348 10.8605 33.0621C10.8651 33.5997 10.4655 33.9733 9.86001 33.9802C9.28165 33.987 8.70216 33.9813 8.12381 33.9813H8.12607Z" fill="black"/>
<path d="M17.2333 15.7665C17.8117 15.7665 18.3912 15.7562 18.9695 15.7687C19.5422 15.7801 19.9338 16.1697 19.9202 16.6879C19.9067 17.197 19.5275 17.5706 18.974 17.5752C17.789 17.5854 16.6029 17.5866 15.4179 17.5752C14.8667 17.5695 14.5011 17.1902 14.5 16.6708C14.4989 16.1435 14.8497 15.7835 15.4134 15.7699C16.02 15.7551 16.6267 15.7665 17.2333 15.7665Z" fill="black"/>
<path d="M17.2008 23.0469C16.6225 23.0469 16.043 23.0537 15.4646 23.0446C14.8806 23.0355 14.5026 22.6756 14.4981 22.1437C14.4947 21.6004 14.8535 21.2405 15.4488 21.2359C16.6202 21.2256 17.7916 21.2256 18.9631 21.2359C19.538 21.2416 19.9296 21.6311 19.9194 22.1494C19.9093 22.6722 19.5176 23.0355 18.9359 23.0446C18.3575 23.0526 17.7792 23.0469 17.1997 23.0469H17.2008Z" fill="black"/>
<path d="M17.232 26.7008C17.8104 26.7008 18.3899 26.6906 18.9682 26.7031C19.5421 26.7145 19.9325 27.1029 19.9201 27.6211C19.9076 28.1302 19.5274 28.505 18.9762 28.5095C17.7912 28.5198 16.605 28.5209 15.42 28.5095C14.8688 28.5038 14.5021 28.1246 14.501 27.6063C14.4987 27.0778 14.8496 26.7179 15.4132 26.7042C16.0199 26.6894 16.6265 26.7008 17.2332 26.7008H17.232Z" fill="black"/>
<path d="M17.1778 33.9813C16.6131 33.9813 16.0483 33.987 15.4846 33.9802C14.8735 33.9722 14.4932 33.6077 14.5011 33.0541C14.509 32.5154 14.8701 32.1748 15.4745 32.1703C16.6312 32.1612 17.789 32.1612 18.9457 32.1703C19.5286 32.1748 19.9179 32.5473 19.9191 33.0667C19.9213 33.6043 19.5207 33.9733 18.9129 33.9802C18.3345 33.987 17.7562 33.9813 17.1767 33.9813H17.1778Z" fill="black"/>
<path d="M33.5301 33.9813C32.9517 33.9813 32.3722 33.987 31.7939 33.9802C31.1804 33.9733 30.7956 33.6145 30.7979 33.0667C30.799 32.5222 31.1566 32.1748 31.7599 32.1703C32.9166 32.1612 34.0745 32.1612 35.2312 32.1703C35.8197 32.1748 36.2068 32.5336 36.217 33.0541C36.2283 33.5918 35.8276 33.9722 35.2232 33.9802C34.6585 33.9881 34.0948 33.9813 33.5301 33.9813Z" fill="black"/>
<path d="M33.5299 37.6363C34.1083 37.6363 34.6877 37.6272 35.2661 37.6386C35.8399 37.65 36.2315 38.0384 36.2191 38.5566C36.2066 39.0658 35.8263 39.4405 35.2751 39.4462C34.0901 39.4564 32.904 39.4576 31.719 39.4462C31.1678 39.4405 30.8011 39.0623 30.7988 38.5441C30.7966 38.0156 31.1474 37.6545 31.7099 37.6409C32.3166 37.6261 32.9232 37.6375 33.5299 37.6375V37.6363Z" fill="black"/>
<path d="M33.5312 44.9157C32.9381 44.9157 32.345 44.9236 31.7531 44.9134C31.1725 44.9031 30.7967 44.5364 30.7979 44.0022C30.799 43.4589 31.1578 43.1092 31.7588 43.1047C32.9302 43.0955 34.1016 43.0944 35.273 43.1058C35.8299 43.1115 36.2068 43.4794 36.217 43.9874C36.2283 44.5113 35.8378 44.9009 35.2674 44.9122C34.689 44.9236 34.1107 44.9145 33.5312 44.9145V44.9157Z" fill="black"/>
</svg>
