<svg width="37" height="13" viewBox="0 0 37 13" fill="none" xmlns="http://www.w3.org/2000/svg">
<path d="M27.5615 10.2143H22.941C22.7957 10.2143 22.6785 10.1052 22.6785 9.97013C22.6785 9.83504 22.7957 9.72598 22.941 9.72598H27.537C27.712 9.6918 28.9262 9.40697 28.9804 8.08206C29.0346 6.76855 28.2246 6.63671 28.0934 6.62369C28.0934 6.62369 25.1314 6.62369 25.1279 6.62369C23.9382 6.43977 23.6898 5.44365 23.7248 4.91466C23.7178 3.53931 24.9652 2.92406 25.6283 2.79059C25.6458 2.78733 25.665 2.78571 25.6842 2.78571H29.8447C29.9899 2.78571 30.1071 2.89476 30.1071 3.02985C30.1071 3.16495 29.9899 3.274 29.8447 3.274H25.7157C25.5145 3.3212 24.2409 3.67277 24.2514 4.92118C24.2514 4.92769 24.2514 4.93257 24.2514 4.93908C24.2479 4.9814 24.1936 5.96612 25.1944 6.1354C25.1944 6.1354 28.1231 6.1354 28.1214 6.1354C28.1354 6.1354 29.584 6.23794 29.5088 8.09997C29.4493 9.54043 28.2421 10.1101 27.6105 10.211C27.5965 10.2126 27.5808 10.2143 27.5668 10.2143H27.5615Z" fill="#333E7C"/>
<path d="M35.4322 10.2126H31.6146C31.6068 10.2126 31.5974 10.2126 31.5896 10.2126C31.0867 10.1567 30.128 9.78852 30.1076 8.80221C30.0857 7.75343 30.7546 4.56764 30.7828 4.43285C30.7859 4.42134 30.7875 4.41148 30.7922 4.39997C30.8157 4.33421 31.3765 2.78571 32.6203 2.78571H35.3664C35.3884 2.78571 35.4103 2.78899 35.4322 2.79557C35.4808 2.81036 36.6071 3.16379 36.6071 4.18134C36.6071 5.03614 36.369 6.48273 36.358 6.54355C36.3392 6.66027 36.2421 6.74739 36.1293 6.74739L30.8157 6.79342C30.681 7.58576 30.5698 8.38138 30.5792 8.7907C30.5964 9.55509 31.5112 9.70468 31.6303 9.72112H35.4338C35.5638 9.72112 35.6688 9.83126 35.6688 9.9677C35.6688 10.1041 35.5638 10.2143 35.4338 10.2143L35.4322 10.2126ZM31.2371 4.55449C31.2105 4.68107 31.0538 5.43724 30.8987 6.29698L35.9241 6.25259C35.9899 5.82355 36.134 4.80764 36.134 4.17805C36.134 3.60106 35.4745 3.32982 35.3273 3.27722H32.6188C31.7509 3.27722 31.2904 4.41476 31.2371 4.55449Z" fill="#333E7C"/>
<path d="M16.4205 12.9969C16.406 12.9969 16.3915 12.9969 16.3771 12.9937C16.2452 12.9702 16.1584 12.8478 16.1825 12.7207C16.1825 12.7207 16.5668 10.6479 16.9526 8.57503C17.1455 7.53783 17.34 6.5022 17.4863 5.72391C17.5603 5.33477 17.6214 5.00995 17.6664 4.784C17.7033 4.5957 17.7259 4.47331 17.7532 4.39172H17.7484C18.02 3.66364 18.8689 2.88535 19.4942 2.78806C19.5167 2.78492 19.5376 2.78492 19.5601 2.78806C19.7193 2.79277 21.2481 2.78963 22.2577 2.78806C22.4908 2.78335 23.7415 3.24468 23.5952 4.2097C23.5952 4.21754 23.5952 4.22696 23.592 4.2348L22.92 8.24237C22.92 8.25179 22.9168 8.25963 22.9136 8.26748C22.8991 8.31769 22.5455 9.50082 21.3703 9.84603C21.3494 9.85231 21.3285 9.85544 21.3076 9.85544L18.8303 9.92449C18.8206 9.92449 18.811 9.92449 18.8013 9.92449C18.7628 9.92135 17.9799 9.83975 17.3497 9.0646C17.0828 10.4957 16.8159 11.9298 16.6536 12.807C16.6327 12.9215 16.5314 13 16.4173 13L16.4205 12.9969ZM17.4783 8.3883C17.9686 9.29997 18.7258 9.43649 18.8383 9.45218L21.2642 9.3847C22.1082 9.11952 22.4136 8.25493 22.449 8.14822L23.1162 4.17047C23.1853 3.7264 22.4892 3.25252 22.203 3.25566C22.0262 3.25566 21.4619 3.2588 20.8977 3.2588C20.5569 3.2588 20.216 3.2588 19.9604 3.2588C19.7852 3.2588 19.6598 3.2588 19.5666 3.25252C19.1582 3.32 18.4316 3.95393 18.2065 4.54392C18.1647 4.72908 17.8368 6.47396 17.4783 8.3883Z" fill="#333E7C"/>
<path d="M13.2097 2.57973C13.2097 2.90359 12.9435 3.16577 12.6147 3.16577C12.2859 3.16577 12.0197 2.90359 12.0197 2.57973C12.0197 2.25586 12.2859 1.99228 12.6147 1.99228C12.9435 1.99228 13.2097 2.25446 13.2097 2.57973Z" fill="#FDB718"/>
<path d="M11.2652 1.17209C11.5938 1.17209 11.8602 0.909708 11.8602 0.586044C11.8602 0.262381 11.5938 0 11.2652 0C10.9366 0 10.6702 0.262381 10.6702 0.586044C10.6702 0.909708 10.9366 1.17209 11.2652 1.17209Z" fill="#FDB718"/>
<path d="M10.5065 2.57973C10.5065 2.90359 10.2403 3.16577 9.91147 3.16577C9.58265 3.16577 9.31647 2.90359 9.31647 2.57973C9.31647 2.25586 9.58265 1.99228 9.91147 1.99228C10.2403 1.99228 10.5065 2.25446 10.5065 2.57973Z" fill="#FDB718"/>
<path d="M12.5449 11.1545C12.8735 11.1545 13.1399 10.8921 13.1399 10.5684C13.1399 10.2448 12.8735 9.98239 12.5449 9.98239C12.2163 9.98239 11.9499 10.2448 11.9499 10.5684C11.9499 10.8921 12.2163 11.1545 12.5449 11.1545Z" fill="#FDB718"/>
<path d="M11.2624 9.28137C11.591 9.28137 11.8574 9.01899 11.8574 8.69533C11.8574 8.37166 11.591 8.10928 11.2624 8.10928C10.9338 8.10928 10.6674 8.37166 10.6674 8.69533C10.6674 9.01899 10.9338 9.28137 11.2624 9.28137Z" fill="#FDB718"/>
<path d="M8.6332 9.1804C8.90521 9.1804 9.12572 8.96322 9.12572 8.6953C9.12572 8.42739 8.90521 8.21021 8.6332 8.21021C8.36119 8.21021 8.14069 8.42739 8.14069 8.6953C8.14069 8.96322 8.36119 9.1804 8.6332 9.1804Z" fill="#FDB718"/>
<path d="M10.4411 10.5684C10.4411 10.8362 10.2205 11.0535 9.94857 11.0535C9.67669 11.0535 9.45605 10.8362 9.45605 10.5684C9.45605 10.3007 9.67669 10.0833 9.94857 10.0833C10.2205 10.0833 10.4411 10.3007 10.4411 10.5684Z" fill="#FDB718"/>
<path d="M7.32375 10.9442C7.53444 10.9442 7.70524 10.7759 7.70524 10.5684C7.70524 10.3609 7.53444 10.1927 7.32375 10.1927C7.11306 10.1927 6.94226 10.3609 6.94226 10.5684C6.94226 10.7759 7.11306 10.9442 7.32375 10.9442Z" fill="#FDB718"/>
<path d="M2.63057 7.0129C2.84126 7.0129 3.01206 6.84467 3.01206 6.63716C3.01206 6.42964 2.84126 6.26141 2.63057 6.26141C2.41988 6.26141 2.24908 6.42964 2.24908 6.63716C2.24908 6.84467 2.41988 7.0129 2.63057 7.0129Z" fill="#FDB718"/>
<path d="M3.3138 5.00942C3.52449 5.00942 3.69529 4.84119 3.69529 4.63368C3.69529 4.42616 3.52449 4.25793 3.3138 4.25793C3.10311 4.25793 2.93231 4.42616 2.93231 4.63368C2.93231 4.84119 3.10311 5.00942 3.3138 5.00942Z" fill="#FDB718"/>
<path d="M4.98911 2.57972C4.98911 2.78722 4.8183 2.95546 4.60762 2.95546C4.39695 2.95546 4.22614 2.78722 4.22614 2.57972C4.22614 2.37222 4.39695 2.20398 4.60762 2.20398C4.8183 2.20398 4.98911 2.37222 4.98911 2.57972Z" fill="#FDB718"/>
<path d="M6.30173 0.630899C6.30173 0.838398 6.13092 1.00664 5.92024 1.00664C5.70957 1.00664 5.53876 0.838398 5.53876 0.630899C5.53876 0.4234 5.70957 0.255157 5.92024 0.255157C6.13092 0.255157 6.30173 0.4234 6.30173 0.630899Z" fill="#FDB718"/>
<path d="M4.64467 10.9442C4.85536 10.9442 5.02616 10.7759 5.02616 10.5684C5.02616 10.3609 4.85536 10.1927 4.64467 10.1927C4.43398 10.1927 4.26318 10.3609 4.26318 10.5684C4.26318 10.7759 4.43398 10.9442 4.64467 10.9442Z" fill="#FDB718"/>
<path d="M3.29524 9.07106C3.50593 9.07106 3.67673 8.90284 3.67673 8.69532C3.67673 8.48781 3.50593 8.31958 3.29524 8.31958C3.08456 8.31958 2.91376 8.48781 2.91376 8.69532C2.91376 8.90284 3.08456 9.07106 3.29524 9.07106Z" fill="#FDB718"/>
<path d="M2.57492 10.7619C2.68341 10.7619 2.77135 10.6753 2.77135 10.5684C2.77135 10.4616 2.68341 10.3749 2.57492 10.3749C2.46643 10.3749 2.37848 10.4616 2.37848 10.5684C2.37848 10.6753 2.46643 10.7619 2.57492 10.7619Z" fill="#FDB718"/>
<path d="M1.34658 8.88879C1.45507 8.88879 1.54302 8.80217 1.54302 8.69531C1.54302 8.58845 1.45507 8.50183 1.34658 8.50183C1.23809 8.50183 1.15015 8.58845 1.15015 8.69531C1.15015 8.80217 1.23809 8.88879 1.34658 8.88879Z" fill="#FDB718"/>
<path d="M0.785698 6.60211C0.785698 6.70866 0.697443 6.79559 0.58926 6.79559C0.481077 6.79559 0.392822 6.70866 0.392822 6.60211C0.392822 6.49556 0.481077 6.40863 0.58926 6.40863C0.697443 6.40863 0.785698 6.49556 0.785698 6.60211Z" fill="#FDB718"/>
<path d="M1.29104 4.82995C1.39953 4.82995 1.48748 4.74333 1.48748 4.63647C1.48748 4.52962 1.39953 4.44299 1.29104 4.44299C1.18255 4.44299 1.0946 4.52962 1.0946 4.63647C1.0946 4.74333 1.18255 4.82995 1.29104 4.82995Z" fill="#FDB718"/>
<path d="M2.62051 2.79144C2.729 2.79144 2.81695 2.70481 2.81695 2.59796C2.81695 2.4911 2.729 2.40448 2.62051 2.40448C2.51202 2.40448 2.42407 2.4911 2.42407 2.59796C2.42407 2.70481 2.51202 2.79144 2.62051 2.79144Z" fill="#FDB718"/>
<path d="M5.93862 9.1804C6.21063 9.1804 6.43114 8.96322 6.43114 8.6953C6.43114 8.42739 6.21063 8.21021 5.93862 8.21021C5.66661 8.21021 5.44611 8.42739 5.44611 8.6953C5.44611 8.96322 5.66661 9.1804 5.93862 9.1804Z" fill="#FDB718"/>
<path d="M4.55227 7.12788C4.82428 7.12788 5.04479 6.9107 5.04479 6.64278C5.04479 6.37487 4.82428 6.15768 4.55227 6.15768C4.28026 6.15768 4.05975 6.37487 4.05975 6.64278C4.05975 6.9107 4.28026 7.12788 4.55227 7.12788Z" fill="#FDB718"/>
<path d="M6.41271 4.63369C6.41271 4.90147 6.19207 5.11879 5.92019 5.11879C5.64831 5.11879 5.42767 4.90147 5.42767 4.63369C5.42767 4.3659 5.64831 4.14859 5.92019 4.14859C6.19207 4.14859 6.41271 4.3659 6.41271 4.63369Z" fill="#FDB718"/>
<path d="M7.28671 3.06483C7.55872 3.06483 7.77922 2.84765 7.77922 2.57973C7.77922 2.31182 7.55872 2.09464 7.28671 2.09464C7.0147 2.09464 6.79419 2.31182 6.79419 2.57973C6.79419 2.84765 7.0147 3.06483 7.28671 3.06483Z" fill="#FDB718"/>
<path d="M8.58053 1.08098C8.85254 1.08098 9.07305 0.863791 9.07305 0.595878C9.07305 0.327965 8.85254 0.110779 8.58053 0.110779C8.30852 0.110779 8.08801 0.327965 8.08801 0.595878C8.08801 0.863791 8.30852 1.08098 8.58053 1.08098Z" fill="#FDB718"/>
<path d="M7.25254 7.22882C7.58115 7.22882 7.84755 6.96644 7.84755 6.64278C7.84755 6.31911 7.58115 6.05673 7.25254 6.05673C6.92393 6.05673 6.65753 6.31911 6.65753 6.64278C6.65753 6.96644 6.92393 7.22882 7.25254 7.22882Z" fill="#FDB718"/>
<path d="M8.58201 5.21973C8.91062 5.21973 9.17701 4.95735 9.17701 4.63368C9.17701 4.31002 8.91062 4.04764 8.58201 4.04764C8.25339 4.04764 7.987 4.31002 7.987 4.63368C7.987 4.95735 8.25339 5.21973 8.58201 5.21973Z" fill="#FDB718"/>
<path d="M16.3684 6.43527H7.55432V6.79559H16.3684V6.43527Z" fill="#FDB718"/>
<path d="M11.7933 4.45422H9.02179V4.81454H11.7933V4.45422Z" fill="#FDB718"/>
<path d="M12.9848 6.77457L11.4588 4.45422H11.8844L13.4104 6.77457H12.9848Z" fill="#FDB718"/>
<path d="M13.1398 8.51587H11.7263V8.87619H13.1398V8.51587Z" fill="#FDB718"/>
<path d="M12.804 8.8762L14.0694 6.77457H14.4352L13.1698 8.8762H12.804Z" fill="#FDB718"/>
</svg>
