<svg width="24" height="25" viewBox="0 0 24 25" fill="none" xmlns="http://www.w3.org/2000/svg">
<path d="M10.7846 20.3824C11.6099 20.3824 12.4353 20.4195 13.2607 20.3648C14.0117 20.3276 14.8019 20.2553 15.5353 20.0714C21.3676 18.6417 24.4853 12.203 21.9348 6.75796C20.3936 3.4741 17.7532 1.60235 14.1408 1.21705C11.3713 0.923672 8.8952 1.74904 6.8044 3.61883C4.75077 5.47101 3.68679 7.78087 3.61442 10.5503C3.59682 11.1919 3.61442 11.8529 3.61442 12.4945C3.59486 13.8909 2.80665 14.9725 1.4669 15.393C1.4493 15.393 1.41214 15.4302 1.39258 15.4302C1.90697 16.7875 3.99581 18.7864 5.2984 19.2812C6.93349 17.0438 10.233 17.8339 10.7846 20.3824Z" fill="white"/>
<path d="M10.7477 21.6107C10.5462 22.528 10.0514 23.2066 9.24365 23.6271C8.21684 24.1591 7.17046 24.1415 6.1984 23.5176C5.18919 22.8761 4.74912 21.904 4.82344 20.711C4.84104 20.5095 4.78628 20.4352 4.62199 20.3433C2.84217 19.4084 1.43201 18.1058 0.45995 16.3455C0.2761 15.9974 0.129412 15.6297 0.0374872 15.2444C-0.0915986 14.7124 0.111809 14.4562 0.661402 14.4014C1.32248 14.3271 1.90923 14.0709 2.20261 13.447C2.33169 13.1712 2.40406 12.8426 2.40406 12.5297C2.44122 11.7415 2.40406 10.9533 2.44122 10.1631C2.64267 7.11784 3.90811 4.58893 6.21992 2.60766C8.34592 0.776988 10.8396 -0.0835843 13.6443 0.00638461C18.5417 0.190234 22.7409 3.63839 23.7306 8.46151C24.6283 12.827 23.2729 16.4766 19.8052 19.3184C19.6038 19.4827 19.3828 19.6489 19.1441 19.7956C19.0151 19.8876 18.9799 19.9599 19.0346 20.1066C19.4923 21.5011 18.8508 23.0404 17.5677 23.7015C15.8251 24.564 13.8086 23.6839 13.2766 21.8121C13.259 21.7378 13.1671 21.6478 13.1123 21.6478C12.3437 21.5931 11.5535 21.6107 10.7477 21.6107ZM10.7849 20.3824C11.6102 20.3824 12.4356 20.4196 13.261 20.3648C14.012 20.3276 14.8022 20.2553 15.5356 20.0714C21.3679 18.6417 24.4856 12.203 21.9351 6.75797C20.3939 3.4741 17.7535 1.60236 14.1411 1.21705C11.3716 0.923676 8.89551 1.74904 6.80471 3.61883C4.75108 5.47102 3.6871 7.78087 3.61473 10.5504C3.59713 11.1919 3.61473 11.8529 3.61473 12.4945C3.59517 13.8909 2.80697 14.9725 1.46721 15.393C1.44961 15.393 1.41245 15.4302 1.39289 15.4302C1.90728 16.7875 3.99612 18.7864 5.29871 19.2812C6.9338 17.0438 10.2333 17.8339 10.7849 20.3824Z" fill="black"/>
<path d="M14.6533 15.5967C12.4882 15.4872 11.0585 14.6247 10.1412 12.9016C9.92015 12.4791 10.1236 12.0586 10.5441 11.9667C10.8003 11.9119 11.0389 12.0957 11.2227 12.3891C11.4614 12.7568 11.7 13.1226 12.0109 13.4159C13.734 15.0471 16.5583 14.5347 17.6418 12.4263C17.7709 12.1701 17.9352 11.9686 18.2462 11.9686C18.7039 11.9862 18.962 12.4458 18.7606 12.8664C18.1914 14.0223 17.2937 14.8652 16.083 15.2681C15.551 15.45 15.0014 15.5224 14.6533 15.5967Z" fill="black"/>
<path d="M10.82 9.58046C10.1589 9.58046 9.62891 9.04847 9.62891 8.38935C9.62891 7.73023 10.1609 7.19824 10.82 7.19824C11.4791 7.19824 12.0111 7.73023 12.0111 8.38935C12.0131 9.03087 11.4811 9.58046 10.82 9.58046Z" fill="black"/>
<path d="M19.2201 8.36933C19.2201 9.03041 18.6881 9.56044 18.0466 9.58C17.3855 9.58 16.8555 9.06561 16.8555 8.38889C16.8555 7.72782 17.3699 7.19778 18.029 7.17822C18.6705 7.17822 19.2005 7.71021 19.2201 8.36933Z" fill="black"/>
</svg>
