<svg xmlns="http://www.w3.org/2000/svg" viewBox="0 0 70.55 65.87"><title>alacena_dos_cuerpos</title><g id="Capa_2" data-name="Capa 2"><g id="Capa_1-2" data-name="Capa 1"><path d="M35.27,0H.85A.85.85,0,0,0,0,.85V59a.85.85,0,0,0,.85.85H2.46l1,5.34a.85.85,0,0,0,.84.7H8.35A.86.86,0,0,0,9.2,65V59.83H26.92V65a.87.87,0,0,0,.86.86h4.08a.87.87,0,0,0,.84-.7l1-5.34h1.61a.85.85,0,0,0,.85-.85V.85A.85.85,0,0,0,35.27,0ZM7.49,64.16H5l-.79-4.33h3.3Zm23.65,0H28.63V59.83h3.3Zm3.27-6H1.71V1.71h32.7Z"/><path d="M3.7,57H32.42a.85.85,0,0,0,.86-.85V3.7a.85.85,0,0,0-.86-.86H3.7a.85.85,0,0,0-.86.86V56.14A.85.85,0,0,0,3.7,57Zm20-4.52a2.82,2.82,0,0,1-2.81,2.82H16.6a2.83,2.83,0,0,1-2.82-2.82V50.85A2.82,2.82,0,0,1,16.6,48h4.32a2.81,2.81,0,0,1,2.81,2.81ZM31.57,37.8h-4a4.21,4.21,0,0,0,.89-2.26h.36a2.44,2.44,0,0,0,2.44-2.43v-.8a2.44,2.44,0,0,0-2.44-2.43h-.34V28.4a.85.85,0,0,0-.85-.86H6.75a.85.85,0,0,0-.85.86v6.75a4.35,4.35,0,0,0,.9,2.65H4.55V22h27V37.8Zm-3.06-4V31.59h.34a.73.73,0,0,1,.73.72v.8a.73.73,0,0,1-.73.72Zm-5.66,1.71a2.43,2.43,0,0,0,2.43-2.43v-.8a2.43,2.43,0,0,0-2.43-2.43H22.5v-.63h4.3v5.9a2.65,2.65,0,0,1-2.65,2.65H22.27a2.56,2.56,0,0,1-.62-.07,4.36,4.36,0,0,0,.83-2.19Zm-.35-1.71V31.59h.35a.73.73,0,0,1,.73.72v.8a.73.73,0,0,1-.73.72Zm-5.66,1.71a2.44,2.44,0,0,0,2.44-2.43v-.8a2.44,2.44,0,0,0-2.44-2.43H16.5v-.63h4.3v5.9a2.67,2.67,0,0,1-1.1,2.15,2.62,2.62,0,0,1-1.56.5H16.26a2.48,2.48,0,0,1-.61-.07,4.31,4.31,0,0,0,.83-2.19Zm-.34-1.71V31.59h.34a.73.73,0,0,1,.73.72v.8a.73.73,0,0,1-.73.72Zm-1.71-4.58v5.9a2.65,2.65,0,0,1-2.65,2.65H10.26A2.66,2.66,0,0,1,7.6,35.15v-5.9Zm2-11.58v-5.9H24v5.9a2.65,2.65,0,0,1-2.65,2.65H19.43A2.66,2.66,0,0,1,16.77,17.67ZM4.55,4.55h27V20.32H24.76a4.41,4.41,0,0,0,.89-2.26H26a2.43,2.43,0,0,0,2.43-2.44v-.79A2.43,2.43,0,0,0,26,12.4h-.34V10.91a.86.86,0,0,0-.86-.85H15.92a.85.85,0,0,0-.85.85v6.76a4.28,4.28,0,0,0,.9,2.65H4.55V4.55Zm21.12,11.8V14.1H26a.73.73,0,0,1,.73.73v.79a.73.73,0,0,1-.73.73ZM4.55,39.51h27V55.29H24.45a4.48,4.48,0,0,0,.85-1.72A5.49,5.49,0,0,0,29.39,51l.56-.88a.86.86,0,0,0,0-.89l-.9-1.53a.85.85,0,0,0-.57-.4.83.83,0,0,0-.68.16,4.51,4.51,0,0,1-3,.9h-.07a4.5,4.5,0,0,0-3.77-2H19.61v-.71a.85.85,0,1,0-1.7,0v.71H16.6a4.52,4.52,0,0,0-4,2.5h-.83A2.43,2.43,0,0,0,9.3,51.26v.8a2.43,2.43,0,0,0,2.43,2.43h.83a5.1,5.1,0,0,0,.5.8H4.55V39.51ZM25.37,50.08A6.35,6.35,0,0,0,28,49.34l.19.32-.28.45a3.81,3.81,0,0,1-2.51,1.72v-1A4.9,4.9,0,0,0,25.37,50.08Zm-13.28,2.7h-.36a.72.72,0,0,1-.72-.72v-.8a.72.72,0,0,1,.72-.72h.36c0,.1,0,.2,0,.31v1.62C12.08,52.58,12.08,52.68,12.09,52.78Z"/><path d="M69.69,0H35.28a.85.85,0,0,0-.85.85V59a.85.85,0,0,0,.85.85h1.6l1,5.34a.87.87,0,0,0,.84.7h4.08a.87.87,0,0,0,.86-.86V59.83H61.35V65a.86.86,0,0,0,.85.86h4.08a.85.85,0,0,0,.84-.7l1-5.34h1.6a.85.85,0,0,0,.86-.85V.85A.85.85,0,0,0,69.69,0ZM41.92,64.16H39.4l-.78-4.33h3.3Zm23.65,0H63.06V59.83h3.3Zm3.27-6H36.13V1.71H68.84Z"/><path d="M38.12,57H66.85a.86.86,0,0,0,.86-.85V3.7a.86.86,0,0,0-.86-.86H38.12a.85.85,0,0,0-.85.86V56.14A.85.85,0,0,0,38.12,57Zm20-4.52a2.82,2.82,0,0,1-2.81,2.82H51a2.82,2.82,0,0,1-2.81-2.82V50.85A2.81,2.81,0,0,1,51,48h4.33a2.81,2.81,0,0,1,2.81,2.81ZM66,37.8H62a4.37,4.37,0,0,0,.89-2.26h.36a2.43,2.43,0,0,0,2.43-2.43v-.8a2.43,2.43,0,0,0-2.43-2.43h-.34V28.4a.86.86,0,0,0-.86-.86H41.18a.85.85,0,0,0-.85.86v6.75a4.28,4.28,0,0,0,.9,2.65H39V22H66V37.8Zm-3.06-4V31.59h.34a.73.73,0,0,1,.73.72v.8a.73.73,0,0,1-.73.72Zm-5.67,1.71a2.43,2.43,0,0,0,2.44-2.43v-.8a2.43,2.43,0,0,0-2.44-2.43h-.34v-.63h4.3v5.9a2.65,2.65,0,0,1-2.65,2.65H56.7a2.56,2.56,0,0,1-.62-.07,4.36,4.36,0,0,0,.83-2.19Zm-.34-1.71V31.59h.34a.72.72,0,0,1,.73.72v.8a.72.72,0,0,1-.73.72Zm-5.66,1.71a2.43,2.43,0,0,0,2.43-2.43v-.8a2.43,2.43,0,0,0-2.43-2.43h-.34v-.63h4.3v5.9a2.67,2.67,0,0,1-1.1,2.15,2.62,2.62,0,0,1-1.56.5H50.69a2.48,2.48,0,0,1-.61-.07,4.31,4.31,0,0,0,.83-2.19Zm-.34-1.71V31.59h.34a.73.73,0,0,1,.73.72v.8a.73.73,0,0,1-.73.72Zm-1.71-4.58v5.9a2.65,2.65,0,0,1-2.65,2.65H44.68A2.65,2.65,0,0,1,42,35.15v-5.9Zm2-11.58v-5.9h7.19v5.9a2.66,2.66,0,0,1-2.66,2.65H53.85A2.65,2.65,0,0,1,51.2,17.67ZM39,4.55H66V20.32H59.19a4.41,4.41,0,0,0,.89-2.26h.36a2.43,2.43,0,0,0,2.43-2.44v-.79a2.43,2.43,0,0,0-2.43-2.43h-.35V10.91a.85.85,0,0,0-.85-.85H50.35a.86.86,0,0,0-.86.85v6.76a4.29,4.29,0,0,0,.91,2.65H39V4.55Zm21.11,11.8V14.1h.35a.73.73,0,0,1,.73.73v.79a.73.73,0,0,1-.73.73ZM39,39.51H66V55.29H58.88a4.48,4.48,0,0,0,.85-1.72A5.5,5.5,0,0,0,63.82,51l.56-.88a.86.86,0,0,0,0-.89l-.9-1.53a.87.87,0,0,0-.57-.4.83.83,0,0,0-.68.16,4.53,4.53,0,0,1-3.05.9h-.07a4.51,4.51,0,0,0-3.77-2H54v-.71a.85.85,0,0,0-.85-.85.86.86,0,0,0-.86.85v.71H51a4.53,4.53,0,0,0-4,2.5h-.82a2.43,2.43,0,0,0-2.43,2.43v.8a2.43,2.43,0,0,0,2.43,2.43H47a5.16,5.16,0,0,0,.51.8H39V39.51ZM59.8,50.08a6.39,6.39,0,0,0,2.67-.74l.19.32-.28.45a3.81,3.81,0,0,1-2.51,1.72v-1A4.9,4.9,0,0,0,59.8,50.08Zm-13.28,2.7h-.36a.73.73,0,0,1-.73-.72v-.8a.73.73,0,0,1,.73-.72h.36c0,.1,0,.2,0,.31v1.62C46.51,52.58,46.51,52.68,46.52,52.78Z"/></g></g></svg>