<svg xmlns="http://www.w3.org/2000/svg" viewBox="0 0 67 47.58"><title>centro_entretenimiento</title><g id="Capa_2" data-name="Capa 2"><g id="Capa_1-2" data-name="Capa 1"><path d="M53.69,5.61a1,1,0,0,0-1-1H14.35a1,1,0,0,0-1,1V30.26a1,1,0,0,0,1,1h38.3a1,1,0,0,0,1-1ZM51.61,29.22H15.39V6.66H51.61Z"/><path d="M17.13,28.18H49.87a.69.69,0,0,0,.69-.7V8.4a.69.69,0,0,0-.69-.7H17.13a.69.69,0,0,0-.69.7V27.48a.69.69,0,0,0,.69.7Zm.7-19.09H49.17v17.7H17.83V9.09Z"/><path d="M66,45.49H64.7V1a1,1,0,0,0-1-1H57a1,1,0,0,0-1,1V45.49H54.69a1,1,0,1,0,0,2.09H66a1,1,0,0,0,0-2.09ZM62.62,12.16,58,16.75V4.87h4.6v7.29ZM58,18.72l4.6-4.59v2.21L58,20.93Zm0,4.18,4.6-4.59v12.3H58Zm4.6-20.81V3.48H58V2.09ZM58,45.49V32h4.6V45.49Z"/><path d="M12.31,45.49H11.06V1a1,1,0,0,0-1-1H3.34a1,1,0,0,0-1,1V45.49H1a1,1,0,0,0,0,2.09H12.31a1,1,0,1,0,0-2.09ZM9,12.16,4.38,16.75V4.87H9v7.29ZM4.38,18.72,9,14.13v2.21L4.38,20.93Zm0,4.18L9,18.31v12.3H4.38ZM9,2.09V3.48H4.38V2.09ZM4.38,45.49V32H9V45.49Z"/><path d="M44,33.38H23a1,1,0,0,0-1,1v12.1a1,1,0,0,0,1,1H44a1,1,0,0,0,1-1V34.43A1,1,0,0,0,44,33.38ZM43,45.49H24v-10H43Z"/><path d="M29.94,44.52a4,4,0,1,0-4-4A4,4,0,0,0,29.94,44.52Zm0-6.68a2.64,2.64,0,1,1-2.64,2.64A2.64,2.64,0,0,1,29.94,37.84Z"/><path d="M38.36,43.22a2.74,2.74,0,1,0-2.74-2.74A2.74,2.74,0,0,0,38.36,43.22Zm0-4.09A1.35,1.35,0,1,1,37,40.48,1.35,1.35,0,0,1,38.36,39.13Z"/><path d="M29.94,41.52a1.09,1.09,0,0,0,.74-.3,1.07,1.07,0,0,0,.3-.74,1.09,1.09,0,0,0-.3-.74,1.07,1.07,0,0,0-.74-.3,1,1,0,0,0-1,1,1.07,1.07,0,0,0,.3.74A1.09,1.09,0,0,0,29.94,41.52Z"/></g></g></svg>