<svg width="46" height="51" viewBox="0 0 46 51" fill="none" xmlns="http://www.w3.org/2000/svg">
<circle cx="27" cy="21" r="19" fill="#FFF682"/>
<g clip-path="url(#clip0_836_6452)">
<path d="M21.7209 50.9999C19.5718 50.0023 17.4226 49.0059 15.2735 48.0083C12.3411 46.6474 9.41209 45.2817 6.47738 43.9277C5.88677 43.6546 5.53355 43.2408 5.52782 42.5539C5.51291 40.6489 5.47277 38.7452 5.48309 36.8403C5.48768 36.0783 6.15513 35.5039 6.8868 35.5309C7.61618 35.5579 8.19761 36.158 8.20449 36.9388C8.21826 38.3888 8.21252 39.8401 8.20564 41.2913C8.20564 41.5281 8.2366 41.6817 8.4889 41.7966C12.4351 43.5995 16.3744 45.4165 20.316 47.2288C20.3906 47.2628 20.4709 47.2874 20.5833 47.3284V33.3259C20.4422 33.4595 20.339 33.5486 20.2438 33.6471C19.3585 34.5661 18.4788 35.4899 17.5901 36.4042C17.0442 36.9669 16.5419 37.0642 15.8343 36.736C10.8433 34.4208 5.85237 32.1032 0.864853 29.7787C-0.0892999 29.3344 -0.29114 28.2196 0.450852 27.4541C2.21695 25.6336 3.99567 23.8248 5.78241 22.0254C6.01063 21.7956 6.30077 21.6069 6.59321 21.4686C9.62311 20.0454 12.6587 18.6352 15.6944 17.2238C16.5247 16.837 17.3332 17.1019 17.6612 17.8568C17.9811 18.5942 17.6451 19.3819 16.8377 19.7582C14.754 20.73 12.6679 21.696 10.5841 22.6643C10.4821 22.7111 10.3834 22.7662 10.2298 22.8436C10.3582 22.9245 10.4419 22.9913 10.536 23.0347C14.2482 24.7626 17.9593 26.4905 21.6773 28.2055C21.8356 28.2782 22.0787 28.2969 22.2324 28.2266C26.018 26.4881 29.7979 24.7356 33.5779 22.9843C33.6295 22.9608 33.6776 22.9315 33.8244 22.853C33.5939 22.7428 33.4265 22.6596 33.2567 22.581C31.1581 21.6081 29.0594 20.6374 26.9619 19.6621C26.3609 19.3831 26.0501 18.8931 26.0765 18.2882C26.1017 17.7033 26.4412 17.1781 26.9974 17.0492C27.3243 16.9741 27.7337 16.973 28.0318 17.1101C31.2464 18.5778 34.4483 20.0759 37.6479 21.5776C37.8761 21.6842 38.0849 21.8601 38.2649 22.043C40.0333 23.8412 41.796 25.6453 43.5494 27.4576C43.7341 27.6487 43.8522 27.9077 44.0013 28.1352V28.8385C43.7513 29.4246 43.2822 29.7364 42.726 29.9838C41.4278 30.5605 40.148 31.183 38.8532 31.768C38.5803 31.891 38.4805 32.0376 38.4817 32.3494C38.4943 35.6598 38.4782 38.9691 38.4966 42.2795C38.5011 43.1025 38.1686 43.6194 37.4381 43.9523C35.204 44.971 32.9815 46.0167 30.7544 47.0506C27.916 48.3682 25.0776 49.6835 22.2381 50.9999H21.722H21.7209ZM23.3597 47.407C23.5065 47.3448 23.5982 47.3085 23.6877 47.2675C27.6087 45.4458 31.5296 43.6218 35.4552 41.8083C35.6949 41.6981 35.7545 41.5586 35.7534 41.3113C35.7465 38.7616 35.7488 36.212 35.7476 33.6623C35.7476 33.5357 35.735 33.4103 35.727 33.245C35.5504 33.32 35.407 33.3775 35.2671 33.4419C32.9999 34.4958 30.7372 35.5567 28.4665 36.6023C27.338 37.1216 27.0846 37.0712 26.182 36.1803C25.3471 35.3551 24.5283 34.5145 23.7015 33.6811C23.6086 33.5873 23.5054 33.5052 23.3597 33.3751V47.407V47.407ZM40.2328 28.0554C40.1228 27.9312 40.0516 27.8433 39.9725 27.7624C39.0115 26.7777 38.0424 25.8012 37.094 24.8048C36.8864 24.5867 36.7293 24.5727 36.4678 24.6946C32.5526 26.5221 28.6328 28.3391 24.7141 30.1585C24.6051 30.2089 24.5031 30.2757 24.3643 30.3531C25.4251 31.4362 26.4584 32.4713 27.463 33.5334C27.7073 33.7924 27.8919 33.8089 28.1958 33.667C31.798 31.9825 35.4059 30.3132 39.0115 28.638C39.4106 28.4528 39.8051 28.2594 40.2328 28.0554V28.0554ZM3.80759 28.0508C3.93603 28.1187 4.03237 28.1762 4.13329 28.2231C8.04967 30.0518 11.9684 31.877 15.8802 33.7139C16.1256 33.8288 16.2597 33.7713 16.4306 33.5932C17.2024 32.7878 17.9857 31.993 18.7678 31.1982C19.0373 30.9239 19.316 30.6602 19.5832 30.3976C19.5144 30.312 19.5018 30.2804 19.4789 30.2698C15.4432 28.3919 11.4076 26.5128 7.36502 24.6512C7.25263 24.5996 7.01066 24.6887 6.90859 24.7931C5.93494 25.786 4.97735 26.7953 4.01631 27.8011C3.9498 27.8702 3.89245 27.9488 3.80874 28.0508H3.80759Z" fill="black"/>
</g>
<path d="M19.2812 16.2891C19.2812 16.8281 19.4688 17.293 19.8438 17.6836C20.2266 18.0664 20.7695 18.2578 21.4727 18.2578C22.1836 18.2578 22.7266 18.0664 23.1016 17.6836C23.4844 17.3008 23.6758 16.8359 23.6758 16.2891C23.6758 15.7578 23.4844 15.3008 23.1016 14.918C22.7266 14.5273 22.1836 14.332 21.4727 14.332C20.7617 14.332 20.2188 14.5273 19.8438 14.918C19.4688 15.3008 19.2812 15.7578 19.2812 16.2891ZM16.3867 5.76562H19.9258V5.4375C19.9258 4.75 20.0742 4.23828 20.3711 3.90234C20.6758 3.55859 21.1328 3.38672 21.7422 3.38672C22.375 3.38672 22.8359 3.55469 23.125 3.89062C23.4141 4.21875 23.5586 4.72266 23.5586 5.40234C23.5586 6.05078 23.4023 6.5625 23.0898 6.9375C22.7773 7.3125 22.2891 7.78125 21.625 8.34375C20.8281 9.02344 20.2891 9.68359 20.0078 10.3242C19.7344 10.9648 19.5977 11.7383 19.5977 12.6445V12.8555H23.2656V12.6797C23.2656 12.2109 23.3555 11.7344 23.5352 11.25C23.7148 10.7656 24.125 10.2734 24.7656 9.77344C25.4375 9.24219 26.0312 8.62109 26.5469 7.91016C27.0625 7.19922 27.3203 6.30078 27.3203 5.21484C27.3203 3.80078 26.8203 2.69531 25.8203 1.89844C24.8281 1.10156 23.4883 0.703125 21.8008 0.703125C20.1602 0.703125 18.8477 1.10547 17.8633 1.91016C16.8789 2.70703 16.3867 3.82422 16.3867 5.26172V5.76562Z" fill="black"/>
<defs>
<clipPath id="clip0_836_6452">
<rect width="44" height="34" fill="white" transform="translate(0 17)"/>
</clipPath>
</defs>
</svg>
