<svg xmlns="http://www.w3.org/2000/svg" viewBox="0 0 65 34.28"><title>sofa_2p</title><g id="Capa_2" data-name="Capa 2"><g id="Capa_1-2" data-name="Capa 1"><path d="M62.82,10.31H59.33V3.38A3.4,3.4,0,0,0,55.91,0H35A3.43,3.43,0,0,0,32.5,1,3.43,3.43,0,0,0,30,0H9.09A3.4,3.4,0,0,0,5.67,3.38v6.93H2.18A2.17,2.17,0,0,0,0,12.47V28.23A2.18,2.18,0,0,0,2.18,30.4H7.11l.26,0,.15,0v2.32a1.56,1.56,0,0,0,1.57,1.56h6.16a1.57,1.57,0,0,0,1.57-1.56V30.4H48.18v2.32a1.57,1.57,0,0,0,1.57,1.56h6.16a1.56,1.56,0,0,0,1.57-1.56V30.4l.15,0,.26,0h4.93A2.18,2.18,0,0,0,65,28.23V12.47A2.17,2.17,0,0,0,62.82,10.31ZM7.39,17a2.18,2.18,0,0,0-1.72,2.12v3.64a2.17,2.17,0,0,0,1.72,2.11v3.34a.26.26,0,0,1-.28.26H2.18a.27.27,0,0,1-.28-.26V12.47a.28.28,0,0,1,.28-.26H7.11a.27.27,0,0,1,.28.26Zm7.52,15.35H9.42v-2h5.49Zm40.67,0H50.09v-2h5.49ZM9.28,28.49a2.11,2.11,0,0,0,0-.26V24.94h22a2.18,2.18,0,0,0,1.23-.38,2.18,2.18,0,0,0,1.23.38h22v3.29a2.11,2.11,0,0,0,0,.26ZM57.43,10.35a2.17,2.17,0,0,0-1.73,2.12V17h-14a1,1,0,0,0,0,1.91H57.15a.28.28,0,0,1,.28.26v3.64a.28.28,0,0,1-.28.26H33.73a.28.28,0,0,1-.28-.26V19.14a.28.28,0,0,1,.28-.26H38A1,1,0,1,0,38,17H33.73a2.18,2.18,0,0,0-1.23.38A2.18,2.18,0,0,0,31.27,17H16.91a1,1,0,0,0,0,1.91H31.27a.28.28,0,0,1,.28.26v3.64a.28.28,0,0,1-.28.26H7.85a.28.28,0,0,1-.28-.26V19.14a.28.28,0,0,1,.28-.26h5.49a1,1,0,0,0,0-1.91h-4v-4.5a2.17,2.17,0,0,0-1.73-2.12v-7A1.5,1.5,0,0,1,9.09,1.9H30a1.5,1.5,0,0,1,1.51,1.48V14.17a1,1,0,0,0,1.9,0V3.38A1.5,1.5,0,0,1,35,1.9H55.91a1.5,1.5,0,0,1,1.52,1.48v7ZM63.1,28.23a.27.27,0,0,1-.28.26H57.89a.26.26,0,0,1-.28-.26V24.89a2.17,2.17,0,0,0,1.72-2.11V19.14A2.18,2.18,0,0,0,57.61,17V12.47a.27.27,0,0,1,.28-.26h4.93a.28.28,0,0,1,.28.26Z"/></g></g></svg>