<svg xmlns="http://www.w3.org/2000/svg" viewBox="0 0 75 24.48"><title>sofa_4p</title><g id="Capa_2" data-name="Capa 2"><g id="Capa_1-2" data-name="Capa 1"><path d="M73.44,7.36H71V2.41A2.42,2.42,0,0,0,68.51,0H39.26A2.47,2.47,0,0,0,37.5.74,2.47,2.47,0,0,0,35.74,0H6.49A2.42,2.42,0,0,0,4.05,2.41v5H1.56A1.55,1.55,0,0,0,0,8.91V20.17a1.55,1.55,0,0,0,1.56,1.54H5.37v1.66a1.12,1.12,0,0,0,1.12,1.11h4.4A1.12,1.12,0,0,0,12,23.37V21.71H63v1.66a1.12,1.12,0,0,0,1.12,1.11h4.4a1.12,1.12,0,0,0,1.12-1.11V21.71h3.81A1.55,1.55,0,0,0,75,20.17V8.91A1.55,1.55,0,0,0,73.44,7.36ZM5.28,12.16a1.55,1.55,0,0,0-1.23,1.51v2.6a1.55,1.55,0,0,0,1.23,1.51v2.39a.19.19,0,0,1-.2.18H1.56a.19.19,0,0,1-.2-.18V8.91a.19.19,0,0,1,.2-.19H5.08a.19.19,0,0,1,.2.19Zm5.37,11H6.73V21.71h3.92Zm57.62,0H64.35V21.71h3.92ZM6.63,20.35a1.09,1.09,0,0,0,0-.18V17.82h30a1.56,1.56,0,0,0,.88-.28,1.56,1.56,0,0,0,.88.28h30v2.35a1.09,1.09,0,0,0,0,.18Zm63-12.95a1.55,1.55,0,0,0-1.23,1.51v3.21H44.06a.68.68,0,0,0,0,1.36H69.39a.2.2,0,0,1,.2.19v2.6a.19.19,0,0,1-.2.18h-31a.19.19,0,0,1-.2-.18v-2.6a.2.2,0,0,1,.2-.19h3.06a.68.68,0,0,0,0-1.36H38.38a1.49,1.49,0,0,0-.88.28,1.49,1.49,0,0,0-.88-.28H12.08a.68.68,0,0,0,0,1.36H36.62a.2.2,0,0,1,.2.19v2.6a.19.19,0,0,1-.2.18h-31a.19.19,0,0,1-.2-.18v-2.6a.2.2,0,0,1,.2-.19H9.53a.68.68,0,1,0,0-1.36H6.64V8.91A1.55,1.55,0,0,0,5.41,7.4v-5a1.06,1.06,0,0,1,1.08-1H35.74a1.06,1.06,0,0,1,1.08,1.05v7.71a.68.68,0,0,0,1.36,0V2.41a1.06,1.06,0,0,1,1.08-1H68.51a1.06,1.06,0,0,1,1.08,1.05v5Zm4,12.77a.19.19,0,0,1-.2.18H69.92a.19.19,0,0,1-.2-.18V17.78A1.55,1.55,0,0,0,71,16.27v-2.6a1.55,1.55,0,0,0-1.23-1.51V8.91a.19.19,0,0,1,.2-.19h3.52a.19.19,0,0,1,.2.19Z"/></g></g></svg>